<svg width="129" height="128" viewBox="0 0 129 128" fill="none" xmlns="http://www.w3.org/2000/svg">
<g clip-path="url(#clip0_668_4178)">
<path d="M-0.533691 45.7865C-0.533691 29.5687 -0.533691 21.4598 2.62252 15.2654C5.39881 9.81661 9.82882 5.38661 15.2776 2.61031C21.472 -0.545898 29.5809 -0.545898 45.7987 -0.545898H81.1581C97.376 -0.545898 105.485 -0.545898 111.679 2.61031C117.128 5.38661 121.558 9.81661 124.334 15.2654C127.491 21.4598 127.491 29.5687 127.491 45.7865V81.1459C127.491 97.3638 127.491 105.473 124.334 111.667C121.558 117.116 117.128 121.546 111.679 124.322C105.485 127.478 97.376 127.478 81.1581 127.478H45.7987C29.5809 127.478 21.472 127.478 15.2776 124.322C9.82882 121.546 5.39881 117.116 2.62252 111.667C-0.533691 105.473 -0.533691 97.3638 -0.533691 81.1459V45.7865Z" fill="#00005B"/>
<path d="M53.3445 79.609H34.0296L30.0997 92.539C29.9906 93.0185 29.5622 93.358 29.0963 93.3346H19.3133C18.7555 93.3346 18.5604 93.0107 18.7281 92.3624L35.4509 41.6591C35.6183 41.1292 35.7854 40.6107 35.9528 39.9326C36.1715 38.753 36.2835 37.5545 36.2873 36.3529C36.2394 35.9977 36.5367 35.6832 36.8724 35.7339H50.1674C50.5569 35.7339 50.7795 35.8812 50.836 36.1758L69.8171 92.4505C69.984 93.0405 69.8166 93.3351 69.3154 93.3346H58.4451C58.064 93.3791 57.6999 93.1098 57.6091 92.7157L53.3445 79.609ZM37.0397 68.707H50.2511C48.0805 61.0621 45.6308 53.5182 43.6454 45.8137C41.3956 53.8054 39.3181 61.2172 37.0397 68.707Z" fill="#9999FF"/>
<path d="M83.9096 74.9995C84.6909 81.7682 90.1267 84.9953 96.1456 84.8576C99.5398 84.7881 103.167 84.237 106.339 82.895C106.621 82.6533 106.763 82.8042 106.763 83.351V92.0081C106.79 92.4584 106.61 92.861 106.254 93.1018C102.312 94.9741 97.7868 95.5389 93.5114 95.467C80.7642 95.467 72.0102 86.0752 72.0138 72.411C71.9803 59.4619 80.0141 48.5375 92.4917 48.5375C103.069 48.2509 110.392 57.1057 110.421 68.1281C110.421 70.1352 110.314 72.1499 110.081 74.1423C110.036 74.5529 109.702 74.8717 109.316 74.8717C100.869 74.8717 92.3804 74.9995 83.9096 74.9995ZM83.9096 66.6976C88.6175 66.6976 93.3526 66.8717 98.0574 66.6522C98.7644 66.5765 99.2896 66.436 99.2896 65.6673C99.1915 61.5812 95.8936 58.2202 92.0669 58.3768C87.4436 58.0769 84.4846 62.1583 83.9096 66.6976Z" fill="#9999FF"/>
</g>
<defs>
<clipPath id="clip0_668_4178">
<rect width="128.024" height="128.024" fill="white" transform="translate(0 -0.012207)"/>
</clipPath>
</defs>
</svg>
