<svg width="129" height="128" viewBox="0 0 129 128" fill="none" xmlns="http://www.w3.org/2000/svg">
<g clip-path="url(#clip0_668_4166)">
<path d="M0 46.3202C0 30.1024 0 21.9935 3.15621 15.7991C5.9325 10.3503 10.3625 5.9203 15.8113 3.144C22.0057 -0.012207 30.1146 -0.012207 46.3324 -0.012207H81.6918C97.9097 -0.012207 106.019 -0.012207 112.213 3.144C117.662 5.9203 122.092 10.3503 124.868 15.7991C128.024 21.9935 128.024 30.1024 128.024 46.3202V81.6796C128.024 97.8975 128.024 106.006 124.868 112.201C122.092 117.649 117.662 122.079 112.213 124.856C106.019 128.012 97.9097 128.012 81.6918 128.012H46.3324C30.1146 128.012 22.0057 128.012 15.8113 124.856C10.3625 122.079 5.9325 117.649 3.15621 112.201C0 106.006 0 97.8975 0 81.6796V46.3202Z" fill="#330000"/>
<path d="M61.7243 80.2368H41.6046L37.5111 93.0762C37.3974 93.5532 36.9514 93.891 36.4659 93.8672H26.2752C25.6941 93.8672 25.4909 93.545 25.6655 92.9L43.0852 42.2464C43.2596 41.7187 43.4339 41.118 43.6078 40.4437C43.836 39.2701 43.9524 38.0778 43.9565 36.8823C43.9065 36.529 44.2218 36.2169 44.5659 36.2664H58.4148C58.8206 36.2664 59.0524 36.413 59.1113 36.7061L78.8832 92.9881C79.0571 93.5746 78.8832 93.8677 78.3606 93.8672H67.0374C66.6405 93.912 66.2612 93.644 66.1666 93.2519L61.7243 80.2368ZM44.7402 69.1562H58.502C56.241 61.5504 53.6892 54.0445 51.6211 46.3798C49.3898 54.0578 46.9553 61.7047 44.7402 69.1562Z" fill="#FF9A00"/>
<path d="M90.54 45.688C89.5579 45.724 88.5788 45.5705 87.6659 45.2379C86.7535 44.9053 85.9282 44.4005 85.2444 43.7572C84.5626 43.0857 84.0326 42.2985 83.6856 41.4397C83.3386 40.5814 83.1812 39.6689 83.2222 38.7545C83.1873 37.8493 83.3621 36.9477 83.7353 36.1083C84.109 35.2689 84.6723 34.5108 85.3889 33.8834C86.0984 33.2624 86.9359 32.776 87.8535 32.4521C88.7705 32.1282 89.7491 31.9733 90.7322 31.9964C93.0435 31.9964 94.8566 32.6254 96.1724 33.8834C96.8367 34.5371 97.3529 35.3039 97.6917 36.1397C98.0301 36.9755 98.1849 37.8643 98.1459 38.7545C98.1864 39.6721 98.0239 40.5882 97.6682 41.4475C97.3129 42.3067 96.7711 43.0921 96.076 43.7572C95.3497 44.4101 94.4824 44.9185 93.53 45.2511C92.5771 45.5832 91.5591 45.7322 90.54 45.688ZM83.8963 92.9946V51.042C83.8963 50.5153 84.152 50.252 84.6667 50.252H96.5097C97.0223 50.252 97.2791 50.5153 97.2796 51.042V92.9946C97.2796 93.5805 97.0228 93.873 96.5097 93.8725H84.7631C84.1854 93.8725 83.8963 93.58 83.8963 92.9946Z" fill="#FF9A00"/>
</g>
<defs>
<clipPath id="clip0_668_4166">
<rect width="128.024" height="128.024" fill="white" transform="translate(0 -0.012207)"/>
</clipPath>
</defs>
</svg>
