<svg width="129" height="128" viewBox="0 0 129 128" fill="none" xmlns="http://www.w3.org/2000/svg">
<g clip-path="url(#clip0_668_4170)">
<path d="M0 46.3202C0 30.1024 0 21.9935 3.15621 15.7991C5.9325 10.3503 10.3625 5.9203 15.8113 3.144C22.0057 -0.012207 30.1146 -0.012207 46.3324 -0.012207H81.6918C97.9097 -0.012207 106.019 -0.012207 112.213 3.144C117.662 5.9203 122.092 10.3503 124.868 15.7991C128.024 21.9935 128.024 30.1024 128.024 46.3202V81.6796C128.024 97.8975 128.024 106.006 124.868 112.201C122.092 117.649 117.662 122.079 112.213 124.856C106.019 128.012 97.9097 128.012 81.6918 128.012H46.3324C30.1146 128.012 22.0057 128.012 15.8113 124.856C10.3625 122.079 5.9325 117.649 3.15621 112.201C0 106.006 0 97.8975 0 81.6796V46.3202Z" fill="#001E36"/>
<path d="M27.7383 93.1647V37.186C27.7383 36.8054 27.8992 36.5877 28.2746 36.5877C33.8162 36.5877 39.3554 36.2612 44.8983 36.2612C53.8932 36.2612 63.6322 39.3032 67.046 48.6101C67.8504 50.8951 68.2793 53.2343 68.2793 55.6825C68.2793 60.3612 67.2069 64.2233 65.0617 67.2698C59.0698 75.7798 48.6845 75.6475 39.3752 75.6475V93.1106C39.4478 93.6275 39.0024 93.8721 38.5708 93.8721H28.3818C27.9528 93.8721 27.7383 93.6543 27.7383 93.1647ZM39.4285 47.0871V65.3658C43.12 65.6331 46.9824 65.6623 50.529 64.4956C54.4448 63.3781 56.589 60.0261 56.589 56.0089C56.6975 52.5859 54.812 49.3016 51.6019 48.0664C48.098 46.6252 43.211 46.5388 39.4285 47.0871Z" fill="#31A8FF"/>
<path d="M101.093 61.7767C99.4272 60.8997 97.6527 60.2583 95.8184 59.87C93.4616 59.3162 84.1658 57.3765 84.162 62.2305C84.2446 64.9403 88.5523 66.2678 90.4555 67.0421C97.1374 69.3329 104.698 73.4277 104.55 81.6593C104.754 91.9064 94.8118 96.0031 86.2894 96.004C81.8529 96.0498 77.231 95.3636 73.1706 93.4616C72.7827 93.2566 72.5335 92.8188 72.55 92.372V82.5669C72.5061 82.1739 72.929 81.8303 73.2593 82.1131C77.2376 84.5156 81.953 85.6824 86.5556 85.7447C88.5872 85.7447 92.6136 85.5481 92.5834 82.5669C92.5834 79.7064 87.7665 78.3911 85.8463 77.6644C83.0629 76.6724 80.424 75.2977 78.0016 73.579C74.6161 71.1676 72.4925 67.3013 72.55 63.0477C72.5302 53.3991 81.6821 49.0682 89.9241 49.0663C93.7769 49.0342 97.9147 49.3193 101.501 50.8821C102.017 51.0333 102.124 51.5762 102.122 52.0621V61.2319C102.154 61.8012 101.522 61.9949 101.093 61.7767Z" fill="#31A8FF"/>
</g>
<defs>
<clipPath id="clip0_668_4170">
<rect width="128.024" height="128.024" fill="white" transform="translate(0 -0.012207)"/>
</clipPath>
</defs>
</svg>
