<svg width="129" height="128" viewBox="0 0 129 128" fill="none" xmlns="http://www.w3.org/2000/svg">
<g clip-path="url(#clip0_668_4162)">
<path d="M0 46.3202C0 30.1024 0 21.9935 3.15621 15.7991C5.9325 10.3503 10.3625 5.9203 15.8113 3.144C22.0057 -0.012207 30.1146 -0.012207 46.3324 -0.012207H81.6918C97.9097 -0.012207 106.019 -0.012207 112.213 3.144C117.662 5.9203 122.092 10.3503 124.868 15.7991C128.024 21.9935 128.024 30.1024 128.024 46.3202V81.6796C128.024 97.8975 128.024 106.006 124.868 112.201C122.092 117.649 117.662 122.079 112.213 124.856C106.019 128.012 97.9097 128.012 81.6918 128.012H46.3324C30.1146 128.012 22.0057 128.012 15.8113 124.856C10.3625 122.079 5.9325 117.649 3.15621 112.201C0 106.006 0 97.8975 0 81.6796V46.3202Z" fill="#00005B"/>
<path d="M48.9218 77.5003H28.8019L24.7083 90.9088C24.5946 91.4061 24.1484 91.7581 23.663 91.7337H13.4725C12.8913 91.7337 12.6881 91.3978 12.8628 90.7254L30.2825 38.1446C30.4568 37.5945 30.6309 37.0573 30.8053 36.3538C31.0331 35.1308 31.1497 33.8878 31.1536 32.6415C31.1037 32.2732 31.4134 31.9473 31.7633 31.9997H45.6119C46.0177 31.9997 46.2501 32.1525 46.3088 32.4581L66.0806 90.8169C66.2544 91.4286 66.0801 91.7342 65.5579 91.7337H54.2345C53.8376 91.7802 53.4581 91.5007 53.3639 91.0922L48.9218 77.5003ZM31.9374 66.1943H45.6993C43.438 58.2662 40.8865 50.4424 38.8184 42.4531C36.4749 50.7406 34.3108 58.427 31.9374 66.1943Z" fill="#9999FF"/>
<path d="M72.9095 90.8968V56.4598C72.9095 55.4114 72.8956 54.239 72.8687 52.9423C72.8405 51.6464 72.7997 50.4119 72.7459 49.2395C72.6907 48.0676 72.6365 47.1421 72.5822 46.4622C72.4316 46.0259 72.7884 45.6899 73.1547 45.7215H81.6622C83.1969 45.6648 83.4556 48.191 83.5437 49.517C85.1253 47.9492 86.9582 46.7393 88.9426 45.953C90.9157 45.1803 92.9895 44.789 95.0777 44.796C96.7035 44.8043 98.3181 45.1014 99.8628 45.6755C101.646 46.3206 103.273 47.4257 104.614 48.9039C105.956 50.3817 106.975 52.1922 107.593 54.1921C108.411 56.5685 108.82 59.6386 108.82 63.4031V90.8968C108.82 91.4524 108.602 91.7299 108.166 91.7299H98.2678C97.7982 91.8065 97.3824 91.3359 97.4496 90.8044V64.5138C97.4987 62.8991 97.2478 61.2909 96.7135 59.7927C94.569 54.1109 87.5967 55.358 84.2798 58.8668V90.8968C84.2798 91.4524 84.0615 91.7299 83.6253 91.7299H73.6456C73.2229 91.7981 72.8492 91.3748 72.9095 90.8968Z" fill="#9999FF"/>
</g>
<defs>
<clipPath id="clip0_668_4162">
<rect width="128.024" height="128.024" fill="white" transform="translate(0 -0.012207)"/>
</clipPath>
</defs>
</svg>
