<svg width="129" height="128" viewBox="0 0 129 128" fill="none" xmlns="http://www.w3.org/2000/svg">
<g clip-path="url(#clip0_668_4182)">
<path d="M0 46.3202C0 30.1024 0 21.9935 3.15621 15.7991C5.9325 10.3503 10.3625 5.9203 15.8113 3.144C22.0057 -0.012207 30.1146 -0.012207 46.3324 -0.012207H81.6918C97.9097 -0.012207 106.019 -0.012207 112.213 3.144C117.662 5.9203 122.092 10.3503 124.868 15.7991C128.024 21.9935 128.024 30.1024 128.024 46.3202V81.6796C128.024 97.8975 128.024 106.006 124.868 112.201C122.092 117.649 117.662 122.079 112.213 124.856C106.019 128.012 97.9097 128.012 81.6918 128.012H46.3324C30.1146 128.012 22.0057 128.012 15.8113 124.856C10.3625 122.079 5.9325 117.649 3.15621 112.201C0 106.006 0 97.8975 0 81.6796V46.3202Z" fill="#00005B"/>
<path d="M27.7383 91.0055V32.9532C27.7383 32.5583 27.8991 32.3326 28.2745 32.3326C33.8162 32.3326 39.3553 31.9941 44.8986 31.9941C53.8929 31.9941 63.6323 35.1488 67.046 44.8007C67.8503 47.1702 68.2793 49.596 68.2793 52.1348C68.2793 56.9865 67.2069 60.9918 65.0617 64.1514C59.0701 72.9765 48.6845 72.8396 39.375 72.8396V90.9488C39.4478 91.4851 39.0024 91.7388 38.5707 91.7388H28.3818C27.9528 91.7388 27.7383 91.5132 27.7383 91.0055ZM39.4286 43.2211V62.1766C43.1201 62.4542 46.9825 62.4842 50.5291 61.2741C54.4447 60.1156 56.589 56.6392 56.589 52.4733C56.698 48.9236 54.8122 45.5174 51.6019 44.2367C48.0979 42.742 43.2113 42.6525 39.4286 43.2211Z" fill="#9999FF"/>
<path d="M75.2875 47.6222H84.5082C85.0165 47.6272 85.4731 47.9954 85.6073 48.5101C86.2831 50.0845 86.3666 51.9833 86.3688 53.6829C87.9502 51.7507 89.8567 50.1413 91.9939 48.9338C94.2861 47.5731 96.8844 46.8831 99.5173 46.9367C99.9547 46.8709 100.341 47.277 100.279 47.7354V58.4762C100.279 58.8913 99.996 59.0978 99.4329 59.0978C95.5302 58.8152 89.4544 59.7828 86.6185 63.0036V90.9314C86.6185 91.4641 86.3931 91.7305 85.9418 91.7305H76.049C75.5632 91.8035 75.1344 91.3447 75.2031 90.8426V60.5179C75.2031 56.4548 75.2871 52.2691 74.6957 48.2438C74.6046 47.8733 74.9423 47.5289 75.2875 47.6222Z" fill="#9999FF"/>
</g>
<defs>
<clipPath id="clip0_668_4182">
<rect width="128.024" height="128.024" fill="white" transform="translate(0 -0.012207)"/>
</clipPath>
</defs>
</svg>
