<svg width="129" height="128" viewBox="0 0 129 128" fill="none" xmlns="http://www.w3.org/2000/svg">
<rect y="-0.012207" width="128.024" height="128.024" rx="27.7386" fill="#282323"/>
<path d="M54.8208 67.728C55.1311 62.1919 57.8421 57.3145 61.932 53.857C65.9428 50.4609 71.3413 48.3853 77.2317 48.3853C83.1162 48.3853 88.5147 50.4609 92.5284 53.857C96.6154 57.3145 99.3264 62.1919 99.6396 67.7221C99.9499 73.4105 97.6635 78.6948 93.6526 82.612C89.5628 86.5964 83.7456 89.0966 77.2317 89.0966C70.7177 89.0966 64.8889 86.5964 60.8019 82.612C56.7882 78.6948 54.5075 73.4105 54.8208 67.728Z" fill="#282323"/>
<path d="M65.7356 68.2218C65.8948 65.3812 67.2859 62.8785 69.3844 61.1045C71.4424 59.3619 74.2124 58.2969 77.2348 58.2969C80.2542 58.2969 83.0242 59.3619 85.0837 61.1045C87.1808 62.8785 88.5718 65.3812 88.7325 68.2188C88.8918 71.1375 87.7185 73.849 85.6606 75.8589C83.562 77.9034 80.5772 79.1862 77.2348 79.1862C73.8925 79.1862 70.9016 77.9034 68.8046 75.8589C66.7451 73.849 65.5749 71.1375 65.7356 68.2218Z" fill="#265787"/>
<path d="M47.4798 74.0571C47.4993 75.1711 47.8546 77.3359 48.3875 79.0264C49.5075 82.6048 51.4073 85.9151 54.0508 88.8326C56.7636 91.8314 60.104 94.24 63.9624 95.9501C68.0179 97.7461 72.4122 98.6614 76.9766 98.6539C81.5334 98.6478 85.9277 97.7145 89.9832 95.905C93.8416 94.1783 97.179 91.7591 99.8872 88.7588C102.529 85.8293 104.426 82.5129 105.549 78.9346C106.114 77.1266 106.47 75.2915 106.613 73.4504C106.753 71.6364 106.695 69.8194 106.437 68.0039C105.934 64.4662 104.711 61.1468 102.826 58.1209C101.102 55.3405 98.8801 52.9062 96.2382 50.8574L96.2442 50.8529L69.582 30.3809C69.5579 30.3629 69.5384 30.3433 69.5128 30.3267C67.7635 28.9839 64.822 28.9884 62.8981 30.3343C60.9531 31.6952 60.7303 33.9457 62.4615 35.3653L62.454 35.3728L73.5744 44.4158L39.6803 44.4519H39.6351C36.8336 44.4549 34.1404 46.293 33.6075 48.6159C33.0595 50.9823 34.9624 52.9454 37.8753 52.9559L37.8708 52.9665L55.0504 52.9333L24.3944 76.4642C24.3553 76.4929 24.3132 76.523 24.277 76.5516C21.3852 78.766 20.4503 82.4482 22.2718 84.7786C24.1205 87.1481 28.0511 87.1526 30.973 84.7921L47.7041 71.099C47.7041 71.099 47.4602 72.9476 47.4798 74.0571ZM90.4725 80.2473C87.0251 83.7594 82.1988 85.7511 76.9766 85.7616C71.7468 85.7706 66.9205 83.797 63.4731 80.291C61.7886 78.5823 60.5511 76.6163 59.7879 74.5223C59.0397 72.4644 58.7492 70.2801 58.9419 68.0762C59.124 65.9219 59.7653 63.8671 60.789 62.0079C61.7946 60.1803 63.1796 58.5289 64.8897 57.1319C68.2407 54.4011 72.507 52.9228 76.969 52.9168C81.4356 52.9108 85.6988 54.3755 89.0529 57.0973C90.76 58.4883 92.1435 60.1337 93.1491 61.9582C94.1773 63.8159 94.814 65.8632 95.0037 68.0235C95.1934 70.2244 94.9029 72.4057 94.1547 74.4651C93.3899 76.5651 92.157 78.5312 90.4725 80.2473Z" fill="#EA7600"/>
</svg>
