<svg width="129" height="128" viewBox="0 0 129 128" fill="none" xmlns="http://www.w3.org/2000/svg">
<rect y="-0.012207" width="128.024" height="128.024" rx="27.7386" fill="#282323"/>
<path d="M52.7541 16.755V21.6972H40.1165V6.38916H52.7541V11.8054H45.5328V16.755H52.7541ZM65.7453 11.8054H70.7938V6.38916H58.1549C58.1549 6.38916 58.1549 9.10783 58.1549 11.8054C59.8458 13.4963 60.7274 14.3057 63.1729 16.7512C61.7434 16.7512 58.1549 16.7559 58.1549 16.7559V21.6972H70.7938V16.755L65.7453 11.8054ZM83.6584 11.8054H88.7065V6.38916H76.068C76.068 6.38916 76.068 9.10783 76.068 11.8054C77.7584 13.4963 78.6405 14.3057 81.0858 16.7512C79.6571 16.7512 76.068 16.7559 76.068 16.7559V21.6972H88.7067V16.755L83.6584 11.8054ZM105.352 28.9724L97.6751 112.132L64.4115 121.088L31.1473 112.132L23.4712 28.9724H105.352ZM89.8829 45.8815H64.3814H38.4293L39.6703 55.9236H64.3814H65.7695L64.3814 56.5014L40.5735 66.4174L41.3632 76.2331L64.3814 76.3078L76.7185 76.3471L75.9282 89.4357L64.3814 92.6868V92.6764L64.2867 92.7025L53.1346 89.8873L52.4579 81.7629H52.421H42.0768H42.0404L43.3943 97.4473L64.3814 103.653V103.642L64.4191 103.653L85.294 97.5602L88.0026 66.4176H64.3814H64.3231L64.3814 66.3925L88.867 55.9239L89.8829 45.8815Z" fill="white"/>
</svg>
