<svg width="129" height="128" viewBox="0 0 129 128" fill="none" xmlns="http://www.w3.org/2000/svg">
<rect y="-0.012207" width="128.024" height="128.024" rx="27.7386" fill="#282323"/>
<path d="M76.8151 76.8026C83.8857 76.8026 89.6175 71.0708 89.6175 64.0002C89.6175 56.9296 83.8857 51.1978 76.8151 51.1978C69.7445 51.1978 64.0127 56.9296 64.0127 64.0002C64.0127 71.0708 69.7445 76.8026 76.8151 76.8026Z" fill="#19BCFE"/>
<path fill-rule="evenodd" clip-rule="evenodd" d="M51.2101 102.407C58.2807 102.407 64.0126 96.6752 64.0126 89.6047C64.0126 87.6745 64.0126 83.4071 64.0126 76.8022C58.2612 76.8022 53.9937 76.8022 51.2101 76.8022C44.1396 76.8022 38.4077 82.5341 38.4077 89.6047C38.4077 96.6752 44.1396 102.407 51.2101 102.407Z" fill="#09CF83"/>
<path fill-rule="evenodd" clip-rule="evenodd" d="M51.2101 76.8026C53.567 76.8026 57.8345 76.8026 64.0126 76.8026V51.1978C57.8345 51.1978 53.567 51.1978 51.2101 51.1978C44.1396 51.1978 38.4077 56.9296 38.4077 64.0002C38.4077 71.0708 44.1396 76.8026 51.2101 76.8026Z" fill="#A259FF"/>
<path fill-rule="evenodd" clip-rule="evenodd" d="M51.2101 51.1976C53.567 51.1976 57.8345 51.1976 64.0126 51.1976V25.5928C57.8345 25.5928 53.567 25.5928 51.2101 25.5928C44.1396 25.5928 38.4077 31.3246 38.4077 38.3952C38.4077 45.4658 44.1396 51.1976 51.2101 51.1976Z" fill="#F24E1E"/>
<path fill-rule="evenodd" clip-rule="evenodd" d="M76.8151 51.1976H64.0127V25.5928H76.8151C83.8857 25.5928 89.6175 31.3246 89.6175 38.3952C89.6175 45.4658 83.8857 51.1976 76.8151 51.1976Z" fill="#FF7262"/>
</svg>
