<svg width="129" height="128" viewBox="0 0 129 128" fill="none" xmlns="http://www.w3.org/2000/svg">
<rect y="-0.012207" width="128.024" height="128.024" rx="27.7386" fill="#282323"/>
<path d="M31.057 6.38916H36.2443V11.5143H40.9895V6.38916H46.1772V21.9088H40.9899V16.7117H36.2448V21.9088H31.0575V6.38916H31.057ZM52.9984 11.5359H48.4321V6.38916H62.7547V11.5359H58.1861V21.9088H52.9989V11.5359H52.9984ZM65.0276 6.38916H70.4374L73.7641 11.8424L77.0881 6.38916H82.4986V21.9088H77.3325V14.2167L73.7639 19.7346H73.6749L70.1039 14.2167V21.9088H65.0276V6.38916ZM85.0807 6.38916H90.2694V16.7792H97.5645V21.9088H85.0807V6.38916ZM23.4712 29.0069L30.8913 112.233L64.1887 121.476L97.5784 112.22L105.006 29.0066L23.4712 29.0069ZM89.5286 48.7573L89.064 53.9322L88.8599 56.2267H88.8264H64.2389H64.2033H49.7992L50.732 66.6785H64.2033H64.2389H85.1798H87.9307L87.6816 69.4199L85.283 96.2931L85.1294 98.0165L64.2389 103.807V103.808L64.1921 103.822L43.2829 98.0169L41.8525 81.99H46.5754H52.0993L52.8261 90.1308L64.1939 93.201L64.2033 93.1981V93.1972L75.5884 90.1252L76.7724 76.8866H64.2389H64.2033H41.3967L38.8879 48.7573L38.6436 46.0193H64.2033H64.2389H89.773L89.5286 48.7573Z" fill="white"/>
</svg>
