<svg width="129" height="128" viewBox="0 0 129 128" fill="none" xmlns="http://www.w3.org/2000/svg">
<g clip-path="url(#clip0_668_4174)">
<rect x="17.0698" y="8.52295" width="93.8844" height="110.954" rx="46.9422" fill="#FF408C"/>
<path d="M84.4667 67.0319C84.6487 67.9366 84.738 69.0233 84.738 69.929V76.536C84.738 77.7132 84.6487 78.7989 84.3762 79.7949C83.2907 84.5928 79.308 87.6693 74.7819 87.6693C67.7225 87.6693 63.7393 81.7862 63.7393 73.7305C63.7393 65.4932 67.7225 59.1575 74.8721 59.1575C79.9411 59.1575 83.4713 62.6876 84.4667 67.0319ZM127.899 21.4086V106.591C127.899 118.304 118.316 127.887 106.603 127.887H21.4208C9.70806 127.887 0.125 118.304 0.125 106.591V21.4086C0.125 9.69585 9.70806 0.112793 21.4208 0.112793H106.604C118.316 0.112793 127.899 9.69585 127.899 21.4086ZM42.9233 34.6283H31.7905V95.6346H42.9233V34.6283ZM96.2342 95.6346C96.0521 92.6473 95.8713 87.7601 95.8713 83.2348V31.3695H84.738V56.3514H84.557C82.5668 53.0931 78.2213 50.5586 72.1571 50.5586C61.5669 50.5586 52.3344 59.3385 52.4246 74.0925C52.4246 87.6696 60.752 96.6298 71.2512 96.6298C77.6772 96.6298 83.0179 93.553 85.6434 88.6648H85.8245L86.2768 95.6346H96.2342Z" fill="#240011"/>
</g>
<defs>
<clipPath id="clip0_668_4174">
<rect width="128.024" height="128.024" fill="white" transform="translate(0 -0.012207)"/>
</clipPath>
</defs>
</svg>
