<svg width="129" height="128" viewBox="0 0 129 128" fill="none" xmlns="http://www.w3.org/2000/svg">
<g clip-path="url(#clip0_668_4199)">
<path fill-rule="evenodd" clip-rule="evenodd" d="M98.1178 117.976C86.9477 117.976 79.7271 112.65 76.2064 105.686L86.0002 100.013C88.5799 104.225 91.9277 107.317 97.8617 107.317C102.842 107.317 106.023 104.826 106.023 101.388C106.023 96.216 99.1227 94.1951 94.2514 92.1083C85.5714 88.4148 79.8102 83.7739 79.8102 73.9737C79.8102 64.9543 86.6852 58.08 97.4329 58.08C105.076 58.08 110.581 60.7425 114.53 67.7006L105.165 73.7174C103.104 70.0239 100.87 68.5633 97.4329 68.5633C93.9058 68.5633 91.6718 70.7984 91.6718 73.7174C91.6718 77.3276 93.9058 78.7878 99.0652 81.0219C109.877 85.6563 118.057 89.2972 118.057 101.216C118.057 112.047 109.55 117.976 98.1178 117.976ZM70.4133 99.841C70.4133 112.304 62.7382 118.892 52.0802 118.892C42.4527 118.892 36.6853 115.21 33.8496 108.808H33.7536H33.7087H33.6831L43.4705 101.966C45.3589 105.314 47.0617 107.689 51.1841 107.689C55.14 107.689 57.6109 105.686 57.6109 99.6754V57.5987H70.4133V99.841ZM0 128.012H128.024V-0.012207H0V128.012Z" fill="black"/>
</g>
<defs>
<clipPath id="clip0_668_4199">
<rect width="128.024" height="128.024" fill="white" transform="translate(0 -0.012207)"/>
</clipPath>
</defs>
</svg>
