<svg width="129" height="128" viewBox="0 0 129 128" fill="none" xmlns="http://www.w3.org/2000/svg">
<rect y="-0.012207" width="128.024" height="128.024" rx="27.7386" fill="#282323"/>
<path d="M81.8179 23.459H108.821L72.7109 89.6048C72.7109 89.6048 66.6257 72.0713 64.0122 65.8262" fill="url(#paint0_linear_668_4204)"/>
<path d="M89.6167 106.675H108.82V23.459C108.805 66.9448 91.7127 106.675 89.6167 106.675Z" fill="url(#paint1_linear_668_4204)"/>
<path d="M72.547 89.6048H55.9208L19.2036 23.7867C25.716 22.962 38.7218 21.8486 45.1643 21.3252L72.547 89.6048Z" fill="url(#paint2_linear_668_4204)"/>
<path d="M39.6314 64C34.3421 85.9777 19.1884 106.694 19.2036 106.675C36.7594 106.675 40.541 103.995 40.541 102.579V65.6723C40.2327 65.1267 39.9397 64.5617 39.6314 64Z" fill="url(#paint3_linear_668_4204)"/>
<path d="M19.2036 23.459V106.675C29.3777 89.9363 35.3069 78.9919 40.541 63.3801C27.6092 40.6223 19.2036 23.459 19.2036 23.459Z" fill="url(#paint4_linear_668_4204)"/>
<path d="M87.4834 103.295L89.6171 106.675V61.8662L87.4834 64.2877" fill="url(#paint5_linear_668_4204)"/>
<path d="M87.4834 63.0721V106.535L87.5372 106.675C89.0565 106.675 108.821 59.6437 108.821 23.459C108.821 23.4655 96.7572 47.7432 87.4834 63.0721Z" fill="url(#paint6_linear_668_4204)"/>
<defs>
<linearGradient id="paint0_linear_668_4204" x1="63.5266" y1="59.2472" x2="114.66" y2="49.2245" gradientUnits="userSpaceOnUse">
<stop stop-color="#0F6067"/>
<stop offset="0.5" stop-color="#05ABAC"/>
<stop offset="1" stop-color="#58BEC4"/>
</linearGradient>
<linearGradient id="paint1_linear_668_4204" x1="99.8795" y1="107.464" x2="107.761" y2="23.2165" gradientUnits="userSpaceOnUse">
<stop stop-color="#117C83"/>
<stop offset="0.5" stop-color="#21B5B5"/>
<stop offset="1" stop-color="#7ED4D4"/>
</linearGradient>
<linearGradient id="paint2_linear_668_4204" x1="57.0158" y1="24.8365" x2="38.021" y2="83.4619" gradientUnits="userSpaceOnUse">
<stop stop-color="#9ACCD3"/>
<stop offset="0.5" stop-color="#72AEB3"/>
<stop offset="1" stop-color="#317D7F"/>
</linearGradient>
<linearGradient id="paint3_linear_668_4204" x1="15.5933" y1="92.436" x2="46.6269" y2="82.8481" gradientUnits="userSpaceOnUse">
<stop stop-color="#21626E"/>
<stop offset="0.5" stop-color="#157C84"/>
<stop offset="1" stop-color="#03A3A5"/>
</linearGradient>
<linearGradient id="paint4_linear_668_4204" x1="40.8473" y1="45.6308" x2="-0.661132" y2="84.5084" gradientUnits="userSpaceOnUse">
<stop stop-color="#0B7C81"/>
<stop offset="0.5" stop-color="#068D90"/>
<stop offset="1" stop-color="#16B1B1"/>
</linearGradient>
<linearGradient id="paint5_linear_668_4204" x1="74.6836" y1="93.0445" x2="96.745" y2="66.7606" gradientUnits="userSpaceOnUse">
<stop stop-color="#0A8A8F"/>
<stop offset="0.5" stop-color="#0F7C82"/>
<stop offset="1" stop-color="#1A5964"/>
</linearGradient>
<linearGradient id="paint6_linear_668_4204" x1="110.812" y1="72.113" x2="87.7489" y2="57.1764" gradientUnits="userSpaceOnUse">
<stop stop-color="#256A77"/>
<stop offset="0.5" stop-color="#0D9499"/>
<stop offset="1" stop-color="#06A0A2"/>
</linearGradient>
</defs>
</svg>
