<svg width="1439" height="1068" viewBox="0 0 1439 1068" fill="none" xmlns="http://www.w3.org/2000/svg" xmlns:xlink="http://www.w3.org/1999/xlink">
<path d="M1366 823.163C1366 922.249 821.192 978.274 645.72 978.274C470.248 978.274 328 897.949 328 798.862C328 708.26 619.794 695.484 776.792 752.062C799.481 760.239 810.826 764.327 818.085 764.516C825.343 764.704 836.324 761.379 858.285 754.729C1043.65 698.598 1366 731.357 1366 823.163Z" fill="#B2FFE0"/>
<use xlink:href="#stroke0_613_8363" transform="translate(529.663 726.121) scale(0.0595069) rotate(119.445)"/>
<use xlink:href="#stroke0_613_8363" transform="translate(509.508 730.219) scale(0.0628031) rotate(-63.2275)"/>
<use xlink:href="#stroke0_613_8363" transform="translate(517.335 720.354) scale(0.0511012) rotate(-16.3621)"/>
<use xlink:href="#stroke0_613_8363" transform="translate(538.95 722.483) scale(0.0462732) rotate(113.093)"/>
<use xlink:href="#stroke0_613_8363" transform="translate(541.455 729.346) scale(0.0445988) rotate(159.342)"/>
<use xlink:href="#stroke0_613_8363" transform="translate(544.425 720.734) scale(0.0425666) rotate(103.859)"/>
<use xlink:href="#stroke0_613_8363" transform="translate(536.156 712.635) scale(0.0606216) rotate(20.7404)"/>
<use xlink:href="#stroke0_613_8363" transform="translate(537.063 718.839) scale(0.0435637) rotate(-14.6645)"/>
<use xlink:href="#stroke0_613_8363" transform="translate(547.284 732.578) scale(0.0437632) rotate(-135.188)"/>
<use xlink:href="#stroke0_613_8363" transform="translate(541.166 722.295) scale(0.0499564) rotate(-42.3824)"/>
<use xlink:href="#stroke0_613_8363" transform="translate(566.986 726.321) scale(0.0576555) rotate(145.713)"/>
<use xlink:href="#stroke0_613_8363" transform="translate(554.841 735.705) scale(0.064391) rotate(-115.044)"/>
<use xlink:href="#stroke0_613_8363" transform="translate(552.384 725.857) scale(0.0615519) rotate(-57.0398)"/>
<use xlink:href="#stroke0_613_8363" transform="translate(573.229 712.612) scale(0.0600436) rotate(58.8234)"/>
<use xlink:href="#stroke0_613_8363" transform="translate(561.883 719.801) scale(0.0647212) rotate(-27.1068)"/>
<use xlink:href="#stroke0_613_8363" transform="translate(582.396 716.624) scale(0.0448367) rotate(66.7688)"/>
<use xlink:href="#stroke0_613_8363" transform="translate(586.937 713.273) scale(0.0619103) rotate(61.7663)"/>
<use xlink:href="#stroke0_613_8363" transform="translate(596.226 733.798) scale(0.0598956) rotate(173.909)"/>
<use xlink:href="#stroke0_613_8363" transform="translate(583.473 720.274) scale(0.045969) rotate(-12.9496)"/>
<use xlink:href="#stroke0_613_8363" transform="translate(583.256 725.759) scale(0.0575487) rotate(-47.0667)"/>
<use xlink:href="#stroke0_613_8363" transform="translate(611.046 731.356) scale(0.0607483) rotate(155.078)"/>
<use xlink:href="#stroke0_613_8363" transform="translate(597.681 716.464) scale(0.0591485) rotate(9.33353)"/>
<use xlink:href="#stroke0_613_8363" transform="translate(600.106 730.794) scale(0.0421248) rotate(-73.2761)"/>
<use xlink:href="#stroke0_613_8363" transform="translate(624.852 727.199) scale(0.0627395) rotate(129.327)"/>
<use xlink:href="#stroke0_613_8363" transform="translate(611.952 738.881) scale(0.05698) rotate(-115.81)"/>
<use xlink:href="#stroke0_613_8363" transform="translate(627.125 719.386) scale(0.0537231) rotate(76.9381)"/>
<use xlink:href="#stroke0_613_8363" transform="translate(613.437 725.833) scale(0.0574396) rotate(-35.0551)"/>
<use xlink:href="#stroke0_613_8363" transform="translate(634.792 717.613) scale(0.0601038) rotate(67.1967)"/>
<use xlink:href="#stroke0_613_8363" transform="translate(640.895 725.191) scale(0.041639) rotate(104.254)"/>
<use xlink:href="#stroke0_613_8363" transform="translate(627.398 730.527) scale(0.0443387) rotate(-53.7098)"/>
<use xlink:href="#stroke0_613_8363" transform="translate(636.079 719.046) scale(0.0594501) rotate(20.9218)"/>
<use xlink:href="#stroke0_613_8363" transform="translate(637.076 722.31) scale(0.0569418) rotate(0.522394)"/>
<use xlink:href="#stroke0_613_8363" transform="translate(639.727 729.765) scale(0.0439567) rotate(-35.1485)"/>
<use xlink:href="#stroke0_613_8363" transform="translate(652.301 740.892) scale(0.0424936) rotate(-141.83)"/>
<use xlink:href="#stroke0_613_8363" transform="translate(661.774 739.196) scale(0.0455429) rotate(176.308)"/>
<use xlink:href="#stroke0_613_8363" transform="translate(658.333 743.145) scale(0.0491092) rotate(-136.445)"/>
<use xlink:href="#stroke0_613_8363" transform="translate(653.493 726.931) scale(0.0551988) rotate(-12.1957)"/>
<use xlink:href="#stroke0_613_8363" transform="translate(676.303 733.068) scale(0.0476305) rotate(126.039)"/>
<use xlink:href="#stroke0_613_8363" transform="translate(666.293 744.159) scale(0.0523123) rotate(-116.478)"/>
<use xlink:href="#stroke0_613_8363" transform="translate(671.379 742.927) scale(0.0426117) rotate(-121.575)"/>
<use xlink:href="#stroke0_613_8363" transform="translate(669.799 730.63) scale(0.0416056) rotate(-17.1822)"/>
<use xlink:href="#stroke0_613_8363" transform="translate(672.568 741.628) scale(0.0474867) rotate(-85.0957)"/>
<use xlink:href="#stroke0_613_8363" transform="translate(671.416 736.29) scale(0.0640582) rotate(-47.068)"/>
<use xlink:href="#stroke0_613_8363" transform="translate(683.809 745.896) scale(0.0477768) rotate(-108.181)"/>
<use xlink:href="#stroke0_613_8363" transform="translate(694.696 725.284) scale(0.063157) rotate(49.13)"/>
<use xlink:href="#stroke0_613_8363" transform="translate(700.192 751.57) scale(0.0619789) rotate(-150.19)"/>
<use xlink:href="#stroke0_613_8363" transform="translate(706.246 732.751) scale(0.0415237) rotate(75.1786)"/>
<use xlink:href="#stroke0_613_8363" transform="translate(702.625 728.176) scale(0.061554) rotate(28.9248)"/>
<use xlink:href="#stroke0_613_8363" transform="translate(708.716 731.057) scale(0.0490955) rotate(36.7426)"/>
<use xlink:href="#stroke0_613_8363" transform="translate(712.368 755.563) scale(0.0643965) rotate(-132.926)"/>
<use xlink:href="#stroke0_613_8363" transform="translate(725.777 752.64) scale(0.0581463) rotate(-177.614)"/>
<use xlink:href="#stroke0_613_8363" transform="translate(732.99 738.18) scale(0.0588546) rotate(100.655)"/>
<use xlink:href="#stroke0_613_8363" transform="translate(735.436 735.902) scale(0.0605983) rotate(83.5681)"/>
<use xlink:href="#stroke0_613_8363" transform="translate(726.818 756.988) scale(0.057734) rotate(-115.537)"/>
<use xlink:href="#stroke0_613_8363" transform="translate(742.578 735.864) scale(0.0632479) rotate(71.964)"/>
<use xlink:href="#stroke0_613_8363" transform="translate(730.439 748.843) scale(0.0458664) rotate(-50.7819)"/>
<use xlink:href="#stroke0_613_8363" transform="translate(734.793 740.186) scale(0.0632965) rotate(-2.99292)"/>
<use xlink:href="#stroke0_613_8363" transform="translate(756.347 753.121) scale(0.0432896) rotate(149.366)"/>
<use xlink:href="#stroke0_613_8363" transform="translate(757.255 745.097) scale(0.0418164) rotate(87.61)"/>
<use xlink:href="#stroke0_613_8363" transform="translate(745.621 760.371) scale(0.0612896) rotate(-91.2563)"/>
<use xlink:href="#stroke0_613_8363" transform="translate(766.514 742.055) scale(0.0622891) rotate(74.5409)"/>
<use xlink:href="#stroke0_613_8363" transform="translate(756.026 745.652) scale(0.0540919) rotate(-3.4411)"/>
<use xlink:href="#stroke0_613_8363" transform="translate(764.872 764.122) scale(0.0493007) rotate(-122.264)"/>
<use xlink:href="#stroke0_613_8363" transform="translate(770.657 765.933) scale(0.0522203) rotate(-134.08)"/>
<use xlink:href="#stroke0_613_8363" transform="translate(778.165 768.653) scale(0.0615334) rotate(-149.715)"/>
<use xlink:href="#stroke0_613_8363" transform="translate(781.167 768.647) scale(0.0555431) rotate(-144.159)"/>
<use xlink:href="#stroke0_613_8363" transform="translate(790.161 766.947) scale(0.0519454) rotate(-173.425)"/>
<use xlink:href="#stroke0_613_8363" transform="translate(787.881 747.851) scale(0.054179) rotate(40.7231)"/>
<use xlink:href="#stroke0_613_8363" transform="translate(786.687 752.414) scale(0.0450025) rotate(9.74215)"/>
<use xlink:href="#stroke0_613_8363" transform="translate(789.69 751.097) scale(0.0582037) rotate(13.9858)"/>
<use xlink:href="#stroke0_613_8363" transform="translate(790.124 770.968) scale(0.0582798) rotate(-88.2876)"/>
<use xlink:href="#stroke0_613_8363" transform="translate(816.547 760.846) scale(0.0644486) rotate(114.805)"/>
<use xlink:href="#stroke0_613_8363" transform="translate(799.537 768.939) scale(0.0436099) rotate(-70.7326)"/>
<use xlink:href="#stroke0_613_8363" transform="translate(802.484 762.215) scale(0.046814) rotate(-23.6828)"/>
<use xlink:href="#stroke0_613_8363" transform="translate(813.938 758.443) scale(0.0416212) rotate(37.5484)"/>
<use xlink:href="#stroke0_613_8363" transform="translate(808.921 766.025) scale(0.0432884) rotate(-37.7094)"/>
<use xlink:href="#stroke0_613_8363" transform="translate(830.746 775.131) scale(0.0557364) rotate(166.384)"/>
<use xlink:href="#stroke0_613_8363" transform="translate(822.322 761.157) scale(0.0418551) rotate(23.4297)"/>
<use xlink:href="#stroke0_613_8363" transform="translate(832.815 762.561) scale(0.0424552) rotate(73.7611)"/>
<use xlink:href="#stroke0_613_8363" transform="translate(843.682 769.662) scale(0.0574248) rotate(127.107)"/>
<use xlink:href="#stroke0_613_8363" transform="translate(835.29 760.735) scale(0.0506043) rotate(37.6647)"/>
<use xlink:href="#stroke0_613_8363" transform="translate(834.607 763.225) scale(0.0461911) rotate(9.32888)"/>
<use xlink:href="#stroke0_613_8363" transform="translate(851.479 768.742) scale(0.0427196) rotate(115.057)"/>
<use xlink:href="#stroke0_613_8363" transform="translate(841.777 780.67) scale(0.0529448) rotate(-111.868)"/>
<use xlink:href="#stroke1_613_8363" transform="translate(843.597 757.397) scale(0.0595069) rotate(75.523)"/>
<use xlink:href="#stroke1_613_8363" transform="translate(828.301 768.137) scale(0.0628031) rotate(-59.1667)"/>
<use xlink:href="#stroke1_613_8363" transform="translate(835.559 760.219) scale(0.0511012) rotate(-24.5268)"/>
<use xlink:href="#stroke1_613_8363" transform="translate(857.242 759.208) scale(0.0462732) rotate(104.867)"/>
<use xlink:href="#stroke1_613_8363" transform="translate(860.791 765.341) scale(0.0445988) rotate(149.284)"/>
<use xlink:href="#stroke1_613_8363" transform="translate(862.245 756.379) scale(0.0425666) rotate(94.1864)"/>
<use xlink:href="#stroke1_613_8363" transform="translate(853.545 749.548) scale(0.0606216) rotate(15.0562)"/>
<use xlink:href="#stroke1_613_8363" transform="translate(854.754 756.033) scale(0.0435637) rotate(-24.2907)"/>
<use xlink:href="#stroke1_613_8363" transform="translate(867.334 767.797) scale(0.0437632) rotate(-146.196)"/>
<use xlink:href="#stroke1_613_8363" transform="translate(859.395 759.236) scale(0.0499564) rotate(-55.7712)"/>
<use xlink:href="#stroke1_613_8363" transform="translate(885.421 756.623) scale(0.0576555) rotate(130.079)"/>
<use xlink:href="#stroke1_613_8363" transform="translate(876.485 768.938) scale(0.064391) rotate(-131.717)"/>
<use xlink:href="#stroke1_613_8363" transform="translate(871.481 760.491) scale(0.0615519) rotate(-75.7799)"/>
<use xlink:href="#stroke1_613_8363" transform="translate(888.422 741.578) scale(0.0600436) rotate(46.5609)"/>
<use xlink:href="#stroke1_613_8363" transform="translate(878.767 751.649) scale(0.0647212) rotate(-42.226)"/>
<use xlink:href="#stroke1_613_8363" transform="translate(897.502 743.04) scale(0.0448367) rotate(50.3665)"/>
<use xlink:href="#stroke1_613_8363" transform="translate(901.387 738.664) scale(0.0619103) rotate(47.4329)"/>
<use xlink:href="#stroke1_613_8363" transform="translate(915.523 756.182) scale(0.0598956) rotate(159.089)"/>
<use xlink:href="#stroke1_613_8363" transform="translate(899.712 746.401) scale(0.045969) rotate(-28.1469)"/>
<use xlink:href="#stroke1_613_8363" transform="translate(900.884 751.522) scale(0.0575487) rotate(-60.935)"/>
<use xlink:href="#stroke1_613_8363" transform="translate(929.248 750.057) scale(0.0607483) rotate(140.032)"/>
<use xlink:href="#stroke1_613_8363" transform="translate(911.979 739.538) scale(0.0591485) rotate(-9.05725)"/>
<use xlink:href="#stroke1_613_8363" transform="translate(918.755 752.359) scale(0.0421248) rotate(-91.094)"/>
<use xlink:href="#stroke1_613_8363" transform="translate(941.297 741.603) scale(0.0627394) rotate(112.592)"/>
<use xlink:href="#stroke1_613_8363" transform="translate(932.142 756.579) scale(0.05698) rotate(-131.64)"/>
<use xlink:href="#stroke1_613_8363" transform="translate(941.963 733.952) scale(0.0537231) rotate(64.0406)"/>
<use xlink:href="#stroke1_613_8363" transform="translate(930.129 742.741) scale(0.0574396) rotate(-44.1217)"/>
<use xlink:href="#stroke1_613_8363" transform="translate(949.964 731.261) scale(0.0601038) rotate(58.3586)"/>
<use xlink:href="#stroke1_613_8363" transform="translate(956.813 737.283) scale(0.041639) rotate(91.7147)"/>
<use xlink:href="#stroke1_613_8363" transform="translate(945.064 746.025) scale(0.0443387) rotate(-71.2128)"/>
<use xlink:href="#stroke1_613_8363" transform="translate(950.801 731.981) scale(0.0594501) rotate(8.57189)"/>
<use xlink:href="#stroke1_613_8363" transform="translate(952.403 735.105) scale(0.0569418) rotate(-12.4336)"/>
<use xlink:href="#stroke1_613_8363" transform="translate(956.664 741.366) scale(0.0439566) rotate(-46.0691)"/>
<use xlink:href="#stroke1_613_8363" transform="translate(970.872 750.06) scale(0.0424936) rotate(-151.044)"/>
<use xlink:href="#stroke1_613_8363" transform="translate(980.142 746.464) scale(0.0455429) rotate(164.997)"/>
<use xlink:href="#stroke1_613_8363" transform="translate(979.851 749.814) scale(0.0491092) rotate(-161.904)"/>
<use xlink:href="#stroke1_613_8363" transform="translate(968.939 735.86) scale(0.0551988) rotate(-29.8175)"/>
<use xlink:href="#stroke1_613_8363" transform="translate(992.876 735.826) scale(0.0476305) rotate(113.273)"/>
<use xlink:href="#stroke1_613_8363" transform="translate(986.168 748.749) scale(0.0523123) rotate(-132.697)"/>
<use xlink:href="#stroke1_613_8363" transform="translate(991.201 746.059) scale(0.0426117) rotate(-141.123)"/>
<use xlink:href="#stroke1_613_8363" transform="translate(985.474 735.48) scale(0.0416056) rotate(-40.7597)"/>
<use xlink:href="#stroke1_613_8363" transform="translate(992.055 744.233) scale(0.0474867) rotate(-106.228)"/>
<use xlink:href="#stroke1_613_8363" transform="translate(988.735 738.74) scale(0.0640582) rotate(-62.9632)"/>
<use xlink:href="#stroke1_613_8363" transform="translate(1003.16 744.603) scale(0.0477768) rotate(-123.323)"/>
<use xlink:href="#stroke1_613_8363" transform="translate(1008.26 721.86) scale(0.063157) rotate(33.8635)"/>
<use xlink:href="#stroke1_613_8363" transform="translate(1021.3 745.179) scale(0.0619789) rotate(-169.711)"/>
<use xlink:href="#stroke1_613_8363" transform="translate(1019.47 724.801) scale(0.0415237) rotate(47.774)"/>
<use xlink:href="#stroke1_613_8363" transform="translate(1016.37 721.362) scale(0.061554) rotate(13.1144)"/>
<use xlink:href="#stroke1_613_8363" transform="translate(1023.17 722.554) scale(0.0490955) rotate(21.7698)"/>
<use xlink:href="#stroke2_613_8363" transform="translate(1041.36 729.144) scale(0.0595069) rotate(111.531)"/>
<use xlink:href="#stroke2_613_8363" transform="translate(1021.49 733.56) scale(0.0628031) rotate(-55.5294)"/>
<use xlink:href="#stroke2_613_8363" transform="translate(1029.73 725.52) scale(0.0511012) rotate(-15.9455)"/>
<use xlink:href="#stroke2_613_8363" transform="translate(1051.39 728.009) scale(0.0462732) rotate(114.747)"/>
<use xlink:href="#stroke2_613_8363" transform="translate(1053.82 734.691) scale(0.0445988) rotate(159.302)"/>
<use xlink:href="#stroke2_613_8363" transform="translate(1056.7 725.881) scale(0.0425666) rotate(102.7)"/>
<use xlink:href="#stroke2_613_8363" transform="translate(1049.44 717.747) scale(0.0606216) rotate(25.1173)"/>
<use xlink:href="#stroke2_613_8363" transform="translate(1049.59 724.263) scale(0.0435637) rotate(-13.1841)"/>
<use xlink:href="#stroke2_613_8363" transform="translate(1059.99 738.2) scale(0.0437632) rotate(-137.175)"/>
<use xlink:href="#stroke2_613_8363" transform="translate(1053.51 728.202) scale(0.0499564) rotate(-44.7829)"/>
<use xlink:href="#stroke2_613_8363" transform="translate(1079.55 730.715) scale(0.0576555) rotate(141.503)"/>
<use xlink:href="#stroke2_613_8363" transform="translate(1068.78 741.067) scale(0.064391) rotate(-122.259)"/>
<use xlink:href="#stroke2_613_8363" transform="translate(1065.05 731.374) scale(0.0615519) rotate(-63.3141)"/>
<use xlink:href="#stroke2_613_8363" transform="translate(1085.47 716.43) scale(0.0600436) rotate(58.0067)"/>
<use xlink:href="#stroke2_613_8363" transform="translate(1074.28 723.729) scale(0.0647212) rotate(-27.2345)"/>
<use xlink:href="#stroke2_613_8363" transform="translate(1094.53 720.319) scale(0.0448367) rotate(64.8996)"/>
<use xlink:href="#stroke2_613_8363" transform="translate(1098.83 716.75) scale(0.0619103) rotate(59.2744)"/>
<use xlink:href="#stroke2_613_8363" transform="translate(1109.09 736.74) scale(0.0598956) rotate(170.784)"/>
<use xlink:href="#stroke2_613_8363" transform="translate(1096.03 723.544) scale(0.045969) rotate(-11.5361)"/>
<use xlink:href="#stroke2_613_8363" transform="translate(1095.68 729.046) scale(0.0575487) rotate(-45.8579)"/>
<use xlink:href="#stroke2_613_8363" transform="translate(1123.48 734.92) scale(0.0607483) rotate(154.794)"/>
<use xlink:href="#stroke2_613_8363" transform="translate(1109.87 720.144) scale(0.0591485) rotate(8.09249)"/>
<use xlink:href="#stroke2_613_8363" transform="translate(1112.69 734.579) scale(0.0421248) rotate(-75.7871)"/>
<use xlink:href="#stroke2_613_8363" transform="translate(1137.28 730.266) scale(0.0627394) rotate(128.403)"/>
<use xlink:href="#stroke2_613_8363" transform="translate(1123.83 742.06) scale(0.05698) rotate(-112.905)"/>
<use xlink:href="#stroke2_613_8363" transform="translate(1140.39 723.768) scale(0.0537231) rotate(82.6952)"/>
<use xlink:href="#stroke2_613_8363" transform="translate(1126.27 728.452) scale(0.0574396) rotate(-26.9634)"/>
<use xlink:href="#stroke2_613_8363" transform="translate(1148.61 723.402) scale(0.0601038) rotate(75.5652)"/>
<use xlink:href="#stroke2_613_8363" transform="translate(1153.27 730.805) scale(0.041639) rotate(106.885)"/>
<use xlink:href="#stroke2_613_8363" transform="translate(1139.66 736.234) scale(0.0443387) rotate(-56.5508)"/>
<use xlink:href="#stroke2_613_8363" transform="translate(1148.62 724.126) scale(0.0594501) rotate(22.4967)"/>
<use xlink:href="#stroke2_613_8363" transform="translate(1149.39 727.548) scale(0.0569418) rotate(1.24073)"/>
<use xlink:href="#stroke2_613_8363" transform="translate(1152.07 734.594) scale(0.0439566) rotate(-31.9797)"/>
<use xlink:href="#stroke2_613_8363" transform="translate(1163.76 746.483) scale(0.0424936) rotate(-137.142)"/>
<use xlink:href="#stroke2_613_8363" transform="translate(1173.75 745.085) scale(0.0455429) rotate(177.899)"/>
<use xlink:href="#stroke2_613_8363" transform="translate(1170.51 748.934) scale(0.0491092) rotate(-136.637)"/>
<use xlink:href="#stroke2_613_8363" transform="translate(1165.76 732.495) scale(0.0551988) rotate(-11.2883)"/>
<use xlink:href="#stroke2_613_8363" transform="translate(1188.48 739.506) scale(0.0476305) rotate(129.348)"/>
<use xlink:href="#stroke2_613_8363" transform="translate(1178.03 750.07) scale(0.0523123) rotate(-114.218)"/>
<use xlink:href="#stroke2_613_8363" transform="translate(1183.93 749.108) scale(0.0426116) rotate(-124.447)"/>
<use xlink:href="#stroke2_613_8363" transform="translate(1181.5 737.296) scale(0.0416056) rotate(-23.8016)"/>
<defs>
<g id="stroke0_613_8363" data-figma-scatter-ref="stroke0_613_8363_ref" data-figma-scatter="f0.28_w0_aj180_sj0.25_r0_s0_sw16">
<path d="M103.731 283.547C110.352 281.363 112.807 281.348 116.121 283.468C130.109 292.418 124.85 308.718 107.972 308.727C90.3768 308.737 87.0606 289.046 103.731 283.547ZM139.837 35.4146C140.937 35.1787 142.512 35.114 143.337 35.271C144.162 35.4281 146.516 35.8391 148.567 36.1851C155.802 37.4051 160.179 46.6969 156.734 53.5249C152.924 61.0769 144.715 67.5811 140.859 66.1021C135.872 64.1881 137.625 69.8792 144.066 76.5152C148.306 80.8841 150.337 81.2685 150.337 77.7066C150.337 76.6574 151.622 74.3218 153.193 72.5161C154.823 70.6412 156.597 66.9201 157.324 63.8501C158.925 57.0892 160.788 55.2289 167.369 53.8169C177.32 51.6829 185.581 56.9263 183.752 64.2153C183.293 66.0423 183.901 67.6656 186.09 70.4585C196.859 84.1975 193.875 104.273 180.596 107.418C177.049 108.258 176.832 108.532 176.773 112.27C176.739 114.448 176.365 116.987 175.943 117.912C175.255 119.417 175.946 119.564 182.506 119.31C190.415 119.003 192.674 119.705 195.953 123.487C199.054 127.064 201.598 126.114 202.609 121.002C203.503 116.483 209.096 110.731 212.596 110.731C214.841 110.731 215.934 108.156 214.449 106.367C206.1 96.3056 222.234 73.6632 235.605 76.6792C241.572 78.0252 246.302 83.6302 246.367 89.4312C246.384 90.9712 247.505 94.4811 248.858 97.231C255.362 110.453 243.304 126.225 232.777 118.263C229.924 116.105 229.837 116.226 229.837 122.341C229.837 128.93 225.932 133.292 219.049 134.393C216.068 134.87 214.933 135.67 213.775 138.116C212.964 139.829 211.55 142.415 210.63 143.863C208.984 146.456 209.02 146.565 213.147 151.254C215.451 153.871 217.337 156.555 217.337 157.218C217.337 157.882 218.074 159.901 218.974 161.706C222.148 168.067 221.073 181.731 217.4 181.731C217.052 181.731 215.97 183.081 214.995 184.731C214.02 186.381 212.573 187.731 211.779 187.731C209.595 187.731 210.044 189.817 212.863 192.76C216.384 196.435 217.425 204.867 214.728 207.858C209.503 213.649 203.05 218.01 198.064 219.122C193.944 220.041 192.83 220.705 192.804 222.259C192.669 230.389 188.242 235.387 179.682 237.077C172.845 238.427 172.072 240.31 177.577 242.203C190.358 246.597 192.892 257.693 182.442 263.506C176.521 266.799 172.426 266.758 167.515 263.354C163.894 260.845 163.161 260.686 159.679 261.653C153.737 263.303 147.363 262.934 141.337 260.593C135.874 258.47 130.724 257.068 124.689 256.061C118.715 255.064 115.151 249.943 114.592 241.551C114.184 235.417 113.671 233.745 111.425 231.231C109.951 229.581 107.986 226.544 107.058 224.481C105.42 220.844 105.211 220.731 100.164 220.731C93.7935 220.731 89.0798 217.922 86.2168 212.42C83.0468 206.327 78.9427 207.336 78.8477 214.231C78.8097 216.981 78.4233 220.817 77.9883 222.755C77.2354 226.113 77.3507 226.324 80.4366 227.255C90.5004 230.29 90.3981 247.946 80.2881 252.934C55.9904 264.92 26.2411 240.473 47.875 226.298C49.556 225.196 50.1805 223.494 50.6895 218.626C51.0495 215.185 52.1298 211.262 53.0908 209.91C54.0507 208.557 55.2736 206.856 55.8086 206.127C56.5016 205.184 56.0161 204.003 54.1221 202.017C50.6273 198.355 49.3112 194.657 49.9981 190.428C50.3281 188.392 50.1033 186.705 49.4463 186.299C48.8364 185.922 48.337 184.345 48.3369 182.794C48.3369 181.244 47.6012 179.366 46.7032 178.621C43.9996 176.376 34.3369 162.856 34.3369 161.317C34.3368 160.529 32.7627 157.822 30.8389 155.302C28.915 152.781 27.3998 150.384 27.4727 149.975C28.4457 144.478 24.6467 141.425 20.4727 144.348C18.2547 145.902 11.2222 145.776 6.86624 144.104C-3.23648 140.227 -1.78745 115.126 8.56839 114.62C14.8594 114.313 23.3369 117.551 23.3369 120.261C23.3372 122.018 26.1103 124.731 27.9073 124.731C28.6933 124.731 29.3369 124.041 29.3369 123.198C29.3372 109.814 50.1851 94.3087 69.8369 93.0767C82.9305 92.2547 88.2617 93.4969 97.1895 99.4468C101.45 102.287 108.337 96.8837 108.337 90.7007C108.337 88.6598 109.172 86.4706 110.483 85.0747C112.734 82.6789 111.804 79.7313 108.796 79.731C106.403 79.731 103.556 73.5422 104.077 69.4702C105.046 61.8843 117.633 57.7673 123.289 63.1861C125.639 65.4379 126.708 65.8083 129.245 65.2515C133.054 64.4145 133.128 63.4739 129.587 60.895C121.36 54.902 128.195 37.9086 139.837 35.4146ZM227.337 203.429C239.094 199.654 252.722 207.291 252.722 217.653C252.722 228.495 231.921 239.44 223.927 232.806C221.665 230.929 220.403 232.363 221.012 236.118C222.097 242.802 213.511 254.731 207.616 254.731C194.246 254.731 188.8 246.232 194.457 234.198C198.202 226.231 204.453 223.784 213.238 226.847C217.536 228.345 217.88 227.687 215.921 221.697C213.052 212.925 216.89 206.783 227.337 203.429ZM179.7 192.695C179.049 192.044 178.051 192.413 176.774 193.779C168.37 202.768 165.063 203.713 156.506 199.571C149.746 196.298 146.45 201.459 151.961 206.689C154.209 208.822 154.482 209.744 154.038 213.682C153.54 218.098 153.664 218.344 158.682 222.967C163.836 227.716 163.837 227.716 164.351 222.867C164.987 216.872 169.522 209.969 174.077 208.066C177.094 206.805 177.337 206.359 177.337 202.046C177.337 199.092 177.95 196.711 179.013 195.536C180.117 194.315 180.352 193.347 179.7 192.695ZM13.7354 183.697C21.2304 180.362 25.9355 181.225 32.1055 187.066C40.5644 195.074 37.0287 205.612 24.6309 209.343C9.40689 213.925 -0.704596 190.124 13.7354 183.697ZM252.956 148.251C262.129 145.732 267.81 147.203 270.983 152.921C277.397 164.478 257.352 180.919 247.179 172.445C237.093 164.044 240.016 151.805 252.956 148.251ZM175.822 162.709C174.842 161.123 172.482 161.589 171.417 163.579C170.283 165.699 171.384 170.913 173.086 171.481C174.366 171.905 176.761 164.229 175.822 162.709ZM150.152 111.481C150.492 108.526 149.534 108.177 145.513 109.79C142.108 111.155 143.035 114.231 146.851 114.231C149.365 114.231 149.886 113.796 150.152 111.481ZM156.837 98.731C156.012 98.731 155.337 99.406 155.337 100.231C155.337 101.056 156.012 101.731 156.837 101.731C157.662 101.731 158.337 101.056 158.337 100.231C158.337 99.4061 157.662 98.7312 156.837 98.731ZM131.337 85.6382C131.337 82.8002 129.491 81.4004 127.429 82.6743C126.501 83.2473 126.685 84.2905 128.185 86.9605C129.273 88.9003 130.316 91.46 130.5 92.6489C130.685 93.8379 131.287 94.905 131.837 95.021C133.25 95.317 133.729 90.7224 132.422 89.4155C131.825 88.8185 131.337 87.1191 131.337 85.6382ZM79.8369 36.9214C89.8819 31.2487 102.893 46.8492 95.6582 55.8921C92.2024 60.211 91.2042 63.981 91.8701 70.1997C92.5322 76.3837 92.4821 76.5638 89.0371 80.3628C76.0391 94.6997 55.1533 78.5005 64.8242 61.5825C66.3391 58.9327 67.3172 55.6452 67.3242 53.1753C67.3402 47.7053 72.4159 41.1124 79.8369 36.9214ZM120.896 78.731C120.653 78.731 120.177 79.1811 119.837 79.731C119.497 80.2809 119.695 80.7309 120.277 80.731C120.859 80.731 121.337 80.281 121.337 79.731C121.337 79.181 121.139 78.731 120.896 78.731ZM205.485 39.4898C219.631 37.0418 227.598 50.9151 220.597 65.8081C213.393 81.13 190.339 77.7861 190.091 61.3823C189.98 54.0764 199.509 40.5238 205.485 39.4898ZM51.8369 14.5542C64.4449 5.86451 75.68 19.3671 68.6241 34.731C62.385 48.3167 41.3372 43.775 41.3369 28.8423C41.3369 26.0333 47.6529 17.4382 51.8369 14.5542ZM108.212 2.17043C121.43 -6.81137 141.546 14.0924 133.237 28.1743C132.084 30.1297 130.819 31.7302 130.427 31.731C130.035 31.731 128.813 32.5703 127.713 33.5962C119.456 41.2872 107.786 35.7761 103.367 22.0991C100.152 12.1461 101.463 6.75643 108.212 2.17043Z" fill="#B2FFE0"/>
</g>
<path id="stroke0_613_8363_ref" d="M517.682 728.659C518.523 728.52 520.209 727.679 521.971 726.971C524.316 726.029 527.528 725.845 530.769 725.35C533.984 724.86 537.383 724.856 539.789 724.435C542.459 723.969 545.555 723.732 548.87 723.518C553.44 723.224 559.086 723.444 561.55 723.658C564.171 723.885 566.971 724.29 571.263 724.503C575.143 724.696 580.215 725.135 585.064 725.348C588.533 725.501 592.47 725.98 597.319 726.193C600.649 726.34 604.302 726.825 606.696 727.038C608.831 727.229 611.342 727.67 614.23 727.884C616.99 728.088 620.639 728.515 628.788 728.729C632.348 728.822 635.15 729.361 637.051 729.855C639.991 730.619 644.007 730.907 646.631 731.545C648.764 732.064 651.622 732.04 653.815 732.39C655.845 732.715 658.104 732.885 660.223 733.305C663.559 733.967 667.824 734.009 670.925 734.222C673.621 734.408 676.14 734.854 678.603 735.418C682.856 736.392 690.212 737.668 693.744 738.306C696.403 738.787 699.517 739.502 702.268 739.997C704.432 740.386 706.422 740.77 708.608 740.984C710.431 741.161 712.338 742.038 714.244 742.532C716.234 743.049 718.533 743.306 720.582 743.87C722.758 744.469 725.294 744.996 727.694 745.209C729.859 745.402 731.497 746.264 733.891 746.547C735.899 746.784 737.692 747.954 741.001 748.799C743.278 749.381 745.857 749.923 749.032 750.631C751.207 751.116 755.424 751.892 758.963 752.674C761.589 753.254 763.892 753.447 766.149 754.012C768.537 754.609 771.355 755.138 774.45 755.911C782.299 757.872 785.722 758.518 788.404 759.082C790.328 759.487 791.926 760.631 793.618 761.195C795.311 761.76 796.997 762.322 799.179 763.236C801.781 764.327 807.806 765.55 811.857 766.408C814.801 767.031 818.117 767.815 822.415 768.8C825.396 769.483 828.682 770.072 831.995 770.562C833.051 770.773 834.445 771.052 836.977 771.196C839.508 771.339 843.134 771.339 846.869 770.917"/>
<g id="stroke1_613_8363" data-figma-scatter-ref="stroke1_613_8363_ref" data-figma-scatter="f0.28_w0_aj180_sj0.25_r0_s0_sw16">
<path d="M103.731 283.547C110.352 281.363 112.807 281.348 116.121 283.468C130.109 292.418 124.85 308.718 107.972 308.727C90.3768 308.737 87.0606 289.046 103.731 283.547ZM139.837 35.4146C140.937 35.1787 142.512 35.114 143.337 35.271C144.162 35.4281 146.516 35.8391 148.567 36.1851C155.802 37.4051 160.179 46.6969 156.734 53.5249C152.924 61.0769 144.715 67.5811 140.859 66.1021C135.872 64.1881 137.625 69.8792 144.066 76.5152C148.306 80.8841 150.337 81.2685 150.337 77.7066C150.337 76.6574 151.622 74.3218 153.193 72.5161C154.823 70.6412 156.597 66.9201 157.324 63.8501C158.925 57.0892 160.788 55.2289 167.369 53.8169C177.32 51.6829 185.581 56.9263 183.752 64.2153C183.293 66.0423 183.901 67.6656 186.09 70.4585C196.859 84.1975 193.875 104.273 180.596 107.418C177.049 108.258 176.832 108.532 176.773 112.27C176.739 114.448 176.365 116.987 175.943 117.912C175.255 119.417 175.946 119.564 182.506 119.31C190.415 119.003 192.674 119.705 195.953 123.487C199.054 127.064 201.598 126.114 202.609 121.002C203.503 116.483 209.096 110.731 212.596 110.731C214.841 110.731 215.934 108.156 214.449 106.367C206.1 96.3056 222.234 73.6632 235.605 76.6792C241.572 78.0252 246.302 83.6302 246.367 89.4312C246.384 90.9712 247.505 94.4811 248.858 97.231C255.362 110.453 243.304 126.225 232.777 118.263C229.924 116.105 229.837 116.226 229.837 122.341C229.837 128.93 225.932 133.292 219.049 134.393C216.068 134.87 214.933 135.67 213.775 138.116C212.964 139.829 211.55 142.415 210.63 143.863C208.984 146.456 209.02 146.565 213.147 151.254C215.451 153.871 217.337 156.555 217.337 157.218C217.337 157.882 218.074 159.901 218.974 161.706C222.148 168.067 221.073 181.731 217.4 181.731C217.052 181.731 215.97 183.081 214.995 184.731C214.02 186.381 212.573 187.731 211.779 187.731C209.595 187.731 210.044 189.817 212.863 192.76C216.384 196.435 217.425 204.867 214.728 207.858C209.503 213.649 203.05 218.01 198.064 219.122C193.944 220.041 192.83 220.705 192.804 222.259C192.669 230.389 188.242 235.387 179.682 237.077C172.845 238.427 172.072 240.31 177.577 242.203C190.358 246.597 192.892 257.693 182.442 263.506C176.521 266.799 172.426 266.758 167.515 263.354C163.894 260.845 163.161 260.686 159.679 261.653C153.737 263.303 147.363 262.934 141.337 260.593C135.874 258.47 130.724 257.068 124.689 256.061C118.715 255.064 115.151 249.943 114.592 241.551C114.184 235.417 113.671 233.745 111.425 231.231C109.951 229.581 107.986 226.544 107.058 224.481C105.42 220.844 105.211 220.731 100.164 220.731C93.7935 220.731 89.0798 217.922 86.2168 212.42C83.0468 206.327 78.9427 207.336 78.8477 214.231C78.8097 216.981 78.4233 220.817 77.9883 222.755C77.2354 226.113 77.3507 226.324 80.4366 227.255C90.5004 230.29 90.3981 247.946 80.2881 252.934C55.9904 264.92 26.2411 240.473 47.875 226.298C49.556 225.196 50.1805 223.494 50.6895 218.626C51.0495 215.185 52.1298 211.262 53.0908 209.91C54.0507 208.557 55.2736 206.856 55.8086 206.127C56.5016 205.184 56.0161 204.003 54.1221 202.017C50.6273 198.355 49.3112 194.657 49.9981 190.428C50.3281 188.392 50.1033 186.705 49.4463 186.299C48.8364 185.922 48.337 184.345 48.3369 182.794C48.3369 181.244 47.6012 179.366 46.7032 178.621C43.9996 176.376 34.3369 162.856 34.3369 161.317C34.3368 160.529 32.7627 157.822 30.8389 155.302C28.915 152.781 27.3998 150.384 27.4727 149.975C28.4457 144.478 24.6467 141.425 20.4727 144.348C18.2547 145.902 11.2222 145.776 6.86624 144.104C-3.23648 140.227 -1.78745 115.126 8.56839 114.62C14.8594 114.313 23.3369 117.551 23.3369 120.261C23.3372 122.018 26.1103 124.731 27.9073 124.731C28.6933 124.731 29.3369 124.041 29.3369 123.198C29.3372 109.814 50.1851 94.3087 69.8369 93.0767C82.9305 92.2547 88.2617 93.4969 97.1895 99.4468C101.45 102.287 108.337 96.8837 108.337 90.7007C108.337 88.6598 109.172 86.4706 110.483 85.0747C112.734 82.6789 111.804 79.7313 108.796 79.731C106.403 79.731 103.556 73.5422 104.077 69.4702C105.046 61.8843 117.633 57.7673 123.289 63.1861C125.639 65.4379 126.708 65.8083 129.245 65.2515C133.054 64.4145 133.128 63.4739 129.587 60.895C121.36 54.902 128.195 37.9086 139.837 35.4146ZM227.337 203.429C239.094 199.654 252.722 207.291 252.722 217.653C252.722 228.495 231.921 239.44 223.927 232.806C221.665 230.929 220.403 232.363 221.012 236.118C222.097 242.802 213.511 254.731 207.616 254.731C194.246 254.731 188.8 246.232 194.457 234.198C198.202 226.231 204.453 223.784 213.238 226.847C217.536 228.345 217.88 227.687 215.921 221.697C213.052 212.925 216.89 206.783 227.337 203.429ZM179.7 192.695C179.049 192.044 178.051 192.413 176.774 193.779C168.37 202.768 165.063 203.713 156.506 199.571C149.746 196.298 146.45 201.459 151.961 206.689C154.209 208.822 154.482 209.744 154.038 213.682C153.54 218.098 153.664 218.344 158.682 222.967C163.836 227.716 163.837 227.716 164.351 222.867C164.987 216.872 169.522 209.969 174.077 208.066C177.094 206.805 177.337 206.359 177.337 202.046C177.337 199.092 177.95 196.711 179.013 195.536C180.117 194.315 180.352 193.347 179.7 192.695ZM13.7354 183.697C21.2304 180.362 25.9355 181.225 32.1055 187.066C40.5644 195.074 37.0287 205.612 24.6309 209.343C9.40689 213.925 -0.704596 190.124 13.7354 183.697ZM252.956 148.251C262.129 145.732 267.81 147.203 270.983 152.921C277.397 164.478 257.352 180.919 247.179 172.445C237.093 164.044 240.016 151.805 252.956 148.251ZM175.822 162.709C174.842 161.123 172.482 161.589 171.417 163.579C170.283 165.699 171.384 170.913 173.086 171.481C174.366 171.905 176.761 164.229 175.822 162.709ZM150.152 111.481C150.492 108.526 149.534 108.177 145.513 109.79C142.108 111.155 143.035 114.231 146.851 114.231C149.365 114.231 149.886 113.796 150.152 111.481ZM156.837 98.731C156.012 98.731 155.337 99.406 155.337 100.231C155.337 101.056 156.012 101.731 156.837 101.731C157.662 101.731 158.337 101.056 158.337 100.231C158.337 99.4061 157.662 98.7312 156.837 98.731ZM131.337 85.6382C131.337 82.8002 129.491 81.4004 127.429 82.6743C126.501 83.2473 126.685 84.2905 128.185 86.9605C129.273 88.9003 130.316 91.46 130.5 92.6489C130.685 93.8379 131.287 94.905 131.837 95.021C133.25 95.317 133.729 90.7224 132.422 89.4155C131.825 88.8185 131.337 87.1191 131.337 85.6382ZM79.8369 36.9214C89.8819 31.2487 102.893 46.8492 95.6582 55.8921C92.2024 60.211 91.2042 63.981 91.8701 70.1997C92.5322 76.3837 92.4821 76.5638 89.0371 80.3628C76.0391 94.6997 55.1533 78.5005 64.8242 61.5825C66.3391 58.9327 67.3172 55.6452 67.3242 53.1753C67.3402 47.7053 72.4159 41.1124 79.8369 36.9214ZM120.896 78.731C120.653 78.731 120.177 79.1811 119.837 79.731C119.497 80.2809 119.695 80.7309 120.277 80.731C120.859 80.731 121.337 80.281 121.337 79.731C121.337 79.181 121.139 78.731 120.896 78.731ZM205.485 39.4898C219.631 37.0418 227.598 50.9151 220.597 65.8081C213.393 81.13 190.339 77.7861 190.091 61.3823C189.98 54.0764 199.509 40.5238 205.485 39.4898ZM51.8369 14.5542C64.4449 5.86451 75.68 19.3671 68.6241 34.731C62.385 48.3167 41.3372 43.775 41.3369 28.8423C41.3369 26.0333 47.6529 17.4382 51.8369 14.5542ZM108.212 2.17043C121.43 -6.81137 141.546 14.0924 133.237 28.1743C132.084 30.1297 130.819 31.7302 130.427 31.731C130.035 31.731 128.813 32.5703 127.713 33.5962C119.456 41.2872 107.786 35.7761 103.367 22.0991C100.152 12.1461 101.463 6.75643 108.212 2.17043Z" fill="#B2FFE0"/>
</g>
<path id="stroke1_613_8363_ref" d="M836.727 767.536C837.146 766.974 839.669 766.133 844.668 764.654C848.303 763.579 852.49 762.33 856.924 761.272C859.246 760.717 867.364 758.544 873.27 756.974C875.452 756.394 877.709 755.848 882.978 754.652C886.522 753.848 890.521 753.591 893.621 752.75C895.852 752.145 898.55 751.622 902.546 750.851C913.881 748.663 917.009 748.241 921.505 747.257C925.594 746.361 928.689 745.85 932.498 745.142C935.33 744.616 937.85 744.016 940.531 743.802C942.669 743.632 945.177 743.17 947.715 742.957C951.092 742.673 955.886 742.325 960.173 742.112C964.477 741.898 969.264 741.48 972.503 741.267C974.539 741.133 976.448 740.212 979.055 739.648C981.503 739.119 983.776 738.945 985.608 738.45C987.932 737.823 990.528 737.398 995.386 736.34C998.964 735.56 1002.35 735.42 1006.3 735.07C1013.47 734.433 1015.47 734.296 1017.16 733.732C1018.85 733.168 1020.54 732.606 1023.77 732.393C1024.63 732.323 1025.32 732.183 1026.03 732.112C1026.74 732.04 1027.44 732.04 1028.15 732.04"/>
<g id="stroke2_613_8363" data-figma-scatter-ref="stroke2_613_8363_ref" data-figma-scatter="f0.28_w0_aj180_sj0.25_r0_s0_sw16">
<path d="M103.731 283.547C110.352 281.363 112.807 281.348 116.121 283.468C130.109 292.418 124.85 308.718 107.972 308.727C90.3768 308.737 87.0606 289.046 103.731 283.547ZM139.837 35.4146C140.937 35.1787 142.512 35.114 143.337 35.271C144.162 35.4281 146.516 35.8391 148.567 36.1851C155.802 37.4051 160.179 46.6969 156.734 53.5249C152.924 61.0769 144.715 67.5811 140.859 66.1021C135.872 64.1881 137.625 69.8792 144.066 76.5152C148.306 80.8841 150.337 81.2685 150.337 77.7066C150.337 76.6574 151.622 74.3218 153.193 72.5161C154.823 70.6412 156.597 66.9201 157.324 63.8501C158.925 57.0892 160.788 55.2289 167.369 53.8169C177.32 51.6829 185.581 56.9263 183.752 64.2153C183.293 66.0423 183.901 67.6656 186.09 70.4585C196.859 84.1975 193.875 104.273 180.596 107.418C177.049 108.258 176.832 108.532 176.773 112.27C176.739 114.448 176.365 116.987 175.943 117.912C175.255 119.417 175.946 119.564 182.506 119.31C190.415 119.003 192.674 119.705 195.953 123.487C199.054 127.064 201.598 126.114 202.609 121.002C203.503 116.483 209.096 110.731 212.596 110.731C214.841 110.731 215.934 108.156 214.449 106.367C206.1 96.3056 222.234 73.6632 235.605 76.6792C241.572 78.0252 246.302 83.6302 246.367 89.4312C246.384 90.9712 247.505 94.4811 248.858 97.231C255.362 110.453 243.304 126.225 232.777 118.263C229.924 116.105 229.837 116.226 229.837 122.341C229.837 128.93 225.932 133.292 219.049 134.393C216.068 134.87 214.933 135.67 213.775 138.116C212.964 139.829 211.55 142.415 210.63 143.863C208.984 146.456 209.02 146.565 213.147 151.254C215.451 153.871 217.337 156.555 217.337 157.218C217.337 157.882 218.074 159.901 218.974 161.706C222.148 168.067 221.073 181.731 217.4 181.731C217.052 181.731 215.97 183.081 214.995 184.731C214.02 186.381 212.573 187.731 211.779 187.731C209.595 187.731 210.044 189.817 212.863 192.76C216.384 196.435 217.425 204.867 214.728 207.858C209.503 213.649 203.05 218.01 198.064 219.122C193.944 220.041 192.83 220.705 192.804 222.259C192.669 230.389 188.242 235.387 179.682 237.077C172.845 238.427 172.072 240.31 177.577 242.203C190.358 246.597 192.892 257.693 182.442 263.506C176.521 266.799 172.426 266.758 167.515 263.354C163.894 260.845 163.161 260.686 159.679 261.653C153.737 263.303 147.363 262.934 141.337 260.593C135.874 258.47 130.724 257.068 124.689 256.061C118.715 255.064 115.151 249.943 114.592 241.551C114.184 235.417 113.671 233.745 111.425 231.231C109.951 229.581 107.986 226.544 107.058 224.481C105.42 220.844 105.211 220.731 100.164 220.731C93.7935 220.731 89.0798 217.922 86.2168 212.42C83.0468 206.327 78.9427 207.336 78.8477 214.231C78.8097 216.981 78.4233 220.817 77.9883 222.755C77.2354 226.113 77.3507 226.324 80.4366 227.255C90.5004 230.29 90.3981 247.946 80.2881 252.934C55.9904 264.92 26.2411 240.473 47.875 226.298C49.556 225.196 50.1805 223.494 50.6895 218.626C51.0495 215.185 52.1298 211.262 53.0908 209.91C54.0507 208.557 55.2736 206.856 55.8086 206.127C56.5016 205.184 56.0161 204.003 54.1221 202.017C50.6273 198.355 49.3112 194.657 49.9981 190.428C50.3281 188.392 50.1033 186.705 49.4463 186.299C48.8364 185.922 48.337 184.345 48.3369 182.794C48.3369 181.244 47.6012 179.366 46.7032 178.621C43.9996 176.376 34.3369 162.856 34.3369 161.317C34.3368 160.529 32.7627 157.822 30.8389 155.302C28.915 152.781 27.3998 150.384 27.4727 149.975C28.4457 144.478 24.6467 141.425 20.4727 144.348C18.2547 145.902 11.2222 145.776 6.86624 144.104C-3.23648 140.227 -1.78745 115.126 8.56839 114.62C14.8594 114.313 23.3369 117.551 23.3369 120.261C23.3372 122.018 26.1103 124.731 27.9073 124.731C28.6933 124.731 29.3369 124.041 29.3369 123.198C29.3372 109.814 50.1851 94.3087 69.8369 93.0767C82.9305 92.2547 88.2617 93.4969 97.1895 99.4468C101.45 102.287 108.337 96.8837 108.337 90.7007C108.337 88.6598 109.172 86.4706 110.483 85.0747C112.734 82.6789 111.804 79.7313 108.796 79.731C106.403 79.731 103.556 73.5422 104.077 69.4702C105.046 61.8843 117.633 57.7673 123.289 63.1861C125.639 65.4379 126.708 65.8083 129.245 65.2515C133.054 64.4145 133.128 63.4739 129.587 60.895C121.36 54.902 128.195 37.9086 139.837 35.4146ZM227.337 203.429C239.094 199.654 252.722 207.291 252.722 217.653C252.722 228.495 231.921 239.44 223.927 232.806C221.665 230.929 220.403 232.363 221.012 236.118C222.097 242.802 213.511 254.731 207.616 254.731C194.246 254.731 188.8 246.232 194.457 234.198C198.202 226.231 204.453 223.784 213.238 226.847C217.536 228.345 217.88 227.687 215.921 221.697C213.052 212.925 216.89 206.783 227.337 203.429ZM179.7 192.695C179.049 192.044 178.051 192.413 176.774 193.779C168.37 202.768 165.063 203.713 156.506 199.571C149.746 196.298 146.45 201.459 151.961 206.689C154.209 208.822 154.482 209.744 154.038 213.682C153.54 218.098 153.664 218.344 158.682 222.967C163.836 227.716 163.837 227.716 164.351 222.867C164.987 216.872 169.522 209.969 174.077 208.066C177.094 206.805 177.337 206.359 177.337 202.046C177.337 199.092 177.95 196.711 179.013 195.536C180.117 194.315 180.352 193.347 179.7 192.695ZM13.7354 183.697C21.2304 180.362 25.9355 181.225 32.1055 187.066C40.5644 195.074 37.0287 205.612 24.6309 209.343C9.40689 213.925 -0.704596 190.124 13.7354 183.697ZM252.956 148.251C262.129 145.732 267.81 147.203 270.983 152.921C277.397 164.478 257.352 180.919 247.179 172.445C237.093 164.044 240.016 151.805 252.956 148.251ZM175.822 162.709C174.842 161.123 172.482 161.589 171.417 163.579C170.283 165.699 171.384 170.913 173.086 171.481C174.366 171.905 176.761 164.229 175.822 162.709ZM150.152 111.481C150.492 108.526 149.534 108.177 145.513 109.79C142.108 111.155 143.035 114.231 146.851 114.231C149.365 114.231 149.886 113.796 150.152 111.481ZM156.837 98.731C156.012 98.731 155.337 99.406 155.337 100.231C155.337 101.056 156.012 101.731 156.837 101.731C157.662 101.731 158.337 101.056 158.337 100.231C158.337 99.4061 157.662 98.7312 156.837 98.731ZM131.337 85.6382C131.337 82.8002 129.491 81.4004 127.429 82.6743C126.501 83.2473 126.685 84.2905 128.185 86.9605C129.273 88.9003 130.316 91.46 130.5 92.6489C130.685 93.8379 131.287 94.905 131.837 95.021C133.25 95.317 133.729 90.7224 132.422 89.4155C131.825 88.8185 131.337 87.1191 131.337 85.6382ZM79.8369 36.9214C89.8819 31.2487 102.893 46.8492 95.6582 55.8921C92.2024 60.211 91.2042 63.981 91.8701 70.1997C92.5322 76.3837 92.4821 76.5638 89.0371 80.3628C76.0391 94.6997 55.1533 78.5005 64.8242 61.5825C66.3391 58.9327 67.3172 55.6452 67.3242 53.1753C67.3402 47.7053 72.4159 41.1124 79.8369 36.9214ZM120.896 78.731C120.653 78.731 120.177 79.1811 119.837 79.731C119.497 80.2809 119.695 80.7309 120.277 80.731C120.859 80.731 121.337 80.281 121.337 79.731C121.337 79.181 121.139 78.731 120.896 78.731ZM205.485 39.4898C219.631 37.0418 227.598 50.9151 220.597 65.8081C213.393 81.13 190.339 77.7861 190.091 61.3823C189.98 54.0764 199.509 40.5238 205.485 39.4898ZM51.8369 14.5542C64.4449 5.86451 75.68 19.3671 68.6241 34.731C62.385 48.3167 41.3372 43.775 41.3369 28.8423C41.3369 26.0333 47.6529 17.4382 51.8369 14.5542ZM108.212 2.17043C121.43 -6.81137 141.546 14.0924 133.237 28.1743C132.084 30.1297 130.819 31.7302 130.427 31.731C130.035 31.731 128.813 32.5703 127.713 33.5962C119.456 41.2872 107.786 35.7761 103.367 22.0991C100.152 12.1461 101.463 6.75643 108.212 2.17043Z" fill="#B2FFE0"/>
</g>
<path id="stroke2_613_8363_ref" d="M1029.84 733.307C1032.09 732.606 1034.62 731.761 1038.07 731.266C1042.9 730.575 1046.6 730.349 1049.9 729.999C1054.33 729.529 1057.44 729.504 1060.61 729.154C1063.49 728.835 1067.99 728.659 1073.13 728.308C1078.92 727.914 1083.36 728.376 1086.79 728.587C1094.25 729.047 1099.84 728.799 1101.53 729.01C1106.43 729.625 1112.08 729.927 1116.11 730.278C1121.38 730.737 1123.93 730.772 1128.78 731.473C1129.98 731.648 1130.82 731.617 1137.6 732.872C1144.38 734.127 1157.07 736.637 1166.81 738.209C1176.56 739.781 1182.97 740.339 1189.58 740.914"/>
</defs>
</svg>
