<svg width="431" height="379" viewBox="0 0 431 379" fill="none" xmlns="http://www.w3.org/2000/svg">
<g clip-path="url(#clip0_613_8666)">
<path d="M202.636 153.211C209.083 153.211 214.309 147.985 214.309 141.538C214.309 135.091 209.083 129.865 202.636 129.865C196.189 129.865 190.963 135.091 190.963 141.538C190.963 147.985 196.189 153.211 202.636 153.211Z" fill="#FF6900"/>
<path d="M212.672 140.859C212.672 146.206 208.328 150.55 202.982 150.55C197.635 150.55 193.291 146.206 193.291 140.859C193.291 135.513 197.635 131.169 202.982 131.169C208.328 131.169 212.672 135.513 212.672 140.859V130.1C208.685 126.513 202.781 124.998 196.588 127.716C193.536 129.053 191.019 131.592 189.727 134.689C185.316 145.27 192.979 155.406 202.982 155.406C206.724 155.406 210.088 153.958 212.672 151.641V140.882V140.859Z" fill="black"/>
<ellipse cx="202.952" cy="140.825" rx="6.5" ry="5.5" fill="black"/>
<path d="M254.084 377.729C273.018 373.866 271.522 276.626 270.004 257.96C326.338 262.961 384.682 225.919 395.422 170.232C406.118 114.835 380.663 55.0395 318.456 55.0395H233.251C221.685 55.0395 212.307 64.4174 212.307 75.9835V288.014C202.706 286.161 190.09 278.904 177.899 257.357C175.89 253.784 173.858 248.359 172.205 242.531C157.134 222.837 136.19 222.525 122.368 181.061C119.287 179.23 117.947 176.037 117.947 171.058C117.947 150.65 152.713 136.069 152.713 136.069C153.003 136.024 153.271 135.98 153.539 135.935C153.472 135.198 153.316 134.462 153.316 133.702C153.316 120.685 163.877 110.124 176.917 110.124C179.328 110.124 181.583 110.592 183.771 111.285C192.524 56.982 166.869 0 106.136 0H20.9306C9.36449 0 -0.0134277 9.37792 -0.0134277 20.944V277.854C-0.0134277 287.255 7.60055 294.869 17.0008 294.869H41.9416C51.3419 294.869 58.9558 287.255 58.9558 277.854V188.719C60.1616 186.018 61.8585 184.298 63.9351 183.249C67.2173 182.981 70.5219 182.981 73.8042 183.249L75.2332 183.361C110.4 191.935 213.669 329.991 204.983 367.235C208.958 382.15 241.021 380.453 254.061 377.729H254.084ZM71.884 153.24C64.8059 153.441 58.9558 147.747 58.9558 140.669V56.3345C58.9558 47.2022 66.1679 39.4543 75.3002 39.3203C98.2538 39.0077 118.93 54.4589 123.842 76.832C125.07 82.4587 125.807 88.9116 125.807 96.3246C125.807 115.728 120.85 128.611 114.687 137.141C105.22 150.248 88.4293 152.771 71.884 153.24ZM326.986 192.18C317.519 205.287 300.728 207.81 284.182 208.279C277.104 208.48 271.254 202.786 271.254 195.708V111.374C271.254 101.974 278.868 94.3821 288.246 94.3821C310.641 94.3821 330.893 109.275 335.939 131.09C337.279 136.895 338.083 143.616 338.083 151.386C338.083 170.79 333.126 183.673 326.963 192.203L326.986 192.18Z" fill="#136200"/>
<path d="M175.583 346.152C178.999 351.109 186.3 360.13 198.804 365.69C204.007 368.012 208.852 369.151 212.804 369.753" fill="#136200"/>
<path d="M175.583 346.152C178.999 351.109 186.3 360.13 198.804 365.69C204.007 368.012 208.852 369.151 212.804 369.753" stroke="#136200" stroke-width="6.69851" stroke-miterlimit="10"/>
<path d="M360.294 305.303C346.339 308.451 316.323 314.346 304.69 293.759C290.779 269.153 269.887 296.707 265.6 293.759" stroke="#136200" stroke-width="13.397" stroke-miterlimit="10"/>
<path d="M346.998 296.006C365.474 295.873 383.545 297.917 398.326 301.811C413.107 305.704 423.746 311.223 428.545 317.487C433.11 323.447 432.14 329.754 425.816 335.494C425.186 336.066 424.322 336.299 423.481 336.174L354.846 325.943C352.361 325.573 350.549 328.238 351.807 330.412L362.742 349.317C363.852 351.236 362.569 353.65 360.356 353.761C343.744 354.592 326.761 353.63 311.687 350.982C295.16 348.08 281.88 343.317 273.966 337.455C266.052 331.593 263.96 324.97 268.024 318.642C271.637 313.018 279.927 307.917 291.774 303.971L303.971 305.726C310.936 306.728 317.878 304.614 316.001 302.063L313.563 298.75C323.971 297.036 335.354 296.09 346.998 296.006Z" fill="#136200"/>
<path d="M360.083 297.409C360.807 296.791 362.82 296.496 364.58 296.75C366.34 297.004 367.181 297.711 366.458 298.328L343.67 317.79H403.238C405.14 317.79 406.683 318.331 406.683 318.999C406.683 319.667 405.141 320.209 403.238 320.209H346.078L353.47 323.2C354.716 323.704 354.561 324.468 353.124 324.906C351.686 325.343 349.511 325.289 348.264 324.784L340.623 321.692L328.803 344.286C328.459 344.943 326.662 345.378 324.79 345.258C322.919 345.137 321.681 344.507 322.025 343.85L334.314 320.362L276.786 322.37C274.892 322.436 273.205 321.95 273.017 321.285C272.829 320.621 274.211 320.029 276.105 319.963L332.619 317.99L310.06 305.532C309.039 304.968 309.513 304.221 311.119 303.863C312.725 303.505 314.853 303.671 315.874 304.235L337.87 316.381L360.083 297.409Z" fill="#035B1B" fill-opacity="0.51"/>
<path d="M125.919 334.065C138.813 332.047 153.262 331.602 166.959 332.803C180.656 334.004 192.812 336.781 201.487 340.691C210.162 344.601 214.855 349.418 214.819 354.374C214.783 359.329 210.018 364.138 201.286 368.032C192.554 371.926 180.357 374.681 166.642 375.857C155.32 376.828 143.501 376.677 132.484 375.446C129.874 375.154 129.018 371.885 131.092 370.274L143.951 360.292C146.284 358.48 144.871 354.742 141.923 354.927L91.4314 358.103C90.2382 358.178 89.0633 357.549 88.7536 356.394C87.6029 352.103 90.0387 347.772 95.821 343.939C99.0495 341.799 103.231 339.875 108.167 338.231L113.596 339.012C120.562 340.014 127.503 337.901 125.626 335.35L124.81 334.243C125.178 334.182 125.547 334.123 125.919 334.065Z" fill="#136200"/>
<path d="M169.471 334.965C170.024 334.493 171.562 334.268 172.907 334.462C174.251 334.656 174.893 335.196 174.341 335.668L156.933 350.535H202.439C203.893 350.535 205.071 350.949 205.071 351.459C205.071 351.969 203.893 352.383 202.439 352.383H158.772L164.419 354.668C165.371 355.054 165.253 355.637 164.155 355.971C163.056 356.306 161.394 356.264 160.442 355.879C159.489 355.493 154.605 353.516 154.605 353.516L145.574 370.777C145.312 371.279 143.939 371.611 142.509 371.519C141.08 371.427 140.134 370.946 140.396 370.444L149.785 352.5L105.836 354.034C104.389 354.084 103.101 353.713 102.957 353.206C102.813 352.698 103.869 352.246 105.316 352.195L148.49 350.688L131.256 341.171C130.476 340.74 130.838 340.169 132.065 339.896C133.292 339.622 134.918 339.749 135.698 340.18L152.501 349.459L169.471 334.965Z" fill="#035B1B" fill-opacity="0.51"/>
</g>
<defs>
<clipPath id="clip0_613_8666">
<rect width="431" height="379" fill="white"/>
</clipPath>
</defs>
</svg>
