<svg width="319" height="131" viewBox="0 0 319 131" fill="none" xmlns="http://www.w3.org/2000/svg">
<ellipse cx="243.854" cy="85.6743" rx="71.098" ry="34.3606" fill="#EFFCFF"/>
<ellipse cx="165.379" cy="91.3579" rx="71.098" ry="34.3606" fill="#EFFCFF"/>
<ellipse cx="75.3742" cy="91.3579" rx="71.098" ry="34.3606" fill="#EFFCFF"/>
<ellipse cx="127.033" cy="62.583" rx="71.098" ry="34.3606" fill="#EFFCFF"/>
<ellipse cx="197.865" cy="62.583" rx="71.098" ry="34.3606" fill="#EFFCFF"/>
<circle cx="61.5764" cy="62.4317" r="17.1046" fill="#EFFCFF"/>
<circle cx="46.1823" cy="74.4048" r="17.1046" fill="#EFFCFF"/>
<circle cx="78.681" cy="51.3138" r="17.1046" fill="#EFFCFF"/>
<circle cx="144.534" cy="34.209" r="17.1046" fill="#EFFCFF"/>
<circle cx="123.153" cy="17.1046" r="17.1046" fill="#EFFCFF"/>
<circle cx="100.917" cy="28.2225" r="17.1046" fill="#EFFCFF"/>
<circle cx="92.3646" cy="40.1956" r="17.1046" fill="#EFFCFF"/>
<circle cx="134.271" cy="23.0911" r="17.1046" fill="#EFFCFF"/>
<circle cx="165.059" cy="28.2225" r="17.1046" fill="#EFFCFF"/>
<circle cx="177.032" cy="17.1046" r="17.1046" fill="#EFFCFF"/>
<circle cx="195.847" cy="17.1046" r="17.1046" fill="#EFFCFF"/>
<circle cx="196.702" cy="23.0911" r="17.1046" fill="#EFFCFF"/>
<circle cx="212.952" cy="28.2225" r="17.1046" fill="#EFFCFF"/>
<circle cx="236.898" cy="28.2225" r="17.1046" fill="#EFFCFF"/>
<circle cx="251.437" cy="45.327" r="17.1046" fill="#EFFCFF"/>
<circle cx="260.844" cy="57.3004" r="17.1046" fill="#EFFCFF"/>
<circle cx="285.646" cy="68.4183" r="17.1046" fill="#EFFCFF"/>
<circle cx="297.619" cy="79.5362" r="17.1046" fill="#EFFCFF"/>
<circle cx="301.895" cy="88.9437" r="17.1046" fill="#EFFCFF"/>
<circle cx="297.619" cy="96.6407" r="17.1046" fill="#EFFCFF"/>
<circle cx="22.2359" cy="96.6407" r="17.1046" fill="#EFFCFF"/>
<circle cx="22.2359" cy="79.5362" r="17.1046" fill="#EFFCFF"/>
<circle cx="17.1046" cy="88.9437" r="17.1046" fill="#EFFCFF"/>
<ellipse cx="75.2601" cy="113.745" rx="25.6568" ry="17.1046" fill="#EFFCFF"/>
<ellipse cx="115.028" cy="106.048" rx="22.6635" ry="17.1046" fill="#EFFCFF"/>
<ellipse cx="219.794" cy="108.614" rx="35.9196" ry="17.1046" fill="#EFFCFF"/>
<ellipse cx="257.851" cy="108.614" rx="36.3472" ry="17.1046" fill="#EFFCFF"/>
<ellipse cx="56.0175" cy="108.614" rx="36.3472" ry="17.1046" fill="#EFFCFF"/>
</svg>
