<svg width="411" height="180" viewBox="0 0 411 180" fill="none" xmlns="http://www.w3.org/2000/svg">
<ellipse cx="83.1335" cy="66.6094" rx="83.1335" ry="66.6094" transform="matrix(-1 0 0 1 161.406 69.781)" fill="#F5FFF4"/>
<ellipse cx="83.1335" cy="66.6094" rx="83.1335" ry="66.6094" transform="matrix(-1 0 0 1 269.76 69.781)" fill="#F5FFF4"/>
<ellipse cx="83.1335" cy="66.6094" rx="83.1335" ry="66.6094" transform="matrix(-1 0 0 1 375 69.781)" fill="#F5FFF4"/>
<ellipse cx="83.1335" cy="66.6094" rx="83.1335" ry="66.6094" transform="matrix(-1 0 0 1 314.596 14)" fill="#F5FFF4"/>
<ellipse cx="83.1335" cy="66.6094" rx="83.1335" ry="66.6094" transform="matrix(-1 0 0 1 231.774 14)" fill="#F5FFF4"/>
<circle cx="22.5" cy="22.5" r="22.5" transform="matrix(-1 0 0 1 337 48)" fill="#F5FFF4"/>
<circle cx="22.5" cy="22.5" r="22.5" transform="matrix(-1 0 0 1 363 53)" fill="#F5FFF4"/>
<circle cx="22.5" cy="22.5" r="22.5" transform="matrix(-1 0 0 1 382 67)" fill="#F5FFF4"/>
<circle cx="22.5" cy="22.5" r="22.5" transform="matrix(-1 0 0 1 389 81)" fill="#F5FFF4"/>
<circle cx="22.5" cy="22.5" r="22.5" transform="matrix(-1 0 0 1 375 141)" fill="#F5FFF4"/>
<circle cx="22.5" cy="22.5" r="22.5" transform="matrix(-1 0 0 1 318 163)" fill="#F5FFF4"/>
<circle cx="35.5" cy="35.5" r="35.5" transform="matrix(-1 0 0 1 411 98)" fill="#F5FFF4"/>
<circle cx="35.5" cy="35.5" r="35.5" transform="matrix(-1 0 0 1 57 98)" fill="#F5FFF4"/>
<circle cx="35.5" cy="35.5" r="35.5" transform="matrix(-1 0 0 1 173 132)" fill="#F5FFF4"/>
<circle cx="35.5" cy="35.5" r="35.5" transform="matrix(-1 0 0 1 173 0)" fill="#F5FFF4"/>
<circle cx="35.5" cy="35.5" r="35.5" transform="matrix(-1 0 0 1 145 14)" fill="#F5FFF4"/>
<circle cx="35.5" cy="35.5" r="35.5" transform="matrix(-1 0 0 1 267 0)" fill="#F5FFF4"/>
<circle cx="35.5" cy="35.5" r="35.5" transform="matrix(-1 0 0 1 302 12)" fill="#F5FFF4"/>
<circle cx="35.5" cy="35.5" r="35.5" transform="matrix(-1 0 0 1 292 136)" fill="#F5FFF4"/>
</svg>
