<svg width="406" height="174" viewBox="0 0 406 174" fill="none" xmlns="http://www.w3.org/2000/svg">
<ellipse cx="294.035" cy="114.691" rx="98.1168" ry="47.4183" fill="white"/>
<ellipse cx="206.698" cy="114.691" rx="98.1168" ry="47.4183" fill="white"/>
<ellipse cx="98.1168" cy="114.691" rx="98.1168" ry="47.4183" fill="white"/>
<ellipse cx="151.227" cy="74.5638" rx="98.1168" ry="47.4183" fill="white"/>
<ellipse cx="224.669" cy="74.5638" rx="98.1168" ry="47.4183" fill="white"/>
<ellipse cx="156.381" cy="38.3576" rx="35.9971" ry="28.9157" fill="white"/>
<ellipse cx="207.131" cy="27.1453" rx="31.2762" ry="27.1453" fill="white"/>
<circle cx="59.6018" cy="79.6658" r="25.375" fill="white"/>
<ellipse cx="60.1919" cy="139.857" rx="35.407" ry="25.375" transform="rotate(14.7828 60.1919 139.857)" fill="white"/>
<circle cx="44.2587" cy="96.189" r="25.375" fill="white"/>
<circle cx="181.166" cy="28.9158" r="25.375" fill="white"/>
<circle cx="120.974" cy="52.5205" r="25.375" fill="white"/>
<circle cx="307.451" cy="77.3052" r="25.375" fill="white"/>
<circle cx="366.462" cy="99.7297" r="25.375" fill="white"/>
<circle cx="380.625" cy="113.893" r="25.375" fill="white"/>
<circle cx="370.003" cy="130.416" r="25.375" fill="white"/>
<circle cx="145.759" cy="139.857" r="25.375" fill="white"/>
<ellipse cx="192.968" cy="146.939" rx="52.5204" ry="25.375" fill="white"/>
<ellipse cx="285.616" cy="146.939" rx="47.2093" ry="25.375" fill="white"/>
<circle cx="340.497" cy="136.317" r="25.375" fill="white"/>
<circle cx="315.712" cy="139.857" r="25.375" fill="white"/>
<circle cx="241.358" cy="45.439" r="25.375" fill="white"/>
</svg>
