<svg width="119" height="147" viewBox="0 0 119 147" fill="none" xmlns="http://www.w3.org/2000/svg">
<ellipse cx="83.1335" cy="40.1771" rx="83.1335" ry="40.1771" transform="matrix(-1 0 0 1 178 57)" fill="#F9FEFF"/>
<ellipse cx="83.1335" cy="40.1771" rx="83.1335" ry="40.1771" transform="matrix(-1 0 0 1 252 57)" fill="#F9FEFF"/>
<ellipse cx="83.1335" cy="40.1771" rx="83.1335" ry="40.1771" transform="matrix(-1 0 0 1 236.774 23)" fill="#F9FEFF"/>
<circle cx="21.5" cy="21.5" r="21.5" transform="matrix(-1 0 0 1 105 44)" fill="#F9FEFF"/>
<circle cx="21.5" cy="21.5" r="21.5" transform="matrix(-1 0 0 1 55 63)" fill="#F9FEFF"/>
<circle cx="21.5" cy="21.5" r="21.5" transform="matrix(-1 0 0 1 43 75)" fill="#F9FEFF"/>
<circle cx="21.5" cy="21.5" r="21.5" transform="matrix(-1 0 0 1 52 89)" fill="#F9FEFF"/>
<ellipse cx="40" cy="21.5" rx="40" ry="21.5" transform="matrix(-1 0 0 1 142 103)" fill="#F9FEFF"/>
<circle cx="21.5" cy="21.5" r="21.5" transform="matrix(-1 0 0 1 77 94)" fill="#F9FEFF"/>
<circle cx="21.5" cy="21.5" r="21.5" transform="matrix(-1 0 0 1 98 97)" fill="#F9FEFF"/>
<circle cx="21.5" cy="21.5" r="21.5" transform="matrix(-1 0 0 1 161 17)" fill="#F9FEFF"/>
</svg>
