<svg width="157" height="131" viewBox="0 0 157 131" fill="none" xmlns="http://www.w3.org/2000/svg">
<ellipse cx="70.6523" cy="34.1451" rx="70.6523" ry="34.1451" transform="matrix(-1 0 0 1 63.3105 56.6399)" fill="#FEFFFF"/>
<ellipse cx="70.6523" cy="34.1451" rx="70.6523" ry="34.1451" transform="matrix(-1 0 0 1 152.751 56.6399)" fill="#FEFFFF"/>
<ellipse cx="70.6523" cy="34.1451" rx="70.6523" ry="34.1451" transform="matrix(-1 0 0 1 101.415 28.0454)" fill="#FEFFFF"/>
<ellipse cx="70.6523" cy="34.1451" rx="70.6523" ry="34.1451" transform="matrix(-1 0 0 1 31.0276 28.0454)" fill="#FEFFFF"/>
<circle cx="16.9973" cy="16.9973" r="16.9973" transform="matrix(-1 0 0 1 112.807 45.0427)" fill="#FEFFFF"/>
<circle cx="16.9973" cy="16.9973" r="16.9973" transform="matrix(-1 0 0 1 128.105 56.9409)" fill="#FEFFFF"/>
<circle cx="16.9973" cy="16.9973" r="16.9973" transform="matrix(-1 0 0 1 95.8097 33.9946)" fill="#FEFFFF"/>
<circle cx="16.9973" cy="16.9973" r="16.9973" transform="matrix(-1 0 0 1 30.37 16.9973)" fill="#FEFFFF"/>
<circle cx="16.9973" cy="16.9973" r="16.9973" transform="matrix(-1 0 0 1 51.6166 0)" fill="#FEFFFF"/>
<circle cx="16.9973" cy="16.9973" r="16.9973" transform="matrix(-1 0 0 1 73.7131 11.0481)" fill="#FEFFFF"/>
<circle cx="16.9973" cy="16.9973" r="16.9973" transform="matrix(-1 0 0 1 82.2118 22.9463)" fill="#FEFFFF"/>
<circle cx="16.9973" cy="16.9973" r="16.9973" transform="matrix(-1 0 0 1 40.5684 5.94897)" fill="#FEFFFF"/>
<circle cx="16.9973" cy="16.9973" r="16.9973" transform="matrix(-1 0 0 1 9.97314 11.0481)" fill="#FEFFFF"/>
<circle cx="16.9973" cy="16.9973" r="16.9973" transform="matrix(-1 0 0 1 151.901 79.0374)" fill="#FEFFFF"/>
<circle cx="16.9973" cy="16.9973" r="16.9973" transform="matrix(-1 0 0 1 151.901 62.04)" fill="#FEFFFF"/>
<circle cx="16.9973" cy="16.9973" r="16.9973" transform="matrix(-1 0 0 1 157 71.3887)" fill="#FEFFFF"/>
<ellipse cx="25.496" cy="16.9973" rx="25.496" ry="16.9973" transform="matrix(-1 0 0 1 107.708 96.0347)" fill="#FEFFFF"/>
<ellipse cx="22.5214" cy="16.9973" rx="22.5214" ry="16.9973" transform="matrix(-1 0 0 1 65.2145 88.386)" fill="#FEFFFF"/>
<ellipse cx="36.1193" cy="16.9973" rx="36.1193" ry="16.9973" transform="matrix(-1 0 0 1 137.453 90.9355)" fill="#FEFFFF"/>
</svg>
