<svg width="344" height="147" viewBox="0 0 344 147" fill="none" xmlns="http://www.w3.org/2000/svg">
<ellipse cx="83.1335" cy="40.1771" rx="83.1335" ry="40.1771" transform="matrix(-1 0 0 1 178 57)" fill="#F9FEFF"/>
<ellipse cx="83.1335" cy="40.1771" rx="83.1335" ry="40.1771" transform="matrix(-1 0 0 1 252 57)" fill="#F9FEFF"/>
<ellipse cx="83.1335" cy="40.1771" rx="83.1335" ry="40.1771" transform="matrix(-1 0 0 1 344 57)" fill="#F9FEFF"/>
<ellipse cx="83.1335" cy="40.1771" rx="83.1335" ry="40.1771" transform="matrix(-1 0 0 1 299 23)" fill="#F9FEFF"/>
<ellipse cx="83.1335" cy="40.1771" rx="83.1335" ry="40.1771" transform="matrix(-1 0 0 1 236.774 23)" fill="#F9FEFF"/>
<ellipse cx="30.5" cy="24.5" rx="30.5" ry="24.5" transform="matrix(-1 0 0 1 242 8)" fill="#F9FEFF"/>
<ellipse cx="26.5" cy="23" rx="26.5" ry="23" transform="matrix(-1 0 0 1 195 0)" fill="#F9FEFF"/>
<circle cx="21.5" cy="21.5" r="21.5" transform="matrix(-1 0 0 1 315 46)" fill="#F9FEFF"/>
<ellipse cx="30" cy="21.5" rx="30" ry="21.5" transform="matrix(-0.9669 0.255156 0.255156 0.9669 316.521 90.0569)" fill="#F9FEFF"/>
<circle cx="21.5" cy="21.5" r="21.5" transform="matrix(-1 0 0 1 328 60)" fill="#F9FEFF"/>
<circle cx="21.5" cy="21.5" r="21.5" transform="matrix(-1 0 0 1 212 3)" fill="#F9FEFF"/>
<circle cx="21.5" cy="21.5" r="21.5" transform="matrix(-1 0 0 1 263 23)" fill="#F9FEFF"/>
<circle cx="21.5" cy="21.5" r="21.5" transform="matrix(-1 0 0 1 105 44)" fill="#F9FEFF"/>
<circle cx="21.5" cy="21.5" r="21.5" transform="matrix(-1 0 0 1 55 63)" fill="#F9FEFF"/>
<circle cx="21.5" cy="21.5" r="21.5" transform="matrix(-1 0 0 1 43 75)" fill="#F9FEFF"/>
<circle cx="21.5" cy="21.5" r="21.5" transform="matrix(-1 0 0 1 52 89)" fill="#F9FEFF"/>
<circle cx="21.5" cy="21.5" r="21.5" transform="matrix(-1 0 0 1 242 97)" fill="#F9FEFF"/>
<ellipse cx="44.5" cy="21.5" rx="44.5" ry="21.5" transform="matrix(-1 0 0 1 225 103)" fill="#F9FEFF"/>
<ellipse cx="40" cy="21.5" rx="40" ry="21.5" transform="matrix(-1 0 0 1 142 103)" fill="#F9FEFF"/>
<circle cx="21.5" cy="21.5" r="21.5" transform="matrix(-1 0 0 1 77 94)" fill="#F9FEFF"/>
<circle cx="21.5" cy="21.5" r="21.5" transform="matrix(-1 0 0 1 98 97)" fill="#F9FEFF"/>
<circle cx="21.5" cy="21.5" r="21.5" transform="matrix(-1 0 0 1 161 17)" fill="#F9FEFF"/>
</svg>
