<svg width="425" height="208" viewBox="0 0 425 208" fill="none" xmlns="http://www.w3.org/2000/svg">
<ellipse cx="332.727" cy="136.391" rx="83.1335" ry="66.6094" fill="#FEFFFE"/>
<ellipse cx="224.374" cy="136.391" rx="83.1335" ry="66.6094" fill="#FEFFFE"/>
<ellipse cx="119.133" cy="136.391" rx="83.1335" ry="66.6094" fill="#FEFFFE"/>
<ellipse cx="179.538" cy="80.6094" rx="83.1335" ry="66.6094" fill="#FEFFFE"/>
<ellipse cx="262.133" cy="80.6094" rx="83.1335" ry="66.6094" fill="#FEFFFE"/>
<circle cx="96.5" cy="70.5" r="22.5" fill="#FEFFFE"/>
<circle cx="70.5" cy="75.5" r="22.5" fill="#FEFFFE"/>
<circle cx="51.5" cy="89.5" r="22.5" fill="#FEFFFE"/>
<circle cx="44.5" cy="103.5" r="22.5" fill="#FEFFFE"/>
<circle cx="58.5" cy="163.5" r="22.5" fill="#FEFFFE"/>
<circle cx="115.5" cy="185.5" r="22.5" fill="#FEFFFE"/>
<circle cx="35.5" cy="133.5" r="35.5" fill="#FEFFFE"/>
<circle cx="389.5" cy="133.5" r="35.5" fill="#FEFFFE"/>
<circle cx="273.5" cy="167.5" r="35.5" fill="#FEFFFE"/>
<circle cx="273.5" cy="35.5" r="35.5" fill="#FEFFFE"/>
<circle cx="301.5" cy="49.5" r="35.5" fill="#FEFFFE"/>
<circle cx="179.5" cy="35.5" r="35.5" fill="#FEFFFE"/>
<circle cx="144.5" cy="47.5" r="35.5" fill="#FEFFFE"/>
<circle cx="154.5" cy="171.5" r="35.5" fill="#FEFFFE"/>
</svg>
