<svg width="425" height="208" viewBox="0 0 425 208" fill="none" xmlns="http://www.w3.org/2000/svg">
<ellipse cx="83.1335" cy="66.6094" rx="83.1335" ry="66.6094" transform="matrix(-1 0 0 1 175.406 69.7812)" fill="#F5FFF4"/>
<ellipse cx="83.1335" cy="66.6094" rx="83.1335" ry="66.6094" transform="matrix(-1 0 0 1 283.76 69.7812)" fill="#F5FFF4"/>
<ellipse cx="83.1335" cy="66.6094" rx="83.1335" ry="66.6094" transform="matrix(-1 0 0 1 389 69.7812)" fill="#F5FFF4"/>
<ellipse cx="83.1335" cy="66.6094" rx="83.1335" ry="66.6094" transform="matrix(-1 0 0 1 328.596 14)" fill="#F5FFF4"/>
<ellipse cx="83.1335" cy="66.6094" rx="83.1335" ry="66.6094" transform="matrix(-1 0 0 1 245.774 14)" fill="#F5FFF4"/>
<circle cx="22.5" cy="22.5" r="22.5" transform="matrix(-1 0 0 1 351 48)" fill="#F5FFF4"/>
<circle cx="22.5" cy="22.5" r="22.5" transform="matrix(-1 0 0 1 377 53)" fill="#F5FFF4"/>
<circle cx="22.5" cy="22.5" r="22.5" transform="matrix(-1 0 0 1 396 67)" fill="#F5FFF4"/>
<circle cx="22.5" cy="22.5" r="22.5" transform="matrix(-1 0 0 1 403 81)" fill="#F5FFF4"/>
<circle cx="22.5" cy="22.5" r="22.5" transform="matrix(-1 0 0 1 389 141)" fill="#F5FFF4"/>
<circle cx="22.5" cy="22.5" r="22.5" transform="matrix(-1 0 0 1 332 163)" fill="#F5FFF4"/>
<circle cx="35.5" cy="35.5" r="35.5" transform="matrix(-1 0 0 1 425 98)" fill="#F5FFF4"/>
<circle cx="35.5" cy="35.5" r="35.5" transform="matrix(-1 0 0 1 71 98)" fill="#F5FFF4"/>
<circle cx="35.5" cy="35.5" r="35.5" transform="matrix(-1 0 0 1 187 132)" fill="#F5FFF4"/>
<circle cx="35.5" cy="35.5" r="35.5" transform="matrix(-1 0 0 1 187 0)" fill="#F5FFF4"/>
<circle cx="35.5" cy="35.5" r="35.5" transform="matrix(-1 0 0 1 159 14)" fill="#F5FFF4"/>
<circle cx="35.5" cy="35.5" r="35.5" transform="matrix(-1 0 0 1 281 0)" fill="#F5FFF4"/>
<circle cx="35.5" cy="35.5" r="35.5" transform="matrix(-1 0 0 1 316 12)" fill="#F5FFF4"/>
<circle cx="35.5" cy="35.5" r="35.5" transform="matrix(-1 0 0 1 306 136)" fill="#F5FFF4"/>
</svg>
