<svg width="347" height="347" viewBox="0 0 347 347" fill="none" xmlns="http://www.w3.org/2000/svg">
<path d="M0 0H347V347H0V0Z" fill="#E5FFD4"/>
<path d="M91.5918 86.3244C90.8099 85.2165 89.8659 84.1276 88.8138 83.0764C88.5118 82.7679 88.2226 82.4847 87.9493 82.2392C85.0218 79.5105 81.4556 77.0776 78.3152 75.3057L78.2643 75.2837C68.9163 70.4211 55.0866 75.4159 45.1156 75.4945C44.3146 75.5071 43.574 75.2302 43.021 74.6542C38.587 69.9049 38.3231 59.6542 40.1158 53.5012C40.3796 52.2769 40.5131 50.9928 40.4496 49.7622C40.3733 46.8006 38.7745 44.1947 35.8439 43.4488C32.8084 42.4353 29.5632 43.2285 27.014 44.9248C26.8646 44.9972 26.7184 45.0696 26.5785 45.1452C25.8697 45.526 25.3167 46.0799 24.8812 46.7282C23.0218 48.7142 21.9824 51.2257 22.4592 53.5768C22.4274 53.5799 22.3956 53.5831 22.367 53.5862C21.1624 53.7404 20.2342 54.0394 19.4046 54.949V54.9521C14.8276 60.4851 22.3511 62.8172 28.848 62.77C28.9052 63.6166 28.8957 64.4916 28.937 65.3004C29.3661 74.1223 29.6363 83.7184 33.5077 91.8951C33.8955 92.8173 34.2578 93.7363 34.5471 94.6805C34.582 95.4767 34.7092 96.3139 34.8077 97.0787C35.3608 100.956 36.1999 106.898 36.753 110.703C37.0422 112.79 37.6207 115.097 39.1591 115.626C40.7134 116.123 42.8589 116.309 44.2384 114.899C45.265 113.624 45.4653 111.755 45.7704 109.765C46.0438 107.849 46.3394 105.778 46.6318 103.729C47.0958 103.408 47.6934 103.04 49.1301 103.496C53.7675 104.978 58.7642 106.055 63.7926 105.834C64.6825 105.806 65.5439 105.787 66.4371 105.661C68.4681 105.469 71.2239 104.107 73.0961 105.224C73.3345 105.369 73.4997 105.611 73.6332 105.882C74.0528 108.088 74.5041 110.452 74.8442 112.192C75.124 113.693 75.6802 115.355 77.1677 115.736C78.6712 116.095 80.7404 116.227 82.0722 115.213C83.0639 114.294 83.2578 112.951 83.5534 111.518C83.9952 109.205 84.4974 106.58 84.9456 104.233C85.0123 103.836 85.0822 103.465 85.1522 103.118C86.4204 102.042 90.0089 100.317 97.6691 107.197C112.338 120.375 100.142 97.2864 91.6014 86.3338L91.5918 86.3244Z" fill="#4A7D43"/>
<path d="M127.255 103.833V70.6913H138.329C141.559 70.6913 144.443 71.3564 146.981 72.6867C149.518 74.0169 151.512 75.9311 152.963 78.4293C154.413 80.8951 155.138 83.8638 155.138 87.3353C155.138 90.8718 154.396 93.8729 152.913 96.3387C151.463 98.772 149.469 100.638 146.931 101.935C144.393 103.201 141.51 103.833 138.28 103.833H127.255ZM132.199 100.329L130.716 99.2587H138.033C140.241 99.2587 142.235 98.8369 144.014 97.9933C145.827 97.1173 147.277 95.8033 148.365 94.0513C149.453 92.2993 149.996 90.0607 149.996 87.3353C149.996 84.7073 149.453 82.5011 148.365 80.7167C147.31 78.8998 145.877 77.5371 144.064 76.6287C142.284 75.7202 140.29 75.266 138.082 75.266H130.37L132.199 73.514V100.329Z" fill="#4A7D43"/>
<path d="M164.813 103.833H159.869V80.084H164.813V103.833ZM159.128 72.784C159.128 71.8431 159.408 71.0807 159.968 70.4967C160.562 69.8802 161.352 69.572 162.341 69.572C163.297 69.572 164.072 69.8802 164.665 70.4967C165.258 71.0807 165.555 71.8431 165.555 72.784C165.555 73.6924 165.258 74.4549 164.665 75.0713C164.072 75.6553 163.297 75.9473 162.341 75.9473C161.352 75.9473 160.562 75.6553 159.968 75.0713C159.408 74.4549 159.128 73.6924 159.128 72.784Z" fill="#4A7D43"/>
<path d="M185.054 79.5973C186.767 79.5973 188.119 79.8893 189.107 80.4733C190.096 81.0249 190.821 81.7873 191.283 82.7607C191.744 83.7016 192.041 84.7722 192.172 85.9727C192.304 87.1731 192.37 88.406 192.37 89.6713V103.833H187.427V88.6493C187.427 86.9622 187.031 85.8267 186.24 85.2427C185.482 84.6587 184.576 84.3667 183.521 84.3667C182.466 84.3667 181.395 84.5776 180.308 84.9993C179.22 85.4211 178.248 85.9889 177.391 86.7027C176.534 87.4164 175.875 88.2113 175.413 89.0873V86.362H176.204V103.833H171.261V80.084H175.018L176.056 84.2693L174.82 84.4153C175.743 83.3771 176.748 82.5011 177.836 81.7873C178.923 81.0736 180.077 80.5382 181.296 80.1813C182.516 79.792 183.768 79.5973 185.054 79.5973Z" fill="#4A7D43"/>
<path d="M209.124 104.32C206.685 104.32 204.527 103.817 202.648 102.811C200.802 101.773 199.369 100.329 198.347 98.48C197.325 96.6307 196.815 94.4731 196.815 92.0073C196.815 89.5091 197.325 87.3353 198.347 85.486C199.369 83.6367 200.802 82.1929 202.648 81.1547C204.527 80.1164 206.685 79.5973 209.124 79.5973C211.596 79.5973 213.755 80.1164 215.601 81.1547C217.446 82.1929 218.88 83.6367 219.902 85.486C220.956 87.3353 221.483 89.5091 221.483 92.0073C221.483 94.4731 220.956 96.6307 219.902 98.48C218.88 100.329 217.446 101.773 215.601 102.811C213.755 103.817 211.596 104.32 209.124 104.32ZM209.124 99.648C211.332 99.648 213.096 98.9504 214.414 97.5553C215.765 96.1278 216.441 94.2784 216.441 92.0073C216.441 89.7038 215.765 87.8382 214.414 86.4107C213.096 84.9831 211.332 84.2693 209.124 84.2693C206.949 84.2693 205.186 84.9831 203.835 86.4107C202.516 87.8058 201.857 89.6551 201.857 91.9587C201.857 94.2622 202.516 96.1278 203.835 97.5553C205.186 98.9504 206.949 99.648 209.124 99.648Z" fill="#4A7D43"/>
<path d="M240.754 104.32C237.36 104.32 234.377 103.59 231.806 102.13C229.268 100.638 227.291 98.6098 225.874 96.0467C224.457 93.4511 223.748 90.5311 223.748 87.2867C223.748 84.8209 224.176 82.5498 225.033 80.4733C225.89 78.3969 227.077 76.5962 228.593 75.0713C230.142 73.5464 231.938 72.3622 233.981 71.5187C236.058 70.6751 238.315 70.2533 240.754 70.2533C244.577 70.2533 247.708 71.032 250.147 72.5893C252.586 74.1142 254.58 76.1744 256.129 78.77L251.284 80.1813C249.768 78.1373 248.137 76.7584 246.39 76.0447C244.676 75.2984 242.798 74.9253 240.754 74.9253C238.48 74.9253 236.437 75.4607 234.624 76.5313C232.844 77.602 231.427 79.062 230.372 80.9113C229.318 82.7607 228.79 84.8858 228.79 87.2867C228.79 89.6551 229.318 91.7802 230.372 93.662C231.427 95.5113 232.844 96.9713 234.624 98.042C236.437 99.1127 238.48 99.648 240.754 99.648C242.798 99.648 244.676 99.2911 246.39 98.5773C248.137 97.8311 249.768 96.436 251.284 94.392L256.129 95.8033C254.58 98.3989 252.586 100.475 250.147 102.033C247.708 103.558 244.577 104.32 240.754 104.32Z" fill="#4A7D43"/>
<path d="M270.92 104.32C268.481 104.32 266.323 103.817 264.444 102.811C262.598 101.773 261.165 100.329 260.143 98.48C259.121 96.6307 258.611 94.4731 258.611 92.0073C258.611 89.5091 259.121 87.3353 260.143 85.486C261.165 83.6367 262.598 82.1929 264.444 81.1547C266.323 80.1164 268.481 79.5973 270.92 79.5973C273.392 79.5973 275.551 80.1164 277.397 81.1547C279.242 82.1929 280.676 83.6367 281.698 85.486C282.752 87.3353 283.28 89.5091 283.28 92.0073C283.28 94.4731 282.752 96.6307 281.698 98.48C280.676 100.329 279.242 101.773 277.397 102.811C275.551 103.817 273.392 104.32 270.92 104.32ZM270.92 99.648C273.128 99.648 274.892 98.9504 276.21 97.5553C277.561 96.1278 278.237 94.2784 278.237 92.0073C278.237 89.7038 277.561 87.8382 276.21 86.4107C274.892 84.9831 273.128 84.2693 270.92 84.2693C268.745 84.2693 266.982 84.9831 265.631 86.4107C264.312 87.8058 263.653 89.6551 263.653 91.9587C263.653 94.2622 264.312 96.1278 265.631 97.5553C266.982 98.9504 268.745 99.648 270.92 99.648Z" fill="#4A7D43"/>
<path d="M296.865 104.32C294.657 104.32 292.712 103.801 291.031 102.763C289.351 101.724 288.049 100.281 287.126 98.4313C286.203 96.5495 285.742 94.3758 285.742 91.91C285.742 89.4442 286.203 87.2867 287.126 85.4373C288.049 83.588 289.351 82.1604 291.031 81.1547C292.712 80.1164 294.657 79.5973 296.865 79.5973C299.04 79.5973 300.935 80.1164 302.55 81.1547C304.165 82.1604 305.418 83.588 306.307 85.4373C307.23 87.2867 307.692 89.4442 307.692 91.91C307.692 94.3758 307.23 96.5495 306.307 98.4313C305.418 100.281 304.165 101.724 302.55 102.763C300.935 103.801 299.04 104.32 296.865 104.32ZM297.607 100.135C299.65 100.135 301.281 99.3884 302.501 97.896C303.753 96.4036 304.379 94.4244 304.379 91.9587C304.379 89.4929 303.753 87.5138 302.501 86.0213C301.281 84.5289 299.65 83.7827 297.607 83.7827C295.563 83.7827 293.915 84.5289 292.663 86.0213C291.41 87.5138 290.784 89.4767 290.784 91.91C290.784 94.3758 291.41 96.3711 292.663 97.896C293.915 99.3884 295.563 100.135 297.607 100.135ZM305.319 103.833L304.132 99.064H304.627V85.5347H304.132V70.6913H309.076V103.833H305.319Z" fill="#4A7D43"/>
<path d="M325.51 104.32C323.17 104.32 321.11 103.817 319.331 102.811C317.551 101.773 316.167 100.329 315.178 98.48C314.189 96.6307 313.695 94.4731 313.695 92.0073C313.695 89.5091 314.189 87.3353 315.178 85.486C316.167 83.6367 317.551 82.1929 319.331 81.1547C321.11 80.1164 323.17 79.5973 325.51 79.5973C327.883 79.5973 329.959 80.1164 331.739 81.1547C333.519 82.1929 334.903 83.6367 335.892 85.486C336.881 87.3353 337.375 89.5091 337.375 92.0073C337.375 92.2344 337.359 92.4778 337.326 92.7373C337.326 92.9644 337.309 93.1753 337.276 93.37H318.391V89.1847H333.717L332.332 92.0073C332.332 89.5415 331.772 87.5138 330.652 85.924C329.531 84.3342 327.817 83.5393 325.51 83.5393C323.467 83.5393 321.835 84.1882 320.616 85.486C319.396 86.7513 318.787 88.4222 318.787 90.4987V93.0293C318.787 95.2031 319.38 96.9389 320.566 98.2367C321.753 99.502 323.401 100.135 325.51 100.135C327.455 100.135 328.954 99.7291 330.009 98.918C331.064 98.1069 331.986 97.1011 332.777 95.9007L336.485 98.188C335.365 100.232 333.914 101.773 332.135 102.811C330.388 103.817 328.18 104.32 325.51 104.32Z" fill="#4A7D43"/>
<path d="M113.784 61.25V116M91.5918 86.3244C90.8099 85.2165 89.8659 84.1276 88.8138 83.0764C88.5118 82.7679 88.2226 82.4847 87.9493 82.2392C85.0218 79.5105 81.4556 77.0776 78.3152 75.3057L78.2643 75.2837C68.9163 70.4211 55.0866 75.4159 45.1156 75.4945C44.3146 75.5071 43.574 75.2302 43.021 74.6542C38.587 69.9049 38.3231 59.6542 40.1158 53.5012C40.3796 52.2769 40.5131 50.9928 40.4496 49.7622C40.3733 46.8006 38.7745 44.1947 35.8439 43.4488C32.8084 42.4353 29.5632 43.2285 27.014 44.9248C26.8646 44.9972 26.7184 45.0696 26.5785 45.1452C25.8697 45.526 25.3167 46.0799 24.8812 46.7282C23.0218 48.7142 21.9824 51.2257 22.4592 53.5768C22.4274 53.5799 22.3956 53.5831 22.367 53.5862C21.1624 53.7404 20.2342 54.0394 19.4046 54.949V54.9521C14.8276 60.4851 22.3511 62.8172 28.848 62.77C28.9052 63.6166 28.8957 64.4916 28.937 65.3004C29.3661 74.1223 29.6363 83.7184 33.5077 91.8951C33.8955 92.8173 34.2578 93.7363 34.5471 94.6805C34.582 95.4767 34.7092 96.3139 34.8077 97.0787C35.3608 100.956 36.1999 106.898 36.753 110.703C37.0422 112.79 37.6207 115.097 39.1591 115.626C40.7134 116.123 42.8589 116.309 44.2384 114.899C45.265 113.624 45.4653 111.755 45.7704 109.765C46.0438 107.849 46.3394 105.778 46.6318 103.729C47.0958 103.408 47.6934 103.04 49.1301 103.496C53.7675 104.978 58.7642 106.055 63.7926 105.834C64.6825 105.806 65.5439 105.787 66.4371 105.661C68.4681 105.469 71.2239 104.107 73.0961 105.224C73.3345 105.369 73.4997 105.611 73.6332 105.882C74.0528 108.088 74.5041 110.452 74.8442 112.192C75.124 113.693 75.6802 115.355 77.1677 115.736C78.6712 116.095 80.7404 116.227 82.0722 115.213C83.0639 114.294 83.2578 112.951 83.5534 111.518C83.9952 109.205 84.4974 106.58 84.9456 104.233C85.0123 103.836 85.0822 103.465 85.1522 103.118C86.4204 102.042 90.0089 100.317 97.6691 107.197C112.338 120.375 100.142 97.2864 91.6014 86.3338L91.5918 86.3244ZM127.255 103.833V70.6913H138.329C141.559 70.6913 144.443 71.3564 146.981 72.6867C149.518 74.0169 151.512 75.9311 152.963 78.4293C154.413 80.8951 155.138 83.8638 155.138 87.3353C155.138 90.8718 154.396 93.8729 152.913 96.3387C151.463 98.772 149.469 100.638 146.931 101.935C144.393 103.201 141.51 103.833 138.28 103.833H127.255ZM132.199 100.329L130.716 99.2587H138.033C140.241 99.2587 142.235 98.8369 144.014 97.9933C145.827 97.1173 147.277 95.8033 148.365 94.0513C149.453 92.2993 149.996 90.0607 149.996 87.3353C149.996 84.7073 149.453 82.5011 148.365 80.7167C147.31 78.8998 145.877 77.5371 144.064 76.6287C142.284 75.7202 140.29 75.266 138.082 75.266H130.37L132.199 73.514V100.329ZM164.813 103.833H159.869V80.084H164.813V103.833ZM159.128 72.784C159.128 71.8431 159.408 71.0807 159.968 70.4967C160.562 69.8802 161.352 69.572 162.341 69.572C163.297 69.572 164.072 69.8802 164.665 70.4967C165.258 71.0807 165.555 71.8431 165.555 72.784C165.555 73.6924 165.258 74.4549 164.665 75.0713C164.072 75.6553 163.297 75.9473 162.341 75.9473C161.352 75.9473 160.562 75.6553 159.968 75.0713C159.408 74.4549 159.128 73.6924 159.128 72.784ZM185.054 79.5973C186.767 79.5973 188.119 79.8893 189.107 80.4733C190.096 81.0249 190.821 81.7873 191.283 82.7607C191.744 83.7016 192.041 84.7722 192.172 85.9727C192.304 87.1731 192.37 88.406 192.37 89.6713V103.833H187.427V88.6493C187.427 86.9622 187.031 85.8267 186.24 85.2427C185.482 84.6587 184.576 84.3667 183.521 84.3667C182.466 84.3667 181.395 84.5776 180.308 84.9993C179.22 85.4211 178.248 85.9889 177.391 86.7027C176.534 87.4164 175.875 88.2113 175.413 89.0873V86.362H176.204V103.833H171.261V80.084H175.018L176.056 84.2693L174.82 84.4153C175.743 83.3771 176.748 82.5011 177.836 81.7873C178.923 81.0736 180.077 80.5382 181.296 80.1813C182.516 79.792 183.768 79.5973 185.054 79.5973ZM209.124 104.32C206.685 104.32 204.527 103.817 202.648 102.811C200.802 101.773 199.369 100.329 198.347 98.48C197.325 96.6307 196.815 94.4731 196.815 92.0073C196.815 89.5091 197.325 87.3353 198.347 85.486C199.369 83.6367 200.802 82.1929 202.648 81.1547C204.527 80.1164 206.685 79.5973 209.124 79.5973C211.596 79.5973 213.755 80.1164 215.601 81.1547C217.446 82.1929 218.88 83.6367 219.902 85.486C220.956 87.3353 221.483 89.5091 221.483 92.0073C221.483 94.4731 220.956 96.6307 219.902 98.48C218.88 100.329 217.446 101.773 215.601 102.811C213.755 103.817 211.596 104.32 209.124 104.32ZM209.124 99.648C211.332 99.648 213.096 98.9504 214.414 97.5553C215.765 96.1278 216.441 94.2784 216.441 92.0073C216.441 89.7038 215.765 87.8382 214.414 86.4107C213.096 84.9831 211.332 84.2693 209.124 84.2693C206.949 84.2693 205.186 84.9831 203.835 86.4107C202.516 87.8058 201.857 89.6551 201.857 91.9587C201.857 94.2622 202.516 96.1278 203.835 97.5553C205.186 98.9504 206.949 99.648 209.124 99.648ZM240.754 104.32C237.36 104.32 234.377 103.59 231.806 102.13C229.268 100.638 227.291 98.6098 225.874 96.0467C224.457 93.4511 223.748 90.5311 223.748 87.2867C223.748 84.8209 224.176 82.5498 225.033 80.4733C225.89 78.3969 227.077 76.5962 228.593 75.0713C230.142 73.5464 231.938 72.3622 233.981 71.5187C236.058 70.6751 238.315 70.2533 240.754 70.2533C244.577 70.2533 247.708 71.032 250.147 72.5893C252.586 74.1142 254.58 76.1744 256.129 78.77L251.284 80.1813C249.768 78.1373 248.137 76.7584 246.39 76.0447C244.676 75.2984 242.798 74.9253 240.754 74.9253C238.48 74.9253 236.437 75.4607 234.624 76.5313C232.844 77.602 231.427 79.062 230.372 80.9113C229.318 82.7607 228.79 84.8858 228.79 87.2867C228.79 89.6551 229.318 91.7802 230.372 93.662C231.427 95.5113 232.844 96.9713 234.624 98.042C236.437 99.1127 238.48 99.648 240.754 99.648C242.798 99.648 244.676 99.2911 246.39 98.5773C248.137 97.8311 249.768 96.436 251.284 94.392L256.129 95.8033C254.58 98.3989 252.586 100.475 250.147 102.033C247.708 103.558 244.577 104.32 240.754 104.32ZM270.92 104.32C268.481 104.32 266.323 103.817 264.444 102.811C262.598 101.773 261.165 100.329 260.143 98.48C259.121 96.6307 258.611 94.4731 258.611 92.0073C258.611 89.5091 259.121 87.3353 260.143 85.486C261.165 83.6367 262.598 82.1929 264.444 81.1547C266.323 80.1164 268.481 79.5973 270.92 79.5973C273.392 79.5973 275.551 80.1164 277.397 81.1547C279.242 82.1929 280.676 83.6367 281.698 85.486C282.752 87.3353 283.28 89.5091 283.28 92.0073C283.28 94.4731 282.752 96.6307 281.698 98.48C280.676 100.329 279.242 101.773 277.397 102.811C275.551 103.817 273.392 104.32 270.92 104.32ZM270.92 99.648C273.128 99.648 274.892 98.9504 276.21 97.5553C277.561 96.1278 278.237 94.2784 278.237 92.0073C278.237 89.7038 277.561 87.8382 276.21 86.4107C274.892 84.9831 273.128 84.2693 270.92 84.2693C268.745 84.2693 266.982 84.9831 265.631 86.4107C264.312 87.8058 263.653 89.6551 263.653 91.9587C263.653 94.2622 264.312 96.1278 265.631 97.5553C266.982 98.9504 268.745 99.648 270.92 99.648ZM296.865 104.32C294.657 104.32 292.712 103.801 291.031 102.763C289.351 101.724 288.049 100.281 287.126 98.4313C286.203 96.5495 285.742 94.3758 285.742 91.91C285.742 89.4442 286.203 87.2867 287.126 85.4373C288.049 83.588 289.351 82.1604 291.031 81.1547C292.712 80.1164 294.657 79.5973 296.865 79.5973C299.04 79.5973 300.935 80.1164 302.55 81.1547C304.165 82.1604 305.418 83.588 306.307 85.4373C307.23 87.2867 307.692 89.4442 307.692 91.91C307.692 94.3758 307.23 96.5495 306.307 98.4313C305.418 100.281 304.165 101.724 302.55 102.763C300.935 103.801 299.04 104.32 296.865 104.32ZM297.607 100.135C299.65 100.135 301.281 99.3884 302.501 97.896C303.753 96.4036 304.379 94.4244 304.379 91.9587C304.379 89.4929 303.753 87.5138 302.501 86.0213C301.281 84.5289 299.65 83.7827 297.607 83.7827C295.563 83.7827 293.915 84.5289 292.663 86.0213C291.41 87.5138 290.784 89.4767 290.784 91.91C290.784 94.3758 291.41 96.3711 292.663 97.896C293.915 99.3884 295.563 100.135 297.607 100.135ZM305.319 103.833L304.132 99.064H304.627V85.5347H304.132V70.6913H309.076V103.833H305.319ZM325.51 104.32C323.17 104.32 321.11 103.817 319.331 102.811C317.551 101.773 316.167 100.329 315.178 98.48C314.189 96.6307 313.695 94.4731 313.695 92.0073C313.695 89.5091 314.189 87.3353 315.178 85.486C316.167 83.6367 317.551 82.1929 319.331 81.1547C321.11 80.1164 323.17 79.5973 325.51 79.5973C327.883 79.5973 329.959 80.1164 331.739 81.1547C333.519 82.1929 334.903 83.6367 335.892 85.486C336.881 87.3353 337.375 89.5091 337.375 92.0073C337.375 92.2344 337.359 92.4778 337.326 92.7373C337.326 92.9644 337.309 93.1753 337.276 93.37H318.391V89.1847H333.717L332.332 92.0073C332.332 89.5415 331.772 87.5138 330.652 85.924C329.531 84.3342 327.817 83.5393 325.51 83.5393C323.467 83.5393 321.835 84.1882 320.616 85.486C319.396 86.7513 318.787 88.4222 318.787 90.4987V93.0293C318.787 95.2031 319.38 96.9389 320.566 98.2367C321.753 99.502 323.401 100.135 325.51 100.135C327.455 100.135 328.954 99.7291 330.009 98.918C331.064 98.1069 331.986 97.1011 332.777 95.9007L336.485 98.188C335.365 100.232 333.914 101.773 332.135 102.811C330.388 103.817 328.18 104.32 325.51 104.32Z" stroke="#4A7D43" stroke-width="2.28125" stroke-linecap="round"/>
<g clip-path="url(#clip0_670_8995)">
<path d="M177.5 139.559C209.349 139.559 238.186 153.464 258.99 179.084C279.764 204.667 292.412 241.763 292.412 288.1C292.412 350.223 289.293 391.892 283.577 419.409C277.898 446.747 269.462 461.095 257.906 467.035C246.452 472.922 233.129 469.84 219.96 466.022C206.343 462.073 192.282 457.122 177.5 457.122C162.409 457.122 148.354 460.583 134.561 462.502C121.12 464.373 107.967 464.728 96.7495 457.173C85.5585 449.635 77.1327 434.81 71.4292 408.574C65.7084 382.259 62.5884 343.804 62.5884 288.1C62.5884 241.763 75.2363 204.667 96.0103 179.084C116.814 153.464 145.65 139.559 177.5 139.559Z" fill="#D7FFD1" stroke="#515E57" stroke-width="6.79279"/>
<path d="M277.128 269.665C277.128 299.628 259.007 313.907 236.654 313.907C214.301 313.907 196.18 299.628 196.18 269.665C196.18 239.702 214.301 215.412 236.654 215.412C259.007 215.412 277.128 239.702 277.128 269.665Z" fill="white"/>
<path d="M77.3062 269.665C77.3062 299.628 95.4269 313.907 117.78 313.907C140.133 313.907 158.254 299.628 158.254 269.665C158.254 239.702 140.133 215.412 117.78 215.412C95.4269 215.412 77.3062 239.702 77.3062 269.665Z" fill="white"/>
<ellipse cx="128.252" cy="264.659" rx="15.8499" ry="23.7748" fill="black"/>
<ellipse cx="226.182" cy="264.659" rx="15.8499" ry="23.7748" fill="black"/>
<ellipse cx="177.217" cy="349.286" rx="99.9107" ry="54.0593" fill="#B9ECB2"/>
<ellipse cx="137.875" cy="337.682" rx="9.62313" ry="14.1517" fill="#92BA8D"/>
<ellipse cx="216.842" cy="337.682" rx="9.34009" ry="14.1517" fill="#92BA8D"/>
</g>
<defs>
<clipPath id="clip0_670_8995">
<rect width="249" height="210" fill="white" transform="translate(53 136)"/>
</clipPath>
</defs>
</svg>
