<svg width="347" height="347" viewBox="0 0 347 347" fill="none" xmlns="http://www.w3.org/2000/svg">
<path d="M0 0H347V347H0V0Z" fill="#FFE7E7"/>
<g clip-path="url(#clip0_670_9011)">
<path d="M88.033 346.559L87.515 398.228C87.2975 419.994 93.0373 441.457 104.408 460.016C114.257 476.091 129.599 492.275 153.341 501.167C166.644 506.148 181.353 506.148 194.658 501.167C218.401 492.275 233.743 476.091 243.592 460.016C254.962 441.457 260.702 419.994 260.485 398.228L259.967 346.559C322.883 314.095 351.688 258.576 346.379 180C346.379 180 244.624 191.903 212.789 293.077C201.584 291.603 188.797 290.57 174.695 290.538C160.031 290.503 146.764 291.558 135.208 293.077" fill="#F56B09"/>
<path d="M135.208 293.077C103.376 191.903 1.62045 180 1.62045 180C-3.68762 258.576 25.1167 314.095 88.0333 346.559" fill="#F56B09"/>
<path d="M127.841 294.116C100.43 226.8 30.2552 218.59 30.2552 218.59C26.4596 274.802 45.6998 315.444 87.9725 340.516C88.6056 313.241 102.007 298.803 127.841 294.116Z" fill="#F59857"/>
<path d="M318.503 218.59C318.503 218.59 248.187 226.819 220.834 294.318C246.182 299.244 259.228 313.859 259.65 341.185C302.716 316.167 322.334 275.304 318.5 218.587L318.503 218.59Z" fill="#F59857"/>
<path d="M235.494 352.146C226.063 339.658 188.337 350.274 188.337 364.634C188.337 378.993 213.488 399.601 224.177 396.477C234.865 393.354 242.411 368.382 235.494 352.146Z" fill="white"/>
<path d="M112.506 352.146C121.938 339.658 159.663 350.274 159.663 364.633C159.663 378.993 134.513 399.601 123.824 396.477C113.135 393.354 105.589 368.381 112.506 352.146Z" fill="white"/>
</g>
<path d="M105.134 131.166C82.0951 144.822 56.5195 128.986 59.1932 105.503C73.0658 105.573 80.0623 98.2928 80.0623 98.2928C79.0175 111.915 83.6706 115.253 88.5808 115.18C94.2287 115.1 98.805 110.557 99.2223 104.925C101.993 67.4526 96.8123 53.9235 67.5682 58.6368C67.5682 58.6368 73.66 51.2998 90.3266 46.5531L100.861 55.3055L96.8556 40.6181C96.8556 40.6181 112.975 24.4352 122.271 22.9999C118.018 26.1777 113.726 28.9249 108.732 50.1916C108.732 50.1916 121.233 60.2992 131.42 63.714C130.936 65.3162 129.698 71.2279 125.402 70.7673C121.891 70.3934 120.452 92.765 119.597 107.152C119.01 117.046 113.659 126.112 105.134 131.166Z" fill="#F56B09"/>
<path d="M150.423 79.1089C136.611 79.1089 125.412 90.308 125.412 104.121C125.412 117.934 136.611 129.133 150.423 129.133C164.236 129.133 175.435 117.934 175.435 104.121C175.435 90.308 164.236 79.1089 150.423 79.1089ZM149.679 113.601C144.445 113.601 140.199 109.358 140.199 104.121C140.199 98.8835 144.442 94.6408 149.679 94.6408C154.916 94.6408 159.159 98.8835 159.159 104.121C159.159 109.358 154.916 113.601 149.679 113.601Z" fill="#111524"/>
<path d="M198.544 115.503C193.747 113.704 191.691 109.374 191.237 108.349L226.189 105.783C228.949 95.5615 221.599 85.9078 215.888 83.164C213.808 81.9723 207.186 78.5408 198.53 79.8259C192.115 80.7773 187.709 83.8583 185.723 85.4505C177.431 92.5606 176.66 102.328 176.55 104.154C176.413 105.305 175.391 115.466 183.249 123.034C190.623 130.134 200.33 129.723 201.631 129.586C204.779 129.389 212.7 129.212 219.94 122.142C223.455 118.711 226.179 113.019 226.99 110.649C218.568 111.547 213.331 111.491 213.331 111.564C209.272 116.09 203.607 117.396 198.54 115.496L198.544 115.503ZM201.648 90.7814C206.595 90.7947 211.071 93.9725 212.774 98.7192L190.222 99.4603C191.701 94.3164 196.404 90.768 201.645 90.7814H201.648Z" fill="#111524"/>
<path d="M259.462 101.16C259.933 101.16 260.357 100.873 260.527 100.432C263.488 92.7848 274.343 69.2683 274.914 68.7443C274.914 68.7443 288.646 57.5818 309.812 64.7019C309.812 64.7019 302.025 64.802 298.019 68.2636C298.019 68.2636 301.431 67.4224 303.904 68.3637C284.05 66.8483 279.804 119.392 254.602 134.901C254.569 134.901 223.018 134.901 223.005 134.901C230.068 113.848 246.758 126.549 251.364 118.114C246.534 108.5 241.45 98.7399 236.103 88.8526C231.47 81.2753 228.632 71.4948 220.438 67.2154C256.655 58.4197 245.619 72.1925 258.524 100.606C258.678 100.946 259.021 101.167 259.395 101.167H259.465L259.462 101.16Z" fill="#111524"/>
<defs>
<clipPath id="clip0_670_9011">
<rect width="346" height="165.978" fill="white" transform="translate(1 180)"/>
</clipPath>
</defs>
</svg>
