<svg width="1170" height="127" viewBox="0 0 1170 127" fill="none" xmlns="http://www.w3.org/2000/svg">
<circle cx="52.0296" cy="66.115" r="50.2796" fill="#918EF4"/>
<path d="M132.614 36.9038L131.27 32.6478H123.814L122.47 36.9038H118.662L125.926 15.1438H129.318L136.614 36.9038H132.614ZM125.894 25.9918L124.902 29.1278H130.15L129.158 25.9918L127.558 20.4878L125.894 25.9918ZM139.673 32.3278V13.2238H143.353V32.3278C143.353 32.6478 143.427 32.9571 143.577 33.2558C143.747 33.5331 144.067 33.6718 144.537 33.6718H145.049V37.0638H144.153C142.937 37.0638 142.009 36.8291 141.369 36.3598C140.729 35.8905 140.281 35.2931 140.025 34.5678C139.79 33.8425 139.673 33.0958 139.673 32.3278ZM160.932 35.9758C159.823 36.4238 158.778 36.7438 157.796 36.9358C156.815 37.1278 155.887 37.2238 155.012 37.2238C152.602 37.2238 150.778 36.5411 149.54 35.1758C148.303 33.8105 147.684 31.9971 147.684 29.7358V27.8158C147.684 26.3011 147.962 24.9891 148.516 23.8798C149.071 22.7705 149.86 21.9065 150.884 21.2878C151.908 20.6691 153.114 20.3598 154.5 20.3598C155.631 20.3598 156.687 20.5945 157.668 21.0638C158.671 21.5118 159.482 22.2265 160.1 23.2078C160.74 24.1678 161.06 25.4051 161.06 26.9198C161.06 27.3678 161.028 27.8478 160.964 28.3598C160.9 28.8505 160.794 29.3731 160.644 29.9278H151.236C151.279 31.2505 151.61 32.2425 152.228 32.9038C152.847 33.5651 153.839 33.8958 155.204 33.8958C155.93 33.8958 156.676 33.8105 157.444 33.6398C158.234 33.4691 159.044 33.2131 159.876 32.8718L160.932 35.9758ZM154.5 23.4638C153.519 23.4638 152.751 23.7838 152.196 24.4238C151.663 25.0425 151.354 25.9385 151.268 27.1118H157.412C157.434 27.0051 157.444 26.9091 157.444 26.8238C157.444 26.7171 157.444 26.6211 157.444 26.5358C157.444 25.5118 157.156 24.7438 156.58 24.2318C156.004 23.7198 155.311 23.4638 154.5 23.4638ZM173.876 36.9038L170.516 31.4638L167.22 36.9038H163.38L168.628 28.5838L163.732 20.6798H167.7L170.708 25.5118L173.62 20.6798H177.46L172.564 28.4238L177.844 36.9038H173.876Z" fill="#1E4D0F"/>
<path d="M119.198 61.3286L122.078 45.0086H126.806C128.422 45.0086 129.606 45.4246 130.358 46.2566C131.126 47.0886 131.398 48.1766 131.174 49.5206L131.054 50.2406C130.958 50.8326 130.75 51.3606 130.43 51.8246C130.126 52.2886 129.702 52.6726 129.158 52.9766C129.766 53.3286 130.198 53.8086 130.454 54.4166C130.71 55.0086 130.774 55.6966 130.646 56.4806L130.526 57.2006C130.382 58.0806 130.118 58.8246 129.734 59.4326C129.35 60.0406 128.782 60.5126 128.03 60.8486C127.294 61.1686 126.31 61.3286 125.078 61.3286H119.198ZM126.59 47.6486H124.502L123.782 51.7286H125.87C126.494 51.7286 126.998 51.6086 127.382 51.3686C127.766 51.1126 127.998 50.7606 128.078 50.3126L128.222 49.5206C128.334 48.9446 128.246 48.4886 127.958 48.1526C127.67 47.8166 127.214 47.6486 126.59 47.6486ZM125.99 54.3686H123.302L122.534 58.6886H125.222C125.894 58.6886 126.43 58.5526 126.83 58.2806C127.246 58.0086 127.494 57.6326 127.574 57.1526L127.718 56.3606C127.83 55.7526 127.734 55.2726 127.43 54.9206C127.126 54.5526 126.646 54.3686 125.99 54.3686ZM142.26 60.7526C141.38 61.0886 140.604 61.3046 139.932 61.4006C139.276 61.5126 138.66 61.5686 138.084 61.5686C136.228 61.5686 134.876 61.0246 134.028 59.9366C133.196 58.8326 132.932 57.3606 133.236 55.5206L133.452 54.2726C133.74 52.6406 134.388 51.3446 135.396 50.3846C136.404 49.4086 137.652 48.9206 139.14 48.9206C139.924 48.9206 140.652 49.0566 141.324 49.3286C142.012 49.6006 142.572 50.0406 143.004 50.6486C143.436 51.2406 143.652 52.0326 143.652 53.0246C143.652 54.0646 143.34 55.0886 142.716 56.0966H135.78C135.668 57.0726 135.82 57.8166 136.236 58.3286C136.652 58.8246 137.388 59.0726 138.444 59.0726C138.796 59.0726 139.268 59.0246 139.86 58.9286C140.452 58.8326 141.124 58.6566 141.876 58.4006L142.26 60.7526ZM139.044 51.3206C137.54 51.3206 136.58 52.2086 136.164 53.9846H140.844C140.956 53.6486 141.012 53.3286 141.012 53.0246C141.012 52.4646 140.828 52.0406 140.46 51.7526C140.108 51.4646 139.636 51.3206 139.044 51.3206ZM155.207 61.3286C155.031 62.3526 154.759 63.2646 154.391 64.0646C154.023 64.8806 153.463 65.5206 152.711 65.9846C151.959 66.4486 150.919 66.6806 149.591 66.6806C148.327 66.6806 146.959 66.4406 145.487 65.9606L146.087 63.6086C146.775 63.8486 147.415 64.0086 148.007 64.0886C148.599 64.1846 149.079 64.2326 149.447 64.2326C150.183 64.2326 150.751 64.1046 151.151 63.8486C151.551 63.6086 151.839 63.2646 152.015 62.8166C152.207 62.3846 152.351 61.8886 152.447 61.3286L152.735 59.6726C151.935 60.4086 151.215 60.9126 150.575 61.1846C149.935 61.4406 149.367 61.5686 148.871 61.5686C148.087 61.5686 147.431 61.3206 146.903 60.8246C146.391 60.3126 146.039 59.6166 145.847 58.7366C145.671 57.8406 145.671 56.8166 145.847 55.6646L146.015 54.6086C146.303 52.7526 146.919 51.3446 147.863 50.3846C148.807 49.4086 150.119 48.9206 151.799 48.9206C152.743 48.9206 153.663 49.0566 154.559 49.3286C155.471 49.6006 156.311 49.9846 157.079 50.4806L155.207 61.3286ZM148.679 55.6646C148.503 56.8166 148.519 57.6646 148.727 58.2086C148.951 58.7366 149.335 59.0006 149.879 59.0006C150.295 59.0006 150.783 58.8326 151.343 58.4966C151.919 58.1606 152.551 57.5606 153.239 56.6966L154.079 51.8966C153.391 51.5606 152.711 51.3926 152.039 51.3926C151.111 51.3926 150.383 51.6806 149.855 52.2566C149.343 52.8326 149.007 53.6166 148.847 54.6086L148.679 55.6646ZM164.268 46.8566H161.364L161.868 44.0006H164.772L164.268 46.8566ZM161.652 61.3286H158.892L161.028 49.1606H163.788L161.652 61.3286ZM173.303 51.4886C172.919 51.4886 172.431 51.6406 171.839 51.9446C171.247 52.2326 170.479 52.8486 169.535 53.7926L168.215 61.3286H165.455L167.591 49.1606H170.207L169.847 51.2246C170.759 50.2966 171.567 49.6806 172.271 49.3766C172.991 49.0726 173.647 48.9206 174.239 48.9206C175.055 48.9206 175.703 49.1206 176.183 49.5206C176.679 49.9046 177.015 50.4406 177.191 51.1286C177.367 51.8166 177.375 52.5926 177.215 53.4566L175.823 61.3286H173.063L174.431 53.5046C174.687 52.1606 174.311 51.4886 173.303 51.4886ZM187.319 51.4886C186.935 51.4886 186.447 51.6406 185.855 51.9446C185.263 52.2326 184.495 52.8486 183.551 53.7926L182.231 61.3286H179.471L181.607 49.1606H184.223L183.863 51.2246C184.775 50.2966 185.583 49.6806 186.287 49.3766C187.007 49.0726 187.663 48.9206 188.255 48.9206C189.071 48.9206 189.719 49.1206 190.199 49.5206C190.695 49.9046 191.031 50.4406 191.207 51.1286C191.383 51.8166 191.391 52.5926 191.231 53.4566L189.839 61.3286H187.079L188.447 53.5046C188.703 52.1606 188.327 51.4886 187.319 51.4886ZM202.846 60.7526C201.966 61.0886 201.19 61.3046 200.518 61.4006C199.862 61.5126 199.246 61.5686 198.67 61.5686C196.814 61.5686 195.462 61.0246 194.614 59.9366C193.782 58.8326 193.518 57.3606 193.822 55.5206L194.038 54.2726C194.326 52.6406 194.974 51.3446 195.982 50.3846C196.99 49.4086 198.238 48.9206 199.726 48.9206C200.51 48.9206 201.238 49.0566 201.91 49.3286C202.598 49.6006 203.158 50.0406 203.59 50.6486C204.022 51.2406 204.238 52.0326 204.238 53.0246C204.238 54.0646 203.926 55.0886 203.302 56.0966H196.366C196.254 57.0726 196.406 57.8166 196.822 58.3286C197.238 58.8246 197.974 59.0726 199.03 59.0726C199.382 59.0726 199.854 59.0246 200.446 58.9286C201.038 58.8326 201.71 58.6566 202.462 58.4006L202.846 60.7526ZM199.63 51.3206C198.126 51.3206 197.166 52.2086 196.75 53.9846H201.43C201.542 53.6486 201.598 53.3286 201.598 53.0246C201.598 52.4646 201.414 52.0406 201.046 51.7526C200.694 51.4646 200.222 51.3206 199.63 51.3206ZM214.593 51.6806C214.225 51.6806 213.809 51.7206 213.345 51.8006C212.897 51.8806 212.401 52.0646 211.857 52.3526C211.329 52.6406 210.753 53.0966 210.129 53.7206L208.785 61.3286H206.025L208.161 49.1606H210.777L210.417 51.2486C211.361 50.3046 212.217 49.6806 212.985 49.3766C213.769 49.0726 214.465 48.9206 215.073 48.9206L214.593 51.6806ZM220.663 57.7766L223.159 43.5686H225.919L223.399 57.8966C223.367 58.1366 223.399 58.3686 223.495 58.5926C223.607 58.8006 223.847 58.9046 224.215 58.9046H224.503L224.047 61.4486H223.591C222.663 61.4486 221.967 61.2726 221.503 60.9206C221.055 60.5526 220.775 60.0886 220.663 59.5286C220.567 58.9526 220.567 58.3686 220.663 57.7766ZM236.104 60.7526C235.224 61.0886 234.448 61.3046 233.776 61.4006C233.12 61.5126 232.504 61.5686 231.928 61.5686C230.072 61.5686 228.72 61.0246 227.872 59.9366C227.04 58.8326 226.776 57.3606 227.08 55.5206L227.296 54.2726C227.584 52.6406 228.232 51.3446 229.24 50.3846C230.248 49.4086 231.496 48.9206 232.984 48.9206C233.768 48.9206 234.496 49.0566 235.168 49.3286C235.856 49.6006 236.416 50.0406 236.848 50.6486C237.28 51.2406 237.496 52.0326 237.496 53.0246C237.496 54.0646 237.184 55.0886 236.56 56.0966H229.624C229.512 57.0726 229.664 57.8166 230.08 58.3286C230.496 58.8246 231.232 59.0726 232.288 59.0726C232.64 59.0726 233.112 59.0246 233.704 58.9286C234.296 58.8326 234.968 58.6566 235.72 58.4006L236.104 60.7526ZM232.888 51.3206C231.384 51.3206 230.424 52.2086 230.008 53.9846H234.688C234.8 53.6486 234.856 53.3286 234.856 53.0246C234.856 52.4646 234.672 52.0406 234.304 51.7526C233.952 51.4646 233.48 51.3206 232.888 51.3206ZM249.627 61.4486C248.747 61.4486 248.091 61.2646 247.659 60.8966C247.243 60.5126 246.971 60.0486 246.843 59.5046C245.979 60.3366 245.203 60.8886 244.515 61.1606C243.827 61.4326 243.219 61.5686 242.691 61.5686C241.907 61.5686 241.259 61.3206 240.747 60.8246C240.235 60.3126 239.883 59.6166 239.691 58.7366C239.515 57.8406 239.515 56.8166 239.691 55.6646L239.859 54.6086C240.163 52.7526 240.771 51.3446 241.683 50.3846C242.611 49.4086 243.899 48.9206 245.547 48.9206C246.475 48.9206 247.379 49.0566 248.259 49.3286C249.155 49.6006 249.979 49.9846 250.731 50.4806L249.435 57.8966C249.403 58.1366 249.435 58.3686 249.531 58.5926C249.643 58.8006 249.883 58.9046 250.251 58.9046H250.539L250.083 61.4486H249.627ZM242.523 55.6646C242.347 56.8166 242.363 57.6646 242.571 58.2086C242.779 58.7366 243.131 59.0006 243.627 59.0006C244.043 59.0006 244.515 58.8406 245.043 58.5206C245.587 58.1846 246.203 57.5846 246.891 56.7206L247.731 51.8726C247.075 51.5526 246.427 51.3926 245.787 51.3926C244.891 51.3926 244.187 51.6806 243.675 52.2566C243.179 52.8326 242.851 53.6166 242.691 54.6086L242.523 55.6646ZM261.234 51.6806C260.866 51.6806 260.45 51.7206 259.986 51.8006C259.538 51.8806 259.042 52.0646 258.498 52.3526C257.97 52.6406 257.394 53.0966 256.77 53.7206L255.426 61.3286H252.666L254.802 49.1606H257.418L257.058 51.2486C258.002 50.3046 258.858 49.6806 259.626 49.3766C260.41 49.0726 261.106 48.9206 261.714 48.9206L261.234 51.6806ZM269.795 51.4886C269.411 51.4886 268.923 51.6406 268.331 51.9446C267.739 52.2326 266.971 52.8486 266.027 53.7926L264.707 61.3286H261.947L264.083 49.1606H266.699L266.339 51.2246C267.251 50.2966 268.059 49.6806 268.763 49.3766C269.483 49.0726 270.139 48.9206 270.731 48.9206C271.547 48.9206 272.195 49.1206 272.675 49.5206C273.171 49.9046 273.507 50.4406 273.683 51.1286C273.859 51.8166 273.867 52.5926 273.707 53.4566L272.315 61.3286H269.555L270.923 53.5046C271.179 52.1606 270.803 51.4886 269.795 51.4886ZM285.323 60.7526C284.443 61.0886 283.667 61.3046 282.995 61.4006C282.339 61.5126 281.723 61.5686 281.147 61.5686C279.291 61.5686 277.939 61.0246 277.091 59.9366C276.259 58.8326 275.995 57.3606 276.299 55.5206L276.515 54.2726C276.803 52.6406 277.451 51.3446 278.459 50.3846C279.467 49.4086 280.715 48.9206 282.203 48.9206C282.987 48.9206 283.715 49.0566 284.387 49.3286C285.075 49.6006 285.635 50.0406 286.067 50.6486C286.499 51.2406 286.715 52.0326 286.715 53.0246C286.715 54.0646 286.403 55.0886 285.779 56.0966H278.843C278.731 57.0726 278.883 57.8166 279.299 58.3286C279.715 58.8246 280.451 59.0726 281.507 59.0726C281.859 59.0726 282.331 59.0246 282.923 58.9286C283.515 58.8326 284.187 58.6566 284.939 58.4006L285.323 60.7526ZM282.107 51.3206C280.603 51.3206 279.643 52.2086 279.227 53.9846H283.907C284.019 53.6486 284.075 53.3286 284.075 53.0246C284.075 52.4646 283.891 52.0406 283.523 51.7526C283.171 51.4646 282.699 51.3206 282.107 51.3206ZM297.07 51.6806C296.702 51.6806 296.286 51.7206 295.822 51.8006C295.374 51.8806 294.878 52.0646 294.334 52.3526C293.806 52.6406 293.23 53.0966 292.606 53.7206L291.262 61.3286H288.502L290.638 49.1606H293.254L292.894 51.2486C293.838 50.3046 294.694 49.6806 295.462 49.3766C296.246 49.0726 296.942 48.9206 297.55 48.9206L297.07 51.6806Z" fill="#1E4D0F" fill-opacity="0.8"/>
<path d="M120.998 78.4814L121.766 82.8814L124.278 73.8734H125.574L128.086 82.8334L128.886 78.4814L129.83 73.8734H131.206L128.806 84.7534H127.398L124.902 75.8574L122.406 84.7534H120.982L118.598 73.8734H120.054L120.998 78.4814ZM138.862 84.8334C138.372 84.8334 137.977 84.7214 137.678 84.4974C137.39 84.2734 137.188 83.9961 137.07 83.6654C136.548 84.1241 136.073 84.4494 135.646 84.6414C135.22 84.8228 134.793 84.9134 134.366 84.9134C133.673 84.9134 133.161 84.6894 132.83 84.2414C132.5 83.7934 132.334 83.2441 132.334 82.5934C132.334 82.1561 132.414 81.7668 132.574 81.4254C132.734 81.0841 133.006 80.8174 133.39 80.6254C133.774 80.4228 134.292 80.3214 134.942 80.3214C135.23 80.3214 135.545 80.3428 135.886 80.3854C136.228 80.4174 136.574 80.4601 136.926 80.5134V79.4414C136.926 78.8441 136.793 78.4388 136.526 78.2254C136.27 78.0014 135.892 77.8894 135.39 77.8894C134.708 77.8894 133.945 78.0761 133.102 78.4494L132.686 77.3614C133.177 77.1374 133.646 76.9668 134.094 76.8494C134.542 76.7321 134.996 76.6734 135.454 76.6734C136.201 76.6734 136.772 76.7961 137.166 77.0414C137.561 77.2868 137.833 77.6121 137.982 78.0174C138.132 78.4228 138.206 78.8654 138.206 79.3454V82.7694C138.206 83.0148 138.254 83.2228 138.35 83.3934C138.446 83.5534 138.638 83.6334 138.926 83.6334H139.102V84.8334H138.862ZM133.63 82.5774C133.63 82.9401 133.716 83.2334 133.886 83.4574C134.057 83.6814 134.302 83.7934 134.622 83.7934C134.9 83.7934 135.22 83.7134 135.582 83.5534C135.945 83.3828 136.393 83.0468 136.926 82.5454V81.5374C136.201 81.4201 135.561 81.3614 135.006 81.3614C134.516 81.3614 134.164 81.4628 133.95 81.6654C133.737 81.8681 133.63 82.1721 133.63 82.5774ZM144.769 77.9054C144.47 77.9054 144.118 77.9801 143.713 78.1294C143.318 78.2788 142.838 78.5828 142.273 79.0414V84.7534H140.961V76.8334H142.209V77.9374C142.774 77.4574 143.286 77.1268 143.745 76.9454C144.214 76.7641 144.662 76.6734 145.089 76.6734C145.825 76.6734 146.385 76.9081 146.769 77.3774C147.164 77.8361 147.361 78.4921 147.361 79.3454V84.7534H146.049V79.5374C146.049 78.4494 145.622 77.9054 144.769 77.9054ZM154.453 84.4654C153.856 84.7641 153.221 84.9134 152.549 84.9134C151.973 84.9134 151.52 84.7961 151.189 84.5614C150.869 84.3268 150.64 84.0121 150.501 83.6174C150.373 83.2228 150.309 82.7854 150.309 82.3054V77.9854H148.933V76.8334H150.309V74.6254H151.621V76.8334H154.213V77.9854H151.621V82.2574C151.621 82.8121 151.712 83.1961 151.893 83.4094C152.085 83.6121 152.379 83.7134 152.773 83.7134C152.965 83.7134 153.163 83.6921 153.365 83.6494C153.579 83.5961 153.808 83.5108 154.053 83.3934L154.453 84.4654ZM158.116 83.7454C159.182 83.7454 159.716 83.3828 159.716 82.6574C159.716 82.3481 159.62 82.1028 159.428 81.9214C159.236 81.7401 158.884 81.5854 158.372 81.4574L157.492 81.2334C156.841 81.0734 156.356 80.7961 156.036 80.4014C155.716 79.9961 155.556 79.5161 155.556 78.9614C155.556 78.5561 155.646 78.1828 155.828 77.8414C156.009 77.4894 156.297 77.2068 156.692 76.9934C157.086 76.7801 157.598 76.6734 158.228 76.6734C158.633 76.6734 159.044 76.7214 159.46 76.8174C159.886 76.9028 160.318 77.0521 160.756 77.2654L160.34 78.3694C159.561 78.0174 158.857 77.8414 158.228 77.8414C157.3 77.8414 156.836 78.1881 156.836 78.8814C156.836 79.1481 156.921 79.3774 157.092 79.5694C157.262 79.7614 157.582 79.9161 158.052 80.0334L158.932 80.2574C159.636 80.4281 160.153 80.7054 160.484 81.0894C160.814 81.4734 160.98 81.9694 160.98 82.5774C160.98 83.0148 160.884 83.4148 160.692 83.7774C160.51 84.1294 160.212 84.4068 159.796 84.6094C159.39 84.8121 158.841 84.9134 158.148 84.9134C157.689 84.9134 157.23 84.8654 156.772 84.7694C156.324 84.6734 155.86 84.5188 155.38 84.3054L155.732 83.2174C156.19 83.3988 156.606 83.5321 156.98 83.6174C157.353 83.7028 157.732 83.7454 158.116 83.7454ZM167.483 80.3214V81.2654C167.483 82.0761 167.632 82.6894 167.931 83.1054C168.229 83.5108 168.704 83.7134 169.355 83.7134C169.995 83.7134 170.683 83.5481 171.419 83.2174L171.819 84.3214C170.944 84.7161 170.096 84.9134 169.275 84.9134C168.251 84.9134 167.472 84.5881 166.939 83.9374C166.405 83.2868 166.139 82.3961 166.139 81.2654V80.3214C166.139 79.1908 166.405 78.3001 166.939 77.6494C167.472 76.9988 168.251 76.6734 169.275 76.6734C169.659 76.6734 170.053 76.7268 170.459 76.8334C170.875 76.9294 171.291 77.0681 171.707 77.2494L171.307 78.3694C170.955 78.2201 170.613 78.1028 170.283 78.0174C169.963 77.9321 169.653 77.8894 169.355 77.8894C168.704 77.8894 168.229 78.0974 167.931 78.5134C167.632 78.9188 167.483 79.5214 167.483 80.3214ZM179.983 80.3054V81.2654C179.983 82.3961 179.69 83.2868 179.103 83.9374C178.527 84.5881 177.7 84.9134 176.623 84.9134C175.556 84.9134 174.73 84.5881 174.143 83.9374C173.556 83.2868 173.263 82.3961 173.263 81.2654V80.3054C173.263 79.1961 173.551 78.3161 174.127 77.6654C174.714 77.0041 175.546 76.6734 176.623 76.6734C177.7 76.6734 178.527 77.0041 179.103 77.6654C179.69 78.3161 179.983 79.1961 179.983 80.3054ZM178.623 80.3054C178.623 79.5481 178.452 78.9561 178.111 78.5294C177.77 78.0921 177.274 77.8734 176.623 77.8734C175.983 77.8734 175.487 78.0921 175.135 78.5294C174.794 78.9561 174.623 79.5481 174.623 80.3054V81.2654C174.623 82.0548 174.794 82.6628 175.135 83.0894C175.487 83.5161 175.983 83.7294 176.623 83.7294C177.274 83.7294 177.77 83.5161 178.111 83.0894C178.452 82.6628 178.623 82.0548 178.623 81.2654V80.3054ZM187.183 84.7534V83.6494C186.692 84.1188 186.244 84.4494 185.839 84.6414C185.444 84.8228 185.034 84.9134 184.607 84.9134C183.764 84.9134 183.114 84.5934 182.655 83.9534C182.207 83.3134 181.983 82.4174 181.983 81.2654V80.3374C181.983 79.2174 182.26 78.3268 182.815 77.6654C183.38 77.0041 184.196 76.6734 185.263 76.6734C185.572 76.6734 185.882 76.7054 186.191 76.7694C186.5 76.8334 186.81 76.9241 187.119 77.0414V72.9134H188.431V84.7534H187.183ZM183.343 81.2654C183.343 82.0974 183.471 82.7108 183.727 83.1054C183.994 83.4894 184.388 83.6814 184.911 83.6814C185.22 83.6814 185.54 83.6068 185.871 83.4574C186.202 83.2974 186.618 82.9721 187.119 82.4814V78.2574C186.81 78.1188 186.511 78.0228 186.223 77.9694C185.935 77.9054 185.652 77.8734 185.375 77.8734C184.65 77.8734 184.127 78.0921 183.807 78.5294C183.498 78.9668 183.343 79.5694 183.343 80.3374V81.2654ZM192.65 74.8974H191.178V73.4254H192.65V74.8974ZM192.57 84.7534H191.258V76.8334H192.57V84.7534ZM199.206 77.9054C198.908 77.9054 198.556 77.9801 198.15 78.1294C197.756 78.2788 197.276 78.5828 196.71 79.0414V84.7534H195.398V76.8334H196.646V77.9374C197.212 77.4574 197.724 77.1268 198.182 76.9454C198.652 76.7641 199.1 76.6734 199.526 76.6734C200.262 76.6734 200.822 76.9081 201.206 77.3774C201.601 77.8361 201.798 78.4921 201.798 79.3454V84.7534H200.486V79.5374C200.486 78.4494 200.06 77.9054 199.206 77.9054ZM210.875 85.7454C210.875 86.5241 210.555 87.1481 209.915 87.6174C209.286 88.0868 208.416 88.3214 207.307 88.3214C206.752 88.3214 206.171 88.2468 205.563 88.0974C204.966 87.9481 204.4 87.7081 203.867 87.3774L204.315 86.3534C204.848 86.6521 205.36 86.8601 205.851 86.9774C206.352 87.1054 206.838 87.1694 207.307 87.1694C208.032 87.1694 208.592 87.0521 208.987 86.8174C209.382 86.5828 209.579 86.2681 209.579 85.8734C209.579 85.5854 209.483 85.3614 209.291 85.2014C209.099 85.0521 208.79 84.9774 208.363 84.9774H206.523C205.83 84.9774 205.328 84.8121 205.019 84.4814C204.71 84.1508 204.555 83.7881 204.555 83.3934C204.555 83.1161 204.619 82.8441 204.747 82.5774C204.875 82.3001 205.056 82.0281 205.291 81.7614C204.918 81.5374 204.619 81.2334 204.395 80.8494C204.171 80.4548 204.059 79.9801 204.059 79.4254C204.059 78.8174 204.187 78.3108 204.443 77.9054C204.71 77.5001 205.062 77.1961 205.499 76.9934C205.936 76.7801 206.427 76.6734 206.971 76.6734H207.243C207.616 76.6734 207.958 76.7268 208.267 76.8334H211.115V78.0014L209.387 77.7614C209.611 77.9534 209.792 78.1934 209.931 78.4814C210.07 78.7588 210.139 79.1001 210.139 79.5054C210.139 80.0814 210.006 80.5668 209.739 80.9614C209.483 81.3561 209.136 81.6601 208.699 81.8734C208.262 82.0761 207.776 82.1774 207.243 82.1774H206.971C206.832 82.1774 206.699 82.1721 206.571 82.1614C206.443 82.1401 206.315 82.1188 206.187 82.0974C205.878 82.4388 205.723 82.7748 205.723 83.1054C205.723 83.5321 206.022 83.7454 206.619 83.7454H208.411C209.179 83.7454 209.782 83.9161 210.219 84.2574C210.656 84.5988 210.875 85.0948 210.875 85.7454ZM207.243 81.0414C207.659 81.0414 208.027 80.9081 208.347 80.6414C208.667 80.3748 208.827 79.9694 208.827 79.4254C208.827 78.8921 208.667 78.4921 208.347 78.2254C208.027 77.9481 207.659 77.8094 207.243 77.8094H206.971C206.544 77.8094 206.171 77.9481 205.851 78.2254C205.531 78.4921 205.371 78.8921 205.371 79.4254C205.371 79.9694 205.531 80.3748 205.851 80.6414C206.171 80.9081 206.544 81.0414 206.971 81.0414H207.243ZM220.688 84.4654C220.091 84.7641 219.456 84.9134 218.784 84.9134C218.208 84.9134 217.755 84.7961 217.424 84.5614C217.104 84.3268 216.875 84.0121 216.736 83.6174C216.608 83.2228 216.544 82.7854 216.544 82.3054V77.9854H215.168V76.8334H216.544V74.6254H217.856V76.8334H220.448V77.9854H217.856V82.2574C217.856 82.8121 217.947 83.1961 218.128 83.4094C218.32 83.6121 218.613 83.7134 219.008 83.7134C219.2 83.7134 219.397 83.6921 219.6 83.6494C219.813 83.5961 220.043 83.5108 220.288 83.3934L220.688 84.4654ZM228.686 80.3054V81.2654C228.686 82.3961 228.393 83.2868 227.806 83.9374C227.23 84.5881 226.403 84.9134 225.326 84.9134C224.259 84.9134 223.433 84.5881 222.846 83.9374C222.259 83.2868 221.966 82.3961 221.966 81.2654V80.3054C221.966 79.1961 222.254 78.3161 222.83 77.6654C223.417 77.0041 224.249 76.6734 225.326 76.6734C226.403 76.6734 227.23 77.0041 227.806 77.6654C228.393 78.3161 228.686 79.1961 228.686 80.3054ZM227.326 80.3054C227.326 79.5481 227.155 78.9561 226.814 78.5294C226.473 78.0921 225.977 77.8734 225.326 77.8734C224.686 77.8734 224.19 78.0921 223.838 78.5294C223.497 78.9561 223.326 79.5481 223.326 80.3054V81.2654C223.326 82.0548 223.497 82.6628 223.838 83.0894C224.19 83.5161 224.686 83.7294 225.326 83.7294C225.977 83.7294 226.473 83.5161 226.814 83.0894C227.155 82.6628 227.326 82.0548 227.326 81.2654V80.3054ZM238.715 77.9854H236.123V84.7534H234.811V77.9854H233.435V76.8334H234.811V75.5214C234.811 75.0308 234.891 74.5774 235.051 74.1614C235.221 73.7348 235.493 73.3934 235.867 73.1374C236.24 72.8814 236.736 72.7534 237.355 72.7534C237.664 72.7534 237.989 72.7908 238.331 72.8654C238.683 72.9294 239.008 73.0308 239.307 73.1694L238.939 74.2734C238.395 74.0601 237.92 73.9534 237.515 73.9534C237.067 73.9534 236.72 74.0761 236.475 74.3214C236.24 74.5668 236.123 74.9614 236.123 75.5054V76.8334H238.715V77.9854ZM245.892 84.2894C245.412 84.5241 244.932 84.6841 244.452 84.7694C243.972 84.8654 243.53 84.9134 243.124 84.9134C241.983 84.9134 241.13 84.5881 240.564 83.9374C240.01 83.2868 239.732 82.3961 239.732 81.2654V80.3054C239.732 79.2068 240.01 78.3268 240.564 77.6654C241.13 77.0041 241.924 76.6734 242.948 76.6734C243.492 76.6734 243.988 76.7854 244.436 77.0094C244.895 77.2228 245.258 77.5534 245.524 78.0014C245.802 78.4388 245.94 79.0041 245.94 79.6974C245.94 80.1454 245.876 80.6574 245.748 81.2334H241.028V81.2654C241.028 82.0761 241.194 82.6894 241.524 83.1054C241.866 83.5214 242.41 83.7294 243.156 83.7294C243.498 83.7294 243.871 83.6868 244.276 83.6014C244.692 83.5161 245.098 83.3828 245.492 83.2014L245.892 84.2894ZM242.948 77.8254C242.33 77.8254 241.86 78.0281 241.54 78.4334C241.231 78.8281 241.06 79.3881 241.028 80.1134H244.612C244.644 79.9214 244.66 79.7401 244.66 79.5694C244.66 78.9721 244.49 78.5348 244.148 78.2574C243.818 77.9694 243.418 77.8254 242.948 77.8254ZM253.955 84.2894C253.475 84.5241 252.995 84.6841 252.515 84.7694C252.035 84.8654 251.592 84.9134 251.187 84.9134C250.046 84.9134 249.192 84.5881 248.627 83.9374C248.072 83.2868 247.795 82.3961 247.795 81.2654V80.3054C247.795 79.2068 248.072 78.3268 248.627 77.6654C249.192 77.0041 249.987 76.6734 251.011 76.6734C251.555 76.6734 252.051 76.7854 252.499 77.0094C252.958 77.2228 253.32 77.5534 253.587 78.0014C253.864 78.4388 254.003 79.0041 254.003 79.6974C254.003 80.1454 253.939 80.6574 253.811 81.2334H249.091V81.2654C249.091 82.0761 249.256 82.6894 249.587 83.1054C249.928 83.5214 250.472 83.7294 251.219 83.7294C251.56 83.7294 251.934 83.6868 252.339 83.6014C252.755 83.5161 253.16 83.3828 253.555 83.2014L253.955 84.2894ZM251.011 77.8254C250.392 77.8254 249.923 78.0281 249.603 78.4334C249.294 78.8281 249.123 79.3881 249.091 80.1134H252.675C252.707 79.9214 252.723 79.7401 252.723 79.5694C252.723 78.9721 252.552 78.5348 252.211 78.2574C251.88 77.9694 251.48 77.8254 251.011 77.8254ZM256.257 82.8334V72.9134H257.569V82.7694C257.569 83.0574 257.612 83.2761 257.697 83.4254C257.793 83.5641 257.98 83.6334 258.257 83.6334H258.513V84.8334H258.145C257.441 84.8334 256.951 84.6468 256.673 84.2734C256.396 83.9001 256.257 83.4201 256.257 82.8334ZM269.768 84.8334C269.278 84.8334 268.883 84.7214 268.584 84.4974C268.296 84.2734 268.094 83.9961 267.976 83.6654C267.454 84.1241 266.979 84.4494 266.552 84.6414C266.126 84.8228 265.699 84.9134 265.272 84.9134C264.579 84.9134 264.067 84.6894 263.736 84.2414C263.406 83.7934 263.24 83.2441 263.24 82.5934C263.24 82.1561 263.32 81.7668 263.48 81.4254C263.64 81.0841 263.912 80.8174 264.296 80.6254C264.68 80.4228 265.198 80.3214 265.848 80.3214C266.136 80.3214 266.451 80.3428 266.792 80.3854C267.134 80.4174 267.48 80.4601 267.832 80.5134V79.4414C267.832 78.8441 267.699 78.4388 267.432 78.2254C267.176 78.0014 266.798 77.8894 266.296 77.8894C265.614 77.8894 264.851 78.0761 264.008 78.4494L263.592 77.3614C264.083 77.1374 264.552 76.9668 265 76.8494C265.448 76.7321 265.902 76.6734 266.36 76.6734C267.107 76.6734 267.678 76.7961 268.072 77.0414C268.467 77.2868 268.739 77.6121 268.888 78.0174C269.038 78.4228 269.112 78.8654 269.112 79.3454V82.7694C269.112 83.0148 269.16 83.2228 269.256 83.3934C269.352 83.5534 269.544 83.6334 269.832 83.6334H270.008V84.8334H269.768ZM264.536 82.5774C264.536 82.9401 264.622 83.2334 264.792 83.4574C264.963 83.6814 265.208 83.7934 265.528 83.7934C265.806 83.7934 266.126 83.7134 266.488 83.5534C266.851 83.3828 267.299 83.0468 267.832 82.5454V81.5374C267.107 81.4201 266.467 81.3614 265.912 81.3614C265.422 81.3614 265.07 81.4628 264.856 81.6654C264.643 81.8681 264.536 82.1721 264.536 82.5774ZM275.035 84.9134C274.438 84.9134 273.819 84.7908 273.179 84.5454V88.1614H271.867V76.8334H273.115V77.9534C273.606 77.4841 274.054 77.1534 274.459 76.9614C274.864 76.7694 275.28 76.6734 275.707 76.6734C276.55 76.6734 277.195 76.9934 277.643 77.6334C278.102 78.2734 278.331 79.1748 278.331 80.3374V81.2654C278.331 82.3748 278.048 83.2601 277.483 83.9214C276.928 84.5828 276.112 84.9134 275.035 84.9134ZM275.387 77.9054C275.078 77.9054 274.758 77.9854 274.427 78.1454C274.096 78.3054 273.68 78.6308 273.179 79.1214V83.3454C273.488 83.4841 273.787 83.5854 274.075 83.6494C274.363 83.7028 274.646 83.7294 274.923 83.7294C275.648 83.7294 276.171 83.5108 276.491 83.0734C276.811 82.6254 276.971 82.0228 276.971 81.2654V80.3374C276.971 79.5054 276.838 78.8921 276.571 78.4974C276.315 78.1028 275.92 77.9054 275.387 77.9054ZM283.926 84.9134C283.328 84.9134 282.71 84.7908 282.07 84.5454V88.1614H280.758V76.8334H282.006V77.9534C282.496 77.4841 282.944 77.1534 283.35 76.9614C283.755 76.7694 284.171 76.6734 284.598 76.6734C285.44 76.6734 286.086 76.9934 286.534 77.6334C286.992 78.2734 287.222 79.1748 287.222 80.3374V81.2654C287.222 82.3748 286.939 83.2601 286.374 83.9214C285.819 84.5828 285.003 84.9134 283.926 84.9134ZM284.278 77.9054C283.968 77.9054 283.648 77.9854 283.318 78.1454C282.987 78.3054 282.571 78.6308 282.07 79.1214V83.3454C282.379 83.4841 282.678 83.5854 282.966 83.6494C283.254 83.7028 283.536 83.7294 283.814 83.7294C284.539 83.7294 285.062 83.5108 285.382 83.0734C285.702 82.6254 285.862 82.0228 285.862 81.2654V80.3374C285.862 79.5054 285.728 78.8921 285.462 78.4974C285.206 78.1028 284.811 77.9054 284.278 77.9054ZM293.808 77.9854C293.328 77.9854 292.859 78.0708 292.4 78.2414C291.952 78.4121 291.472 78.7374 290.96 79.2174V84.7534H289.648V76.8334H290.896V78.1134C291.44 77.5801 291.936 77.2068 292.384 76.9934C292.843 76.7801 293.318 76.6734 293.808 76.6734V77.9854ZM301.795 80.3054V81.2654C301.795 82.3961 301.502 83.2868 300.915 83.9374C300.339 84.5881 299.513 84.9134 298.435 84.9134C297.369 84.9134 296.542 84.5881 295.955 83.9374C295.369 83.2868 295.075 82.3961 295.075 81.2654V80.3054C295.075 79.1961 295.363 78.3161 295.939 77.6654C296.526 77.0041 297.358 76.6734 298.435 76.6734C299.513 76.6734 300.339 77.0041 300.915 77.6654C301.502 78.3161 301.795 79.1961 301.795 80.3054ZM300.435 80.3054C300.435 79.5481 300.265 78.9561 299.923 78.5294C299.582 78.0921 299.086 77.8734 298.435 77.8734C297.795 77.8734 297.299 78.0921 296.947 78.5294C296.606 78.9561 296.435 79.5481 296.435 80.3054V81.2654C296.435 82.0548 296.606 82.6628 296.947 83.0894C297.299 83.5161 297.795 83.7294 298.435 83.7294C299.086 83.7294 299.582 83.5161 299.923 83.0894C300.265 82.6628 300.435 82.0548 300.435 81.2654V80.3054ZM309.972 84.8334C309.481 84.8334 309.086 84.7214 308.788 84.4974C308.5 84.2734 308.297 83.9961 308.18 83.6654C307.657 84.1241 307.182 84.4494 306.756 84.6414C306.329 84.8228 305.902 84.9134 305.476 84.9134C304.782 84.9134 304.27 84.6894 303.94 84.2414C303.609 83.7934 303.444 83.2441 303.444 82.5934C303.444 82.1561 303.524 81.7668 303.684 81.4254C303.844 81.0841 304.116 80.8174 304.5 80.6254C304.884 80.4228 305.401 80.3214 306.052 80.3214C306.34 80.3214 306.654 80.3428 306.996 80.3854C307.337 80.4174 307.684 80.4601 308.036 80.5134V79.4414C308.036 78.8441 307.902 78.4388 307.636 78.2254C307.38 78.0014 307.001 77.8894 306.5 77.8894C305.817 77.8894 305.054 78.0761 304.212 78.4494L303.796 77.3614C304.286 77.1374 304.756 76.9668 305.204 76.8494C305.652 76.7321 306.105 76.6734 306.564 76.6734C307.31 76.6734 307.881 76.7961 308.276 77.0414C308.67 77.2868 308.942 77.6121 309.092 78.0174C309.241 78.4228 309.316 78.8654 309.316 79.3454V82.7694C309.316 83.0148 309.364 83.2228 309.46 83.3934C309.556 83.5534 309.748 83.6334 310.036 83.6334H310.212V84.8334H309.972ZM304.74 82.5774C304.74 82.9401 304.825 83.2334 304.996 83.4574C305.166 83.6814 305.412 83.7934 305.732 83.7934C306.009 83.7934 306.329 83.7134 306.692 83.5534C307.054 83.3828 307.502 83.0468 308.036 82.5454V81.5374C307.31 81.4201 306.67 81.3614 306.116 81.3614C305.625 81.3614 305.273 81.4628 305.06 81.6654C304.846 81.8681 304.74 82.1721 304.74 82.5774ZM312.998 80.3214V81.2654C312.998 82.0761 313.148 82.6894 313.446 83.1054C313.745 83.5108 314.22 83.7134 314.87 83.7134C315.51 83.7134 316.198 83.5481 316.934 83.2174L317.334 84.3214C316.46 84.7161 315.612 84.9134 314.79 84.9134C313.766 84.9134 312.988 84.5881 312.454 83.9374C311.921 83.2868 311.654 82.3961 311.654 81.2654V80.3214C311.654 79.1908 311.921 78.3001 312.454 77.6494C312.988 76.9988 313.766 76.6734 314.79 76.6734C315.174 76.6734 315.569 76.7268 315.974 76.8334C316.39 76.9294 316.806 77.0681 317.222 77.2494L316.822 78.3694C316.47 78.2201 316.129 78.1028 315.798 78.0174C315.478 77.9321 315.169 77.8894 314.87 77.8894C314.22 77.8894 313.745 78.0974 313.446 78.5134C313.148 78.9188 312.998 79.5214 312.998 80.3214ZM323.066 77.9054C322.767 77.9054 322.415 77.9801 322.01 78.1294C321.615 78.2788 321.135 78.5828 320.57 79.0414V84.7534H319.258V72.9134H320.57V77.8894C321.124 77.4201 321.626 77.1001 322.074 76.9294C322.522 76.7588 322.959 76.6734 323.386 76.6734C324.122 76.6734 324.682 76.9081 325.066 77.3774C325.46 77.8361 325.658 78.4921 325.658 79.3454V84.7534H324.346V79.5374C324.346 78.4494 323.919 77.9054 323.066 77.9054ZM334.19 84.8334C333.7 84.8334 333.305 84.7214 333.006 84.4974C332.718 84.2734 332.516 83.9961 332.398 83.6654C331.876 84.1241 331.401 84.4494 330.974 84.6414C330.548 84.8228 330.121 84.9134 329.694 84.9134C329.001 84.9134 328.489 84.6894 328.158 84.2414C327.828 83.7934 327.662 83.2441 327.662 82.5934C327.662 82.1561 327.742 81.7668 327.902 81.4254C328.062 81.0841 328.334 80.8174 328.718 80.6254C329.102 80.4228 329.62 80.3214 330.27 80.3214C330.558 80.3214 330.873 80.3428 331.214 80.3854C331.556 80.4174 331.902 80.4601 332.254 80.5134V79.4414C332.254 78.8441 332.121 78.4388 331.854 78.2254C331.598 78.0014 331.22 77.8894 330.718 77.8894C330.036 77.8894 329.273 78.0761 328.43 78.4494L328.014 77.3614C328.505 77.1374 328.974 76.9668 329.422 76.8494C329.87 76.7321 330.324 76.6734 330.782 76.6734C331.529 76.6734 332.1 76.7961 332.494 77.0414C332.889 77.2868 333.161 77.6121 333.31 78.0174C333.46 78.4228 333.534 78.8654 333.534 79.3454V82.7694C333.534 83.0148 333.582 83.2228 333.678 83.3934C333.774 83.5534 333.966 83.6334 334.254 83.6334H334.43V84.8334H334.19ZM328.958 82.5774C328.958 82.9401 329.044 83.2334 329.214 83.4574C329.385 83.6814 329.63 83.7934 329.95 83.7934C330.228 83.7934 330.548 83.7134 330.91 83.5534C331.273 83.3828 331.721 83.0468 332.254 82.5454V81.5374C331.529 81.4201 330.889 81.3614 330.334 81.3614C329.844 81.3614 329.492 81.4628 329.278 81.6654C329.065 81.8681 328.958 82.1721 328.958 82.5774ZM342.689 81.2654C342.689 82.3748 342.412 83.2601 341.857 83.9214C341.302 84.5828 340.486 84.9134 339.409 84.9134C338.342 84.9134 337.286 84.6308 336.241 84.0654V72.9134H337.553V77.9054C338.033 77.4574 338.47 77.1428 338.865 76.9614C339.27 76.7694 339.681 76.6734 340.097 76.6734C340.929 76.6734 341.569 76.9934 342.017 77.6334C342.465 78.2734 342.689 79.1748 342.689 80.3374V81.2654ZM339.777 77.9054C339.478 77.9054 339.158 77.9854 338.817 78.1454C338.486 78.3054 338.065 78.6361 337.553 79.1374V83.3294C338.182 83.5961 338.774 83.7294 339.329 83.7294C340.044 83.7294 340.556 83.5108 340.865 83.0734C341.174 82.6254 341.329 82.0228 341.329 81.2654V80.3374C341.329 79.5054 341.201 78.8921 340.945 78.4974C340.689 78.1028 340.3 77.9054 339.777 77.9054ZM345.101 82.8334V72.9134H346.413V82.7694C346.413 83.0574 346.456 83.2761 346.541 83.4254C346.637 83.5641 346.824 83.6334 347.101 83.6334H347.357V84.8334H346.989C346.285 84.8334 345.794 84.6468 345.517 84.2734C345.24 83.9001 345.101 83.4201 345.101 82.8334ZM355.08 84.2894C354.6 84.5241 354.12 84.6841 353.64 84.7694C353.16 84.8654 352.717 84.9134 352.312 84.9134C351.171 84.9134 350.317 84.5881 349.752 83.9374C349.197 83.2868 348.92 82.3961 348.92 81.2654V80.3054C348.92 79.2068 349.197 78.3268 349.752 77.6654C350.317 77.0041 351.112 76.6734 352.136 76.6734C352.68 76.6734 353.176 76.7854 353.624 77.0094C354.083 77.2228 354.445 77.5534 354.712 78.0014C354.989 78.4388 355.128 79.0041 355.128 79.6974C355.128 80.1454 355.064 80.6574 354.936 81.2334H350.216V81.2654C350.216 82.0761 350.381 82.6894 350.712 83.1054C351.053 83.5214 351.597 83.7294 352.344 83.7294C352.685 83.7294 353.059 83.6868 353.464 83.6014C353.88 83.5161 354.285 83.3828 354.68 83.2014L355.08 84.2894ZM352.136 77.8254C351.517 77.8254 351.048 78.0281 350.728 78.4334C350.419 78.8281 350.248 79.3881 350.216 80.1134H353.8C353.832 79.9214 353.848 79.7401 353.848 79.5694C353.848 78.9721 353.677 78.5348 353.336 78.2574C353.005 77.9694 352.605 77.8254 352.136 77.8254ZM358.262 84.7534H356.79V83.2974H358.262V84.7534ZM364.249 84.7534V73.8734H365.705C366.676 75.2601 367.566 76.6574 368.377 78.0654C369.198 79.4628 369.966 80.9241 370.681 82.4494L370.521 78.2894V73.8734H371.881V84.7534H370.425C369.678 83.1961 368.905 81.6814 368.105 80.2094C367.316 78.7268 366.452 77.2814 365.513 75.8734L365.609 80.3054V84.7534H364.249ZM380.752 84.2894C380.272 84.5241 379.792 84.6841 379.312 84.7694C378.832 84.8654 378.389 84.9134 377.984 84.9134C376.842 84.9134 375.989 84.5881 375.424 83.9374C374.869 83.2868 374.592 82.3961 374.592 81.2654V80.3054C374.592 79.2068 374.869 78.3268 375.424 77.6654C375.989 77.0041 376.784 76.6734 377.808 76.6734C378.352 76.6734 378.848 76.7854 379.296 77.0094C379.754 77.2228 380.117 77.5534 380.384 78.0014C380.661 78.4388 380.8 79.0041 380.8 79.6974C380.8 80.1454 380.736 80.6574 380.608 81.2334H375.888V81.2654C375.888 82.0761 376.053 82.6894 376.384 83.1054C376.725 83.5214 377.269 83.7294 378.016 83.7294C378.357 83.7294 378.73 83.6868 379.136 83.6014C379.552 83.5161 379.957 83.3828 380.352 83.2014L380.752 84.2894ZM377.808 77.8254C377.189 77.8254 376.72 78.0281 376.4 78.4334C376.09 78.8281 375.92 79.3881 375.888 80.1134H379.472C379.504 79.9214 379.52 79.7401 379.52 79.5694C379.52 78.9721 379.349 78.5348 379.008 78.2574C378.677 77.9694 378.277 77.8254 377.808 77.8254ZM388.814 84.2894C388.334 84.5241 387.854 84.6841 387.374 84.7694C386.894 84.8654 386.452 84.9134 386.046 84.9134C384.905 84.9134 384.052 84.5881 383.486 83.9374C382.932 83.2868 382.654 82.3961 382.654 81.2654V80.3054C382.654 79.2068 382.932 78.3268 383.486 77.6654C384.052 77.0041 384.846 76.6734 385.87 76.6734C386.414 76.6734 386.91 76.7854 387.358 77.0094C387.817 77.2228 388.18 77.5534 388.446 78.0014C388.724 78.4388 388.862 79.0041 388.862 79.6974C388.862 80.1454 388.798 80.6574 388.67 81.2334H383.95V81.2654C383.95 82.0761 384.116 82.6894 384.446 83.1054C384.788 83.5214 385.332 83.7294 386.078 83.7294C386.42 83.7294 386.793 83.6868 387.198 83.6014C387.614 83.5161 388.02 83.3828 388.414 83.2014L388.814 84.2894ZM385.87 77.8254C385.252 77.8254 384.782 78.0281 384.462 78.4334C384.153 78.8281 383.982 79.3881 383.95 80.1134H387.534C387.566 79.9214 387.582 79.7401 387.582 79.5694C387.582 78.9721 387.412 78.5348 387.07 78.2574C386.74 77.9694 386.34 77.8254 385.87 77.8254ZM395.949 84.7534V83.6494C395.458 84.1188 395.01 84.4494 394.605 84.6414C394.21 84.8228 393.799 84.9134 393.373 84.9134C392.53 84.9134 391.879 84.5934 391.421 83.9534C390.973 83.3134 390.749 82.4174 390.749 81.2654V80.3374C390.749 79.2174 391.026 78.3268 391.581 77.6654C392.146 77.0041 392.962 76.6734 394.029 76.6734C394.338 76.6734 394.647 76.7054 394.957 76.7694C395.266 76.8334 395.575 76.9241 395.885 77.0414V72.9134H397.197V84.7534H395.949ZM392.109 81.2654C392.109 82.0974 392.237 82.7108 392.493 83.1054C392.759 83.4894 393.154 83.6814 393.677 83.6814C393.986 83.6814 394.306 83.6068 394.637 83.4574C394.967 83.2974 395.383 82.9721 395.885 82.4814V78.2574C395.575 78.1188 395.277 78.0228 394.989 77.9694C394.701 77.9054 394.418 77.8734 394.141 77.8734C393.415 77.8734 392.893 78.0921 392.573 78.5294C392.263 78.9668 392.109 79.5694 392.109 80.3374V81.2654ZM401.959 83.7454C403.026 83.7454 403.559 83.3828 403.559 82.6574C403.559 82.3481 403.463 82.1028 403.271 81.9214C403.079 81.7401 402.727 81.5854 402.215 81.4574L401.335 81.2334C400.685 81.0734 400.199 80.7961 399.879 80.4014C399.559 79.9961 399.399 79.5161 399.399 78.9614C399.399 78.5561 399.49 78.1828 399.671 77.8414C399.853 77.4894 400.141 77.2068 400.535 76.9934C400.93 76.7801 401.442 76.6734 402.071 76.6734C402.477 76.6734 402.887 76.7214 403.303 76.8174C403.73 76.9028 404.162 77.0521 404.599 77.2654L404.183 78.3694C403.405 78.0174 402.701 77.8414 402.071 77.8414C401.143 77.8414 400.679 78.1881 400.679 78.8814C400.679 79.1481 400.765 79.3774 400.935 79.5694C401.106 79.7614 401.426 79.9161 401.895 80.0334L402.775 80.2574C403.479 80.4281 403.997 80.7054 404.327 81.0894C404.658 81.4734 404.823 81.9694 404.823 82.5774C404.823 83.0148 404.727 83.4148 404.535 83.7774C404.354 84.1294 404.055 84.4068 403.639 84.6094C403.234 84.8121 402.685 84.9134 401.991 84.9134C401.533 84.9134 401.074 84.8654 400.615 84.7694C400.167 84.6734 399.703 84.5188 399.223 84.3054L399.575 83.2174C400.034 83.3988 400.45 83.5321 400.823 83.6174C401.197 83.7028 401.575 83.7454 401.959 83.7454ZM411.326 80.3214V81.2654C411.326 82.0761 411.476 82.6894 411.774 83.1054C412.073 83.5108 412.548 83.7134 413.198 83.7134C413.838 83.7134 414.526 83.5481 415.262 83.2174L415.662 84.3214C414.788 84.7161 413.94 84.9134 413.118 84.9134C412.094 84.9134 411.316 84.5881 410.782 83.9374C410.249 83.2868 409.982 82.3961 409.982 81.2654V80.3214C409.982 79.1908 410.249 78.3001 410.782 77.6494C411.316 76.9988 412.094 76.6734 413.118 76.6734C413.502 76.6734 413.897 76.7268 414.302 76.8334C414.718 76.9294 415.134 77.0681 415.55 77.2494L415.15 78.3694C414.798 78.2201 414.457 78.1028 414.126 78.0174C413.806 77.9321 413.497 77.8894 413.198 77.8894C412.548 77.8894 412.073 78.0974 411.774 78.5134C411.476 78.9188 411.326 79.5214 411.326 80.3214ZM417.57 82.8334V72.9134H418.882V82.7694C418.882 83.0574 418.925 83.2761 419.01 83.4254C419.106 83.5641 419.293 83.6334 419.57 83.6334H419.826V84.8334H419.458C418.754 84.8334 418.263 84.6468 417.986 84.2734C417.709 83.9001 417.57 83.4201 417.57 82.8334ZM427.549 84.2894C427.069 84.5241 426.589 84.6841 426.109 84.7694C425.629 84.8654 425.186 84.9134 424.781 84.9134C423.639 84.9134 422.786 84.5881 422.221 83.9374C421.666 83.2868 421.389 82.3961 421.389 81.2654V80.3054C421.389 79.2068 421.666 78.3268 422.221 77.6654C422.786 77.0041 423.581 76.6734 424.605 76.6734C425.149 76.6734 425.645 76.7854 426.093 77.0094C426.551 77.2228 426.914 77.5534 427.181 78.0014C427.458 78.4388 427.597 79.0041 427.597 79.6974C427.597 80.1454 427.533 80.6574 427.405 81.2334H422.685V81.2654C422.685 82.0761 422.85 82.6894 423.181 83.1054C423.522 83.5214 424.066 83.7294 424.813 83.7294C425.154 83.7294 425.527 83.6868 425.933 83.6014C426.349 83.5161 426.754 83.3828 427.149 83.2014L427.549 84.2894ZM424.605 77.8254C423.986 77.8254 423.517 78.0281 423.197 78.4334C422.887 78.8281 422.717 79.3881 422.685 80.1134H426.269C426.301 79.9214 426.317 79.7401 426.317 79.5694C426.317 78.9721 426.146 78.5348 425.805 78.2574C425.474 77.9694 425.074 77.8254 424.605 77.8254ZM435.659 84.8334C435.168 84.8334 434.774 84.7214 434.475 84.4974C434.187 84.2734 433.984 83.9961 433.867 83.6654C433.344 84.1241 432.87 84.4494 432.443 84.6414C432.016 84.8228 431.59 84.9134 431.163 84.9134C430.47 84.9134 429.958 84.6894 429.627 84.2414C429.296 83.7934 429.131 83.2441 429.131 82.5934C429.131 82.1561 429.211 81.7668 429.371 81.4254C429.531 81.0841 429.803 80.8174 430.187 80.6254C430.571 80.4228 431.088 80.3214 431.739 80.3214C432.027 80.3214 432.342 80.3428 432.683 80.3854C433.024 80.4174 433.371 80.4601 433.723 80.5134V79.4414C433.723 78.8441 433.59 78.4388 433.323 78.2254C433.067 78.0014 432.688 77.8894 432.187 77.8894C431.504 77.8894 430.742 78.0761 429.899 78.4494L429.483 77.3614C429.974 77.1374 430.443 76.9668 430.891 76.8494C431.339 76.7321 431.792 76.6734 432.251 76.6734C432.998 76.6734 433.568 76.7961 433.963 77.0414C434.358 77.2868 434.63 77.6121 434.779 78.0174C434.928 78.4228 435.003 78.8654 435.003 79.3454V82.7694C435.003 83.0148 435.051 83.2228 435.147 83.3934C435.243 83.5534 435.435 83.6334 435.723 83.6334H435.899V84.8334H435.659ZM430.427 82.5774C430.427 82.9401 430.512 83.2334 430.683 83.4574C430.854 83.6814 431.099 83.7934 431.419 83.7934C431.696 83.7934 432.016 83.7134 432.379 83.5534C432.742 83.3828 433.19 83.0468 433.723 82.5454V81.5374C432.998 81.4201 432.358 81.3614 431.803 81.3614C431.312 81.3614 430.96 81.4628 430.747 81.6654C430.534 81.8681 430.427 82.1721 430.427 82.5774ZM441.918 77.9854C441.438 77.9854 440.968 78.0708 440.51 78.2414C440.062 78.4121 439.582 78.7374 439.07 79.2174V84.7534H437.758V76.8334H439.006V78.1134C439.55 77.5801 440.046 77.2068 440.494 76.9934C440.952 76.7801 441.427 76.6734 441.918 76.6734V77.9854ZM447.101 82.8334V72.9134H448.413V82.7694C448.413 83.0574 448.456 83.2761 448.541 83.4254C448.637 83.5641 448.824 83.6334 449.101 83.6334H449.357V84.8334H448.989C448.285 84.8334 447.794 84.6468 447.517 84.2734C447.24 83.9001 447.101 83.4201 447.101 82.8334ZM457.08 84.2894C456.6 84.5241 456.12 84.6841 455.64 84.7694C455.16 84.8654 454.717 84.9134 454.312 84.9134C453.171 84.9134 452.317 84.5881 451.752 83.9374C451.197 83.2868 450.92 82.3961 450.92 81.2654V80.3054C450.92 79.2068 451.197 78.3268 451.752 77.6654C452.317 77.0041 453.112 76.6734 454.136 76.6734C454.68 76.6734 455.176 76.7854 455.624 77.0094C456.083 77.2228 456.445 77.5534 456.712 78.0014C456.989 78.4388 457.128 79.0041 457.128 79.6974C457.128 80.1454 457.064 80.6574 456.936 81.2334H452.216V81.2654C452.216 82.0761 452.381 82.6894 452.712 83.1054C453.053 83.5214 453.597 83.7294 454.344 83.7294C454.685 83.7294 455.059 83.6868 455.464 83.6014C455.88 83.5161 456.285 83.3828 456.68 83.2014L457.08 84.2894ZM454.136 77.8254C453.517 77.8254 453.048 78.0281 452.728 78.4334C452.419 78.8281 452.248 79.3881 452.216 80.1134H455.8C455.832 79.9214 455.848 79.7401 455.848 79.5694C455.848 78.9721 455.677 78.5348 455.336 78.2574C455.005 77.9694 454.605 77.8254 454.136 77.8254ZM461.334 83.7454C462.401 83.7454 462.934 83.3828 462.934 82.6574C462.934 82.3481 462.838 82.1028 462.646 81.9214C462.454 81.7401 462.102 81.5854 461.59 81.4574L460.71 81.2334C460.06 81.0734 459.574 80.7961 459.254 80.4014C458.934 79.9961 458.774 79.5161 458.774 78.9614C458.774 78.5561 458.865 78.1828 459.046 77.8414C459.228 77.4894 459.516 77.2068 459.91 76.9934C460.305 76.7801 460.817 76.6734 461.446 76.6734C461.852 76.6734 462.262 76.7214 462.678 76.8174C463.105 76.9028 463.537 77.0521 463.974 77.2654L463.558 78.3694C462.78 78.0174 462.076 77.8414 461.446 77.8414C460.518 77.8414 460.054 78.1881 460.054 78.8814C460.054 79.1481 460.14 79.3774 460.31 79.5694C460.481 79.7614 460.801 79.9161 461.27 80.0334L462.15 80.2574C462.854 80.4281 463.372 80.7054 463.702 81.0894C464.033 81.4734 464.198 81.9694 464.198 82.5774C464.198 83.0148 464.102 83.4148 463.91 83.7774C463.729 84.1294 463.43 84.4068 463.014 84.6094C462.609 84.8121 462.06 84.9134 461.366 84.9134C460.908 84.9134 460.449 84.8654 459.99 84.7694C459.542 84.6734 459.078 84.5188 458.598 84.3054L458.95 83.2174C459.409 83.3988 459.825 83.5321 460.198 83.6174C460.572 83.7028 460.95 83.7454 461.334 83.7454ZM468.225 83.7454C469.292 83.7454 469.825 83.3828 469.825 82.6574C469.825 82.3481 469.729 82.1028 469.537 81.9214C469.345 81.7401 468.993 81.5854 468.481 81.4574L467.601 81.2334C466.95 81.0734 466.465 80.7961 466.145 80.4014C465.825 79.9961 465.665 79.5161 465.665 78.9614C465.665 78.5561 465.756 78.1828 465.937 77.8414C466.118 77.4894 466.406 77.2068 466.801 76.9934C467.196 76.7801 467.708 76.6734 468.337 76.6734C468.742 76.6734 469.153 76.7214 469.569 76.8174C469.996 76.9028 470.428 77.0521 470.865 77.2654L470.449 78.3694C469.67 78.0174 468.966 77.8414 468.337 77.8414C467.409 77.8414 466.945 78.1881 466.945 78.8814C466.945 79.1481 467.03 79.3774 467.201 79.5694C467.372 79.7614 467.692 79.9161 468.161 80.0334L469.041 80.2574C469.745 80.4281 470.262 80.7054 470.593 81.0894C470.924 81.4734 471.089 81.9694 471.089 82.5774C471.089 83.0148 470.993 83.4148 470.801 83.7774C470.62 84.1294 470.321 84.4068 469.905 84.6094C469.5 84.8121 468.95 84.9134 468.257 84.9134C467.798 84.9134 467.34 84.8654 466.881 84.7694C466.433 84.6734 465.969 84.5188 465.489 84.3054L465.841 83.2174C466.3 83.3988 466.716 83.5321 467.089 83.6174C467.462 83.7028 467.841 83.7454 468.225 83.7454ZM479.452 80.3054V81.2654C479.452 82.3961 479.158 83.2868 478.572 83.9374C477.996 84.5881 477.169 84.9134 476.092 84.9134C475.025 84.9134 474.198 84.5881 473.612 83.9374C473.025 83.2868 472.732 82.3961 472.732 81.2654V80.3054C472.732 79.1961 473.02 78.3161 473.596 77.6654C474.182 77.0041 475.014 76.6734 476.092 76.6734C477.169 76.6734 477.996 77.0041 478.572 77.6654C479.158 78.3161 479.452 79.1961 479.452 80.3054ZM478.092 80.3054C478.092 79.5481 477.921 78.9561 477.58 78.5294C477.238 78.0921 476.742 77.8734 476.092 77.8734C475.452 77.8734 474.956 78.0921 474.604 78.5294C474.262 78.9561 474.092 79.5481 474.092 80.3054V81.2654C474.092 82.0548 474.262 82.6628 474.604 83.0894C474.956 83.5161 475.452 83.7294 476.092 83.7294C476.742 83.7294 477.238 83.5161 477.58 83.0894C477.921 82.6628 478.092 82.0548 478.092 81.2654V80.3054ZM485.644 77.9054C485.345 77.9054 484.993 77.9801 484.588 78.1294C484.193 78.2788 483.713 78.5828 483.148 79.0414V84.7534H481.836V76.8334H483.084V77.9374C483.649 77.4574 484.161 77.1268 484.62 76.9454C485.089 76.7641 485.537 76.6734 485.964 76.6734C486.7 76.6734 487.26 76.9081 487.644 77.3774C488.039 77.8361 488.236 78.4921 488.236 79.3454V84.7534H486.924V79.5374C486.924 78.4494 486.497 77.9054 485.644 77.9054ZM125.766 104.745C125.766 105.524 125.446 106.148 124.806 106.617C124.176 107.087 123.307 107.321 122.198 107.321C121.643 107.321 121.062 107.247 120.454 107.097C119.856 106.948 119.291 106.708 118.758 106.377L119.206 105.353C119.739 105.652 120.251 105.86 120.742 105.977C121.243 106.105 121.728 106.169 122.198 106.169C122.923 106.169 123.483 106.052 123.878 105.817C124.272 105.583 124.47 105.268 124.47 104.873C124.47 104.585 124.374 104.361 124.182 104.201C123.99 104.052 123.68 103.977 123.254 103.977H121.414C120.72 103.977 120.219 103.812 119.91 103.481C119.6 103.151 119.446 102.788 119.446 102.393C119.446 102.116 119.51 101.844 119.638 101.577C119.766 101.3 119.947 101.028 120.182 100.761C119.808 100.537 119.51 100.233 119.286 99.8494C119.062 99.4548 118.95 98.9801 118.95 98.4254C118.95 97.8174 119.078 97.3108 119.334 96.9054C119.6 96.5001 119.952 96.1961 120.39 95.9934C120.827 95.7801 121.318 95.6734 121.862 95.6734H122.134C122.507 95.6734 122.848 95.7268 123.158 95.8334H126.006V97.0014L124.278 96.7614C124.502 96.9534 124.683 97.1934 124.822 97.4814C124.96 97.7588 125.03 98.1001 125.03 98.5054C125.03 99.0814 124.896 99.5668 124.63 99.9614C124.374 100.356 124.027 100.66 123.59 100.873C123.152 101.076 122.667 101.177 122.134 101.177H121.862C121.723 101.177 121.59 101.172 121.462 101.161C121.334 101.14 121.206 101.119 121.078 101.097C120.768 101.439 120.614 101.775 120.614 102.105C120.614 102.532 120.912 102.745 121.51 102.745H123.302C124.07 102.745 124.672 102.916 125.11 103.257C125.547 103.599 125.766 104.095 125.766 104.745ZM122.134 100.041C122.55 100.041 122.918 99.9081 123.238 99.6414C123.558 99.3748 123.718 98.9694 123.718 98.4254C123.718 97.8921 123.558 97.4921 123.238 97.2254C122.918 96.9481 122.55 96.8094 122.134 96.8094H121.862C121.435 96.8094 121.062 96.9481 120.742 97.2254C120.422 97.4921 120.262 97.8921 120.262 98.4254C120.262 98.9694 120.422 99.3748 120.742 99.6414C121.062 99.9081 121.435 100.041 121.862 100.041H122.134ZM134.014 99.3054V100.265C134.014 101.396 133.721 102.287 133.134 102.937C132.558 103.588 131.731 103.913 130.654 103.913C129.587 103.913 128.761 103.588 128.174 102.937C127.587 102.287 127.294 101.396 127.294 100.265V99.3054C127.294 98.1961 127.582 97.3161 128.158 96.6654C128.745 96.0041 129.577 95.6734 130.654 95.6734C131.731 95.6734 132.558 96.0041 133.134 96.6654C133.721 97.3161 134.014 98.1961 134.014 99.3054ZM132.654 99.3054C132.654 98.5481 132.483 97.9561 132.142 97.5294C131.801 97.0921 131.305 96.8734 130.654 96.8734C130.014 96.8734 129.518 97.0921 129.166 97.5294C128.825 97.9561 128.654 98.5481 128.654 99.3054V100.265C128.654 101.055 128.825 101.663 129.166 102.089C129.518 102.516 130.014 102.729 130.654 102.729C131.305 102.729 131.801 102.516 132.142 102.089C132.483 101.663 132.654 101.055 132.654 100.265V99.3054ZM142.19 103.833C141.7 103.833 141.305 103.721 141.006 103.497C140.718 103.273 140.516 102.996 140.398 102.665C139.876 103.124 139.401 103.449 138.974 103.641C138.548 103.823 138.121 103.913 137.694 103.913C137.001 103.913 136.489 103.689 136.158 103.241C135.828 102.793 135.662 102.244 135.662 101.593C135.662 101.156 135.742 100.767 135.902 100.425C136.062 100.084 136.334 99.8174 136.718 99.6254C137.102 99.4228 137.62 99.3214 138.27 99.3214C138.558 99.3214 138.873 99.3428 139.214 99.3854C139.556 99.4174 139.902 99.4601 140.254 99.5134V98.4414C140.254 97.8441 140.121 97.4388 139.854 97.2254C139.598 97.0014 139.22 96.8894 138.718 96.8894C138.036 96.8894 137.273 97.0761 136.43 97.4494L136.014 96.3614C136.505 96.1374 136.974 95.9668 137.422 95.8494C137.87 95.7321 138.324 95.6734 138.782 95.6734C139.529 95.6734 140.1 95.7961 140.494 96.0414C140.889 96.2868 141.161 96.6121 141.31 97.0174C141.46 97.4228 141.534 97.8654 141.534 98.3454V101.769C141.534 102.015 141.582 102.223 141.678 102.393C141.774 102.553 141.966 102.633 142.254 102.633H142.43V103.833H142.19ZM136.958 101.577C136.958 101.94 137.044 102.233 137.214 102.457C137.385 102.681 137.63 102.793 137.95 102.793C138.228 102.793 138.548 102.713 138.91 102.553C139.273 102.383 139.721 102.047 140.254 101.545V100.537C139.529 100.42 138.889 100.361 138.334 100.361C137.844 100.361 137.492 100.463 137.278 100.665C137.065 100.868 136.958 101.172 136.958 101.577ZM144.273 101.833V91.9134H145.585V101.769C145.585 102.057 145.628 102.276 145.713 102.425C145.809 102.564 145.996 102.633 146.273 102.633H146.529V103.833H146.161C145.457 103.833 144.966 103.647 144.689 103.273C144.412 102.9 144.273 102.42 144.273 101.833ZM150.444 102.745C151.51 102.745 152.044 102.383 152.044 101.657C152.044 101.348 151.948 101.103 151.756 100.921C151.564 100.74 151.212 100.585 150.7 100.457L149.82 100.233C149.169 100.073 148.684 99.7961 148.364 99.4014C148.044 98.9961 147.884 98.5161 147.884 97.9614C147.884 97.5561 147.974 97.1828 148.156 96.8414C148.337 96.4894 148.625 96.2068 149.02 95.9934C149.414 95.7801 149.926 95.6734 150.556 95.6734C150.961 95.6734 151.372 95.7214 151.788 95.8174C152.214 95.9028 152.646 96.0521 153.084 96.2654L152.668 97.3694C151.889 97.0174 151.185 96.8414 150.556 96.8414C149.628 96.8414 149.164 97.1881 149.164 97.8814C149.164 98.1481 149.249 98.3774 149.42 98.5694C149.59 98.7614 149.91 98.9161 150.38 99.0334L151.26 99.2574C151.964 99.4281 152.481 99.7054 152.812 100.089C153.142 100.473 153.308 100.969 153.308 101.577C153.308 102.015 153.212 102.415 153.02 102.777C152.838 103.129 152.54 103.407 152.124 103.609C151.718 103.812 151.169 103.913 150.476 103.913C150.017 103.913 149.558 103.865 149.1 103.769C148.652 103.673 148.188 103.519 147.708 103.305L148.06 102.217C148.518 102.399 148.934 102.532 149.308 102.617C149.681 102.703 150.06 102.745 150.444 102.745ZM156.182 102.297V102.601C156.182 103.38 156.086 104.121 155.894 104.825C155.702 105.529 155.356 106.281 154.854 107.081L153.99 106.601C154.257 106.089 154.449 105.62 154.566 105.193C154.694 104.777 154.774 104.34 154.806 103.881C154.849 103.433 154.87 102.905 154.87 102.297H156.182ZM168.233 99.3054V100.265C168.233 101.396 167.94 102.287 167.353 102.937C166.777 103.588 165.95 103.913 164.873 103.913C163.806 103.913 162.98 103.588 162.393 102.937C161.806 102.287 161.513 101.396 161.513 100.265V99.3054C161.513 98.1961 161.801 97.3161 162.377 96.6654C162.964 96.0041 163.796 95.6734 164.873 95.6734C165.95 95.6734 166.777 96.0041 167.353 96.6654C167.94 97.3161 168.233 98.1961 168.233 99.3054ZM166.873 99.3054C166.873 98.5481 166.702 97.9561 166.361 97.5294C166.02 97.0921 165.524 96.8734 164.873 96.8734C164.233 96.8734 163.737 97.0921 163.385 97.5294C163.044 97.9561 162.873 98.5481 162.873 99.3054V100.265C162.873 101.055 163.044 101.663 163.385 102.089C163.737 102.516 164.233 102.729 164.873 102.729C165.524 102.729 166.02 102.516 166.361 102.089C166.702 101.663 166.873 101.055 166.873 100.265V99.3054ZM177.017 100.265C177.017 101.375 176.74 102.26 176.185 102.921C175.63 103.583 174.814 103.913 173.737 103.913C172.67 103.913 171.614 103.631 170.569 103.065V91.9134H171.881V96.9054C172.361 96.4574 172.798 96.1428 173.193 95.9614C173.598 95.7694 174.009 95.6734 174.425 95.6734C175.257 95.6734 175.897 95.9934 176.345 96.6334C176.793 97.2734 177.017 98.1748 177.017 99.3374V100.265ZM174.105 96.9054C173.806 96.9054 173.486 96.9854 173.145 97.1454C172.814 97.3054 172.393 97.6361 171.881 98.1374V102.329C172.51 102.596 173.102 102.729 173.657 102.729C174.372 102.729 174.884 102.511 175.193 102.073C175.502 101.625 175.657 101.023 175.657 100.265V99.3374C175.657 98.5054 175.529 97.8921 175.273 97.4974C175.017 97.1028 174.628 96.9054 174.105 96.9054ZM185.081 95.8334L182.281 103.753H181.049L178.217 95.8334H179.577L180.905 99.6894L181.705 102.105L182.489 99.6894L183.785 95.8334H185.081ZM188.228 93.8974H186.756V92.4254H188.228V93.8974ZM188.148 103.753H186.836V95.8334H188.148V103.753ZM197.248 99.3054V100.265C197.248 101.396 196.955 102.287 196.368 102.937C195.792 103.588 194.966 103.913 193.888 103.913C192.822 103.913 191.995 103.588 191.408 102.937C190.822 102.287 190.528 101.396 190.528 100.265V99.3054C190.528 98.1961 190.816 97.3161 191.392 96.6654C191.979 96.0041 192.811 95.6734 193.888 95.6734C194.966 95.6734 195.792 96.0041 196.368 96.6654C196.955 97.3161 197.248 98.1961 197.248 99.3054ZM195.888 99.3054C195.888 98.5481 195.718 97.9561 195.376 97.5294C195.035 97.0921 194.539 96.8734 193.888 96.8734C193.248 96.8734 192.752 97.0921 192.4 97.5294C192.059 97.9561 191.888 98.5481 191.888 99.3054V100.265C191.888 101.055 192.059 101.663 192.4 102.089C192.752 102.516 193.248 102.729 193.888 102.729C194.539 102.729 195.035 102.516 195.376 102.089C195.718 101.663 195.888 101.055 195.888 100.265V99.3054ZM204.513 103.753V102.633C203.958 103.113 203.462 103.449 203.025 103.641C202.587 103.823 202.15 103.913 201.713 103.913C201.009 103.913 200.47 103.684 200.097 103.225C199.723 102.756 199.537 102.1 199.537 101.257V95.8334H200.849V101.065C200.849 101.62 200.945 102.031 201.137 102.297C201.339 102.553 201.638 102.681 202.033 102.681C202.331 102.681 202.667 102.607 203.041 102.457C203.414 102.308 203.878 102.009 204.433 101.561V95.8334H205.745V103.753H204.513ZM210.506 102.745C211.573 102.745 212.106 102.383 212.106 101.657C212.106 101.348 212.01 101.103 211.818 100.921C211.626 100.74 211.274 100.585 210.762 100.457L209.882 100.233C209.232 100.073 208.746 99.7961 208.426 99.4014C208.106 98.9961 207.946 98.5161 207.946 97.9614C207.946 97.5561 208.037 97.1828 208.218 96.8414C208.4 96.4894 208.688 96.2068 209.082 95.9934C209.477 95.7801 209.989 95.6734 210.618 95.6734C211.024 95.6734 211.434 95.7214 211.85 95.8174C212.277 95.9028 212.709 96.0521 213.146 96.2654L212.73 97.3694C211.952 97.0174 211.248 96.8414 210.618 96.8414C209.69 96.8414 209.226 97.1881 209.226 97.8814C209.226 98.1481 209.312 98.3774 209.482 98.5694C209.653 98.7614 209.973 98.9161 210.442 99.0334L211.322 99.2574C212.026 99.4281 212.544 99.7054 212.874 100.089C213.205 100.473 213.37 100.969 213.37 101.577C213.37 102.015 213.274 102.415 213.082 102.777C212.901 103.129 212.602 103.407 212.186 103.609C211.781 103.812 211.232 103.913 210.538 103.913C210.08 103.913 209.621 103.865 209.162 103.769C208.714 103.673 208.25 103.519 207.77 103.305L208.122 102.217C208.581 102.399 208.997 102.532 209.37 102.617C209.744 102.703 210.122 102.745 210.506 102.745ZM222.753 96.9054C222.455 96.9054 222.103 96.9801 221.697 97.1294C221.303 97.2788 220.823 97.5828 220.257 98.0414V103.753H218.945V95.8334H220.193V96.9374C220.759 96.4574 221.271 96.1268 221.729 95.9454C222.199 95.7641 222.647 95.6734 223.073 95.6734C223.809 95.6734 224.369 95.9081 224.753 96.3774C225.148 96.8361 225.345 97.4921 225.345 98.3454V103.753H224.033V98.5374C224.033 97.4494 223.607 96.9054 222.753 96.9054ZM233.878 103.833C233.387 103.833 232.993 103.721 232.694 103.497C232.406 103.273 232.203 102.996 232.086 102.665C231.563 103.124 231.089 103.449 230.662 103.641C230.235 103.823 229.809 103.913 229.382 103.913C228.689 103.913 228.177 103.689 227.846 103.241C227.515 102.793 227.35 102.244 227.35 101.593C227.35 101.156 227.43 100.767 227.59 100.425C227.75 100.084 228.022 99.8174 228.406 99.6254C228.79 99.4228 229.307 99.3214 229.958 99.3214C230.246 99.3214 230.561 99.3428 230.902 99.3854C231.243 99.4174 231.59 99.4601 231.942 99.5134V98.4414C231.942 97.8441 231.809 97.4388 231.542 97.2254C231.286 97.0014 230.907 96.8894 230.406 96.8894C229.723 96.8894 228.961 97.0761 228.118 97.4494L227.702 96.3614C228.193 96.1374 228.662 95.9668 229.11 95.8494C229.558 95.7321 230.011 95.6734 230.47 95.6734C231.217 95.6734 231.787 95.7961 232.182 96.0414C232.577 96.2868 232.849 96.6121 232.998 97.0174C233.147 97.4228 233.222 97.8654 233.222 98.3454V101.769C233.222 102.015 233.27 102.223 233.366 102.393C233.462 102.553 233.654 102.633 233.942 102.633H234.118V103.833H233.878ZM228.646 101.577C228.646 101.94 228.731 102.233 228.902 102.457C229.073 102.681 229.318 102.793 229.638 102.793C229.915 102.793 230.235 102.713 230.598 102.553C230.961 102.383 231.409 102.047 231.942 101.545V100.537C231.217 100.42 230.577 100.361 230.022 100.361C229.531 100.361 229.179 100.463 228.966 100.665C228.753 100.868 228.646 101.172 228.646 101.577ZM241.581 95.8334L238.781 103.753H237.549L234.717 95.8334H236.077L237.405 99.6894L238.205 102.105L238.989 99.6894L240.285 95.8334H241.581ZM244.728 93.8974H243.256V92.4254H244.728V93.8974ZM244.648 103.753H243.336V95.8334H244.648V103.753ZM253.812 104.745C253.812 105.524 253.492 106.148 252.852 106.617C252.223 107.087 251.354 107.321 250.244 107.321C249.69 107.321 249.108 107.247 248.5 107.097C247.903 106.948 247.338 106.708 246.804 106.377L247.252 105.353C247.786 105.652 248.298 105.86 248.788 105.977C249.29 106.105 249.775 106.169 250.244 106.169C250.97 106.169 251.53 106.052 251.924 105.817C252.319 105.583 252.516 105.268 252.516 104.873C252.516 104.585 252.42 104.361 252.228 104.201C252.036 104.052 251.727 103.977 251.3 103.977H249.46C248.767 103.977 248.266 103.812 247.956 103.481C247.647 103.151 247.492 102.788 247.492 102.393C247.492 102.116 247.556 101.844 247.684 101.577C247.812 101.3 247.994 101.028 248.228 100.761C247.855 100.537 247.556 100.233 247.332 99.8494C247.108 99.4548 246.996 98.9801 246.996 98.4254C246.996 97.8174 247.124 97.3108 247.38 96.9054C247.647 96.5001 247.999 96.1961 248.436 95.9934C248.874 95.7801 249.364 95.6734 249.908 95.6734H250.18C250.554 95.6734 250.895 95.7268 251.204 95.8334H254.052V97.0014L252.324 96.7614C252.548 96.9534 252.73 97.1934 252.868 97.4814C253.007 97.7588 253.076 98.1001 253.076 98.5054C253.076 99.0814 252.943 99.5668 252.676 99.9614C252.42 100.356 252.074 100.66 251.636 100.873C251.199 101.076 250.714 101.177 250.18 101.177H249.908C249.77 101.177 249.636 101.172 249.508 101.161C249.38 101.14 249.252 101.119 249.124 101.097C248.815 101.439 248.66 101.775 248.66 102.105C248.66 102.532 248.959 102.745 249.556 102.745H251.348C252.116 102.745 252.719 102.916 253.156 103.257C253.594 103.599 253.812 104.095 253.812 104.745ZM250.18 100.041C250.596 100.041 250.964 99.9081 251.284 99.6414C251.604 99.3748 251.764 98.9694 251.764 98.4254C251.764 97.8921 251.604 97.4921 251.284 97.2254C250.964 96.9481 250.596 96.8094 250.18 96.8094H249.908C249.482 96.8094 249.108 96.9481 248.788 97.2254C248.468 97.4921 248.308 97.8921 248.308 98.4254C248.308 98.9694 248.468 99.3748 248.788 99.6414C249.108 99.9081 249.482 100.041 249.908 100.041H250.18ZM261.581 103.833C261.09 103.833 260.696 103.721 260.397 103.497C260.109 103.273 259.906 102.996 259.789 102.665C259.266 103.124 258.792 103.449 258.365 103.641C257.938 103.823 257.512 103.913 257.085 103.913C256.392 103.913 255.88 103.689 255.549 103.241C255.218 102.793 255.053 102.244 255.053 101.593C255.053 101.156 255.133 100.767 255.293 100.425C255.453 100.084 255.725 99.8174 256.109 99.6254C256.493 99.4228 257.01 99.3214 257.661 99.3214C257.949 99.3214 258.264 99.3428 258.605 99.3854C258.946 99.4174 259.293 99.4601 259.645 99.5134V98.4414C259.645 97.8441 259.512 97.4388 259.245 97.2254C258.989 97.0014 258.61 96.8894 258.109 96.8894C257.426 96.8894 256.664 97.0761 255.821 97.4494L255.405 96.3614C255.896 96.1374 256.365 95.9668 256.813 95.8494C257.261 95.7321 257.714 95.6734 258.173 95.6734C258.92 95.6734 259.49 95.7961 259.885 96.0414C260.28 96.2868 260.552 96.6121 260.701 97.0174C260.85 97.4228 260.925 97.8654 260.925 98.3454V101.769C260.925 102.015 260.973 102.223 261.069 102.393C261.165 102.553 261.357 102.633 261.645 102.633H261.821V103.833H261.581ZM256.349 101.577C256.349 101.94 256.434 102.233 256.605 102.457C256.776 102.681 257.021 102.793 257.341 102.793C257.618 102.793 257.938 102.713 258.301 102.553C258.664 102.383 259.112 102.047 259.645 101.545V100.537C258.92 100.42 258.28 100.361 257.725 100.361C257.234 100.361 256.882 100.463 256.669 100.665C256.456 100.868 256.349 101.172 256.349 101.577ZM268.032 103.465C267.434 103.764 266.8 103.913 266.128 103.913C265.552 103.913 265.098 103.796 264.768 103.561C264.448 103.327 264.218 103.012 264.08 102.617C263.952 102.223 263.888 101.785 263.888 101.305V96.9854H262.512V95.8334H263.888V93.6254H265.2V95.8334H267.792V96.9854H265.2V101.257C265.2 101.812 265.29 102.196 265.472 102.409C265.664 102.612 265.957 102.713 266.352 102.713C266.544 102.713 266.741 102.692 266.944 102.649C267.157 102.596 267.386 102.511 267.632 102.393L268.032 103.465ZM271.15 93.8974H269.678V92.4254H271.15V93.8974ZM271.07 103.753H269.758V95.8334H271.07V103.753ZM280.17 99.3054V100.265C280.17 101.396 279.877 102.287 279.29 102.937C278.714 103.588 277.888 103.913 276.81 103.913C275.744 103.913 274.917 103.588 274.33 102.937C273.744 102.287 273.45 101.396 273.45 100.265V99.3054C273.45 98.1961 273.738 97.3161 274.314 96.6654C274.901 96.0041 275.733 95.6734 276.81 95.6734C277.888 95.6734 278.714 96.0041 279.29 96.6654C279.877 97.3161 280.17 98.1961 280.17 99.3054ZM278.81 99.3054C278.81 98.5481 278.64 97.9561 278.298 97.5294C277.957 97.0921 277.461 96.8734 276.81 96.8734C276.17 96.8734 275.674 97.0921 275.322 97.5294C274.981 97.9561 274.81 98.5481 274.81 99.3054V100.265C274.81 101.055 274.981 101.663 275.322 102.089C275.674 102.516 276.17 102.729 276.81 102.729C277.461 102.729 277.957 102.516 278.298 102.089C278.64 101.663 278.81 101.055 278.81 100.265V99.3054ZM286.363 96.9054C286.064 96.9054 285.712 96.9801 285.307 97.1294C284.912 97.2788 284.432 97.5828 283.867 98.0414V103.753H282.555V95.8334H283.803V96.9374C284.368 96.4574 284.88 96.1268 285.339 95.9454C285.808 95.7641 286.256 95.6734 286.683 95.6734C287.419 95.6734 287.979 95.9081 288.363 96.3774C288.757 96.8361 288.955 97.4921 288.955 98.3454V103.753H287.643V98.5374C287.643 97.4494 287.216 96.9054 286.363 96.9054ZM292.448 102.297V102.601C292.448 103.38 292.352 104.121 292.16 104.825C291.968 105.529 291.621 106.281 291.12 107.081L290.256 106.601C290.523 106.089 290.715 105.62 290.832 105.193C290.96 104.777 291.04 104.34 291.072 103.881C291.115 103.433 291.136 102.905 291.136 102.297H292.448ZM304.018 103.833C303.528 103.833 303.133 103.721 302.834 103.497C302.546 103.273 302.344 102.996 302.226 102.665C301.704 103.124 301.229 103.449 300.802 103.641C300.376 103.823 299.949 103.913 299.522 103.913C298.829 103.913 298.317 103.689 297.986 103.241C297.656 102.793 297.49 102.244 297.49 101.593C297.49 101.156 297.57 100.767 297.73 100.425C297.89 100.084 298.162 99.8174 298.546 99.6254C298.93 99.4228 299.448 99.3214 300.098 99.3214C300.386 99.3214 300.701 99.3428 301.042 99.3854C301.384 99.4174 301.73 99.4601 302.082 99.5134V98.4414C302.082 97.8441 301.949 97.4388 301.682 97.2254C301.426 97.0014 301.048 96.8894 300.546 96.8894C299.864 96.8894 299.101 97.0761 298.258 97.4494L297.842 96.3614C298.333 96.1374 298.802 95.9668 299.25 95.8494C299.698 95.7321 300.152 95.6734 300.61 95.6734C301.357 95.6734 301.928 95.7961 302.322 96.0414C302.717 96.2868 302.989 96.6121 303.138 97.0174C303.288 97.4228 303.362 97.8654 303.362 98.3454V101.769C303.362 102.015 303.41 102.223 303.506 102.393C303.602 102.553 303.794 102.633 304.082 102.633H304.258V103.833H304.018ZM298.786 101.577C298.786 101.94 298.872 102.233 299.042 102.457C299.213 102.681 299.458 102.793 299.778 102.793C300.056 102.793 300.376 102.713 300.738 102.553C301.101 102.383 301.549 102.047 302.082 101.545V100.537C301.357 100.42 300.717 100.361 300.162 100.361C299.672 100.361 299.32 100.463 299.106 100.665C298.893 100.868 298.786 101.172 298.786 101.577ZM309.925 96.9054C309.626 96.9054 309.274 96.9801 308.869 97.1294C308.474 97.2788 307.994 97.5828 307.429 98.0414V103.753H306.117V95.8334H307.365V96.9374C307.93 96.4574 308.442 96.1268 308.901 95.9454C309.37 95.7641 309.818 95.6734 310.245 95.6734C310.981 95.6734 311.541 95.9081 311.925 96.3774C312.32 96.8361 312.517 97.4921 312.517 98.3454V103.753H311.205V98.5374C311.205 97.4494 310.778 96.9054 309.925 96.9054ZM320.074 103.753V102.649C319.583 103.119 319.135 103.449 318.73 103.641C318.335 103.823 317.924 103.913 317.498 103.913C316.655 103.913 316.004 103.593 315.546 102.953C315.098 102.313 314.874 101.417 314.874 100.265V99.3374C314.874 98.2174 315.151 97.3268 315.706 96.6654C316.271 96.0041 317.087 95.6734 318.154 95.6734C318.463 95.6734 318.772 95.7054 319.082 95.7694C319.391 95.8334 319.7 95.9241 320.01 96.0414V91.9134H321.322V103.753H320.074ZM316.234 100.265C316.234 101.097 316.362 101.711 316.618 102.105C316.884 102.489 317.279 102.681 317.802 102.681C318.111 102.681 318.431 102.607 318.762 102.457C319.092 102.297 319.508 101.972 320.01 101.481V97.2574C319.7 97.1188 319.402 97.0228 319.114 96.9694C318.826 96.9054 318.543 96.8734 318.266 96.8734C317.54 96.8734 317.018 97.0921 316.698 97.5294C316.388 97.9668 316.234 98.5694 316.234 99.3374V100.265ZM331.793 96.9854H329.201V103.753H327.889V96.9854H326.513V95.8334H327.889V94.5214C327.889 94.0308 327.969 93.5774 328.129 93.1614C328.299 92.7348 328.571 92.3934 328.945 92.1374C329.318 91.8814 329.814 91.7534 330.433 91.7534C330.742 91.7534 331.067 91.7908 331.409 91.8654C331.761 91.9294 332.086 92.0308 332.385 92.1694L332.017 93.2734C331.473 93.0601 330.998 92.9534 330.593 92.9534C330.145 92.9534 329.798 93.0761 329.553 93.3214C329.318 93.5668 329.201 93.9614 329.201 94.5054V95.8334H331.793V96.9854ZM339.018 103.833C338.528 103.833 338.133 103.721 337.834 103.497C337.546 103.273 337.344 102.996 337.226 102.665C336.704 103.124 336.229 103.449 335.802 103.641C335.376 103.823 334.949 103.913 334.522 103.913C333.829 103.913 333.317 103.689 332.986 103.241C332.656 102.793 332.49 102.244 332.49 101.593C332.49 101.156 332.57 100.767 332.73 100.425C332.89 100.084 333.162 99.8174 333.546 99.6254C333.93 99.4228 334.448 99.3214 335.098 99.3214C335.386 99.3214 335.701 99.3428 336.042 99.3854C336.384 99.4174 336.73 99.4601 337.082 99.5134V98.4414C337.082 97.8441 336.949 97.4388 336.682 97.2254C336.426 97.0014 336.048 96.8894 335.546 96.8894C334.864 96.8894 334.101 97.0761 333.258 97.4494L332.842 96.3614C333.333 96.1374 333.802 95.9668 334.25 95.8494C334.698 95.7321 335.152 95.6734 335.61 95.6734C336.357 95.6734 336.928 95.7961 337.322 96.0414C337.717 96.2868 337.989 96.6121 338.138 97.0174C338.288 97.4228 338.362 97.8654 338.362 98.3454V101.769C338.362 102.015 338.41 102.223 338.506 102.393C338.602 102.553 338.794 102.633 339.082 102.633H339.258V103.833H339.018ZM333.786 101.577C333.786 101.94 333.872 102.233 334.042 102.457C334.213 102.681 334.458 102.793 334.778 102.793C335.056 102.793 335.376 102.713 335.738 102.553C336.101 102.383 336.549 102.047 337.082 101.545V100.537C336.357 100.42 335.717 100.361 335.162 100.361C334.672 100.361 334.32 100.463 334.106 100.665C333.893 100.868 333.786 101.172 333.786 101.577ZM343.053 102.745C344.12 102.745 344.653 102.383 344.653 101.657C344.653 101.348 344.557 101.103 344.365 100.921C344.173 100.74 343.821 100.585 343.309 100.457L342.429 100.233C341.778 100.073 341.293 99.7961 340.973 99.4014C340.653 98.9961 340.493 98.5161 340.493 97.9614C340.493 97.5561 340.584 97.1828 340.765 96.8414C340.946 96.4894 341.234 96.2068 341.629 95.9934C342.024 95.7801 342.536 95.6734 343.165 95.6734C343.57 95.6734 343.981 95.7214 344.397 95.8174C344.824 95.9028 345.256 96.0521 345.693 96.2654L345.277 97.3694C344.498 97.0174 343.794 96.8414 343.165 96.8414C342.237 96.8414 341.773 97.1881 341.773 97.8814C341.773 98.1481 341.858 98.3774 342.029 98.5694C342.2 98.7614 342.52 98.9161 342.989 99.0334L343.869 99.2574C344.573 99.4281 345.09 99.7054 345.421 100.089C345.752 100.473 345.917 100.969 345.917 101.577C345.917 102.015 345.821 102.415 345.629 102.777C345.448 103.129 345.149 103.407 344.733 103.609C344.328 103.812 343.778 103.913 343.085 103.913C342.626 103.913 342.168 103.865 341.709 103.769C341.261 103.673 340.797 103.519 340.317 103.305L340.669 102.217C341.128 102.399 341.544 102.532 341.917 102.617C342.29 102.703 342.669 102.745 343.053 102.745ZM352.36 103.465C351.762 103.764 351.128 103.913 350.456 103.913C349.88 103.913 349.426 103.796 349.096 103.561C348.776 103.327 348.546 103.012 348.408 102.617C348.28 102.223 348.216 101.785 348.216 101.305V96.9854H346.84V95.8334H348.216V93.6254H349.528V95.8334H352.12V96.9854H349.528V101.257C349.528 101.812 349.618 102.196 349.8 102.409C349.992 102.612 350.285 102.713 350.68 102.713C350.872 102.713 351.069 102.692 351.272 102.649C351.485 102.596 351.714 102.511 351.96 102.393L352.36 103.465ZM367.122 95.8334L365.09 103.753H363.57L361.906 97.2574L360.194 103.753H358.674L356.658 95.8334H358.002L358.802 99.1454L359.522 102.425L361.234 95.8334H362.626L364.338 102.457L365.042 99.1614L365.826 95.8334H367.122ZM370.415 93.8974H368.943V92.4254H370.415V93.8974ZM370.335 103.753H369.023V95.8334H370.335V103.753ZM376.972 96.9054C376.673 96.9054 376.321 96.9801 375.916 97.1294C375.521 97.2788 375.041 97.5828 374.476 98.0414V103.753H373.164V95.8334H374.412V96.9374C374.977 96.4574 375.489 96.1268 375.948 95.9454C376.417 95.7641 376.865 95.6734 377.292 95.6734C378.028 95.6734 378.588 95.9081 378.972 96.3774C379.367 96.8361 379.564 97.4921 379.564 98.3454V103.753H378.252V98.5374C378.252 97.4494 377.825 96.9054 376.972 96.9054ZM384.241 102.745C385.307 102.745 385.841 102.383 385.841 101.657C385.841 101.348 385.745 101.103 385.553 100.921C385.361 100.74 385.009 100.585 384.497 100.457L383.617 100.233C382.966 100.073 382.481 99.7961 382.161 99.4014C381.841 98.9961 381.681 98.5161 381.681 97.9614C381.681 97.5561 381.771 97.1828 381.953 96.8414C382.134 96.4894 382.422 96.2068 382.817 95.9934C383.211 95.7801 383.723 95.6734 384.353 95.6734C384.758 95.6734 385.169 95.7214 385.585 95.8174C386.011 95.9028 386.443 96.0521 386.881 96.2654L386.465 97.3694C385.686 97.0174 384.982 96.8414 384.353 96.8414C383.425 96.8414 382.961 97.1881 382.961 97.8814C382.961 98.1481 383.046 98.3774 383.217 98.5694C383.387 98.7614 383.707 98.9161 384.177 99.0334L385.057 99.2574C385.761 99.4281 386.278 99.7054 386.609 100.089C386.939 100.473 387.105 100.969 387.105 101.577C387.105 102.015 387.009 102.415 386.817 102.777C386.635 103.129 386.337 103.407 385.921 103.609C385.515 103.812 384.966 103.913 384.273 103.913C383.814 103.913 383.355 103.865 382.897 103.769C382.449 103.673 381.985 103.519 381.505 103.305L381.857 102.217C382.315 102.399 382.731 102.532 383.105 102.617C383.478 102.703 383.857 102.745 384.241 102.745ZM402.232 95.8334L400.2 103.753H398.68L397.016 97.2574L395.304 103.753H393.784L391.768 95.8334H393.112L393.912 99.1454L394.632 102.425L396.344 95.8334H397.736L399.448 102.457L400.152 99.1614L400.936 95.8334H402.232ZM405.525 93.8974H404.053V92.4254H405.525V93.8974ZM405.445 103.753H404.133V95.8334H405.445V103.753ZM412.625 103.465C412.028 103.764 411.393 103.913 410.721 103.913C410.145 103.913 409.692 103.796 409.361 103.561C409.041 103.327 408.812 103.012 408.673 102.617C408.545 102.223 408.481 101.785 408.481 101.305V96.9854H407.105V95.8334H408.481V93.6254H409.793V95.8334H412.385V96.9854H409.793V101.257C409.793 101.812 409.884 102.196 410.065 102.409C410.257 102.612 410.551 102.713 410.945 102.713C411.137 102.713 411.335 102.692 411.537 102.649C411.751 102.596 411.98 102.511 412.225 102.393L412.625 103.465ZM418.159 96.9054C417.861 96.9054 417.509 96.9801 417.103 97.1294C416.709 97.2788 416.229 97.5828 415.663 98.0414V103.753H414.351V91.9134H415.663V96.8894C416.218 96.4201 416.719 96.1001 417.167 95.9294C417.615 95.7588 418.053 95.6734 418.479 95.6734C419.215 95.6734 419.775 95.9081 420.159 96.3774C420.554 96.8361 420.751 97.4921 420.751 98.3454V103.753H419.439V98.5374C419.439 97.4494 419.013 96.9054 418.159 96.9054ZM429.764 99.3054V100.265C429.764 101.396 429.471 102.287 428.884 102.937C428.308 103.588 427.481 103.913 426.404 103.913C425.337 103.913 424.511 103.588 423.924 102.937C423.337 102.287 423.044 101.396 423.044 100.265V99.3054C423.044 98.1961 423.332 97.3161 423.908 96.6654C424.495 96.0041 425.327 95.6734 426.404 95.6734C427.481 95.6734 428.308 96.0041 428.884 96.6654C429.471 97.3161 429.764 98.1961 429.764 99.3054ZM428.404 99.3054C428.404 98.5481 428.233 97.9561 427.892 97.5294C427.551 97.0921 427.055 96.8734 426.404 96.8734C425.764 96.8734 425.268 97.0921 424.916 97.5294C424.575 97.9561 424.404 98.5481 424.404 99.3054V100.265C424.404 101.055 424.575 101.663 424.916 102.089C425.268 102.516 425.764 102.729 426.404 102.729C427.055 102.729 427.551 102.516 427.892 102.089C428.233 101.663 428.404 101.055 428.404 100.265V99.3054ZM437.028 103.753V102.633C436.474 103.113 435.978 103.449 435.54 103.641C435.103 103.823 434.666 103.913 434.228 103.913C433.524 103.913 432.986 103.684 432.612 103.225C432.239 102.756 432.052 102.1 432.052 101.257V95.8334H433.364V101.065C433.364 101.62 433.46 102.031 433.652 102.297C433.855 102.553 434.154 102.681 434.548 102.681C434.847 102.681 435.183 102.607 435.556 102.457C435.93 102.308 436.394 102.009 436.948 101.561V95.8334H438.26V103.753H437.028ZM445.438 103.465C444.841 103.764 444.206 103.913 443.534 103.913C442.958 103.913 442.505 103.796 442.174 103.561C441.854 103.327 441.625 103.012 441.486 102.617C441.358 102.223 441.294 101.785 441.294 101.305V96.9854H439.918V95.8334H441.294V93.6254H442.606V95.8334H445.198V96.9854H442.606V101.257C442.606 101.812 442.697 102.196 442.878 102.409C443.07 102.612 443.363 102.713 443.758 102.713C443.95 102.713 444.147 102.692 444.35 102.649C444.563 102.596 444.793 102.511 445.038 102.393L445.438 103.465ZM456.984 104.745C456.984 105.524 456.664 106.148 456.024 106.617C455.395 107.087 454.526 107.321 453.416 107.321C452.862 107.321 452.28 107.247 451.672 107.097C451.075 106.948 450.51 106.708 449.976 106.377L450.424 105.353C450.958 105.652 451.47 105.86 451.96 105.977C452.462 106.105 452.947 106.169 453.416 106.169C454.142 106.169 454.702 106.052 455.096 105.817C455.491 105.583 455.688 105.268 455.688 104.873C455.688 104.585 455.592 104.361 455.4 104.201C455.208 104.052 454.899 103.977 454.472 103.977H452.632C451.939 103.977 451.438 103.812 451.128 103.481C450.819 103.151 450.664 102.788 450.664 102.393C450.664 102.116 450.728 101.844 450.856 101.577C450.984 101.3 451.166 101.028 451.4 100.761C451.027 100.537 450.728 100.233 450.504 99.8494C450.28 99.4548 450.168 98.9801 450.168 98.4254C450.168 97.8174 450.296 97.3108 450.552 96.9054C450.819 96.5001 451.171 96.1961 451.608 95.9934C452.046 95.7801 452.536 95.6734 453.08 95.6734H453.352C453.726 95.6734 454.067 95.7268 454.376 95.8334H457.224V97.0014L455.496 96.7614C455.72 96.9534 455.902 97.1934 456.04 97.4814C456.179 97.7588 456.248 98.1001 456.248 98.5054C456.248 99.0814 456.115 99.5668 455.848 99.9614C455.592 100.356 455.246 100.66 454.808 100.873C454.371 101.076 453.886 101.177 453.352 101.177H453.08C452.942 101.177 452.808 101.172 452.68 101.161C452.552 101.14 452.424 101.119 452.296 101.097C451.987 101.439 451.832 101.775 451.832 102.105C451.832 102.532 452.131 102.745 452.728 102.745H454.52C455.288 102.745 455.891 102.916 456.328 103.257C456.766 103.599 456.984 104.095 456.984 104.745ZM453.352 100.041C453.768 100.041 454.136 99.9081 454.456 99.6414C454.776 99.3748 454.936 98.9694 454.936 98.4254C454.936 97.8921 454.776 97.4921 454.456 97.2254C454.136 96.9481 453.768 96.8094 453.352 96.8094H453.08C452.654 96.8094 452.28 96.9481 451.96 97.2254C451.64 97.4921 451.48 97.8921 451.48 98.4254C451.48 98.9694 451.64 99.3748 451.96 99.6414C452.28 99.9081 452.654 100.041 453.08 100.041H453.352ZM464.705 103.289C464.225 103.524 463.745 103.684 463.265 103.769C462.785 103.865 462.342 103.913 461.937 103.913C460.796 103.913 459.942 103.588 459.377 102.937C458.822 102.287 458.545 101.396 458.545 100.265V99.3054C458.545 98.2068 458.822 97.3268 459.377 96.6654C459.942 96.0041 460.737 95.6734 461.761 95.6734C462.305 95.6734 462.801 95.7854 463.249 96.0094C463.708 96.2228 464.07 96.5534 464.337 97.0014C464.614 97.4388 464.753 98.0041 464.753 98.6974C464.753 99.1454 464.689 99.6574 464.561 100.233H459.841V100.265C459.841 101.076 460.006 101.689 460.337 102.105C460.678 102.521 461.222 102.729 461.969 102.729C462.31 102.729 462.684 102.687 463.089 102.601C463.505 102.516 463.91 102.383 464.305 102.201L464.705 103.289ZM461.761 96.8254C461.142 96.8254 460.673 97.0281 460.353 97.4334C460.044 97.8281 459.873 98.3881 459.841 99.1134H463.425C463.457 98.9214 463.473 98.7401 463.473 98.5694C463.473 97.9721 463.302 97.5348 462.961 97.2574C462.63 96.9694 462.23 96.8254 461.761 96.8254ZM471.375 103.465C470.778 103.764 470.143 103.913 469.471 103.913C468.895 103.913 468.442 103.796 468.111 103.561C467.791 103.327 467.562 103.012 467.423 102.617C467.295 102.223 467.231 101.785 467.231 101.305V96.9854H465.855V95.8334H467.231V93.6254H468.543V95.8334H471.135V96.9854H468.543V101.257C468.543 101.812 468.634 102.196 468.815 102.409C469.007 102.612 469.301 102.713 469.695 102.713C469.887 102.713 470.085 102.692 470.287 102.649C470.501 102.596 470.73 102.511 470.975 102.393L471.375 103.465ZM477.453 103.465C476.856 103.764 476.221 103.913 475.549 103.913C474.973 103.913 474.52 103.796 474.189 103.561C473.869 103.327 473.64 103.012 473.501 102.617C473.373 102.223 473.309 101.785 473.309 101.305V96.9854H471.933V95.8334H473.309V93.6254H474.621V95.8334H477.213V96.9854H474.621V101.257C474.621 101.812 474.712 102.196 474.893 102.409C475.085 102.612 475.379 102.713 475.773 102.713C475.965 102.713 476.163 102.692 476.365 102.649C476.579 102.596 476.808 102.511 477.053 102.393L477.453 103.465ZM480.572 93.8974H479.1V92.4254H480.572V93.8974ZM480.492 103.753H479.18V95.8334H480.492V103.753ZM487.128 96.9054C486.83 96.9054 486.478 96.9801 486.072 97.1294C485.678 97.2788 485.198 97.5828 484.632 98.0414V103.753H483.32V95.8334H484.568V96.9374C485.134 96.4574 485.646 96.1268 486.104 95.9454C486.574 95.7641 487.022 95.6734 487.448 95.6734C488.184 95.6734 488.744 95.9081 489.128 96.3774C489.523 96.8361 489.72 97.4921 489.72 98.3454V103.753H488.408V98.5374C488.408 97.4494 487.982 96.9054 487.128 96.9054ZM498.797 104.745C498.797 105.524 498.477 106.148 497.837 106.617C497.208 107.087 496.338 107.321 495.229 107.321C494.674 107.321 494.093 107.247 493.485 107.097C492.888 106.948 492.322 106.708 491.789 106.377L492.237 105.353C492.77 105.652 493.282 105.86 493.773 105.977C494.274 106.105 494.76 106.169 495.229 106.169C495.954 106.169 496.514 106.052 496.909 105.817C497.304 105.583 497.501 105.268 497.501 104.873C497.501 104.585 497.405 104.361 497.213 104.201C497.021 104.052 496.712 103.977 496.285 103.977H494.445C493.752 103.977 493.25 103.812 492.941 103.481C492.632 103.151 492.477 102.788 492.477 102.393C492.477 102.116 492.541 101.844 492.669 101.577C492.797 101.3 492.978 101.028 493.213 100.761C492.84 100.537 492.541 100.233 492.317 99.8494C492.093 99.4548 491.981 98.9801 491.981 98.4254C491.981 97.8174 492.109 97.3108 492.365 96.9054C492.632 96.5001 492.984 96.1961 493.421 95.9934C493.858 95.7801 494.349 95.6734 494.893 95.6734H495.165C495.538 95.6734 495.88 95.7268 496.189 95.8334H499.037V97.0014L497.309 96.7614C497.533 96.9534 497.714 97.1934 497.853 97.4814C497.992 97.7588 498.061 98.1001 498.061 98.5054C498.061 99.0814 497.928 99.5668 497.661 99.9614C497.405 100.356 497.058 100.66 496.621 100.873C496.184 101.076 495.698 101.177 495.165 101.177H494.893C494.754 101.177 494.621 101.172 494.493 101.161C494.365 101.14 494.237 101.119 494.109 101.097C493.8 101.439 493.645 101.775 493.645 102.105C493.645 102.532 493.944 102.745 494.541 102.745H496.333C497.101 102.745 497.704 102.916 498.141 103.257C498.578 103.599 498.797 104.095 498.797 104.745ZM495.165 100.041C495.581 100.041 495.949 99.9081 496.269 99.6414C496.589 99.3748 496.749 98.9694 496.749 98.4254C496.749 97.8921 496.589 97.4921 496.269 97.2254C495.949 96.9481 495.581 96.8094 495.165 96.8094H494.893C494.466 96.8094 494.093 96.9481 493.773 97.2254C493.453 97.4921 493.293 97.8921 493.293 98.4254C493.293 98.9694 493.453 99.3748 493.773 99.6414C494.093 99.9081 494.466 100.041 494.893 100.041H495.165ZM119.414 120.833V110.913H120.726V120.769C120.726 121.057 120.768 121.276 120.854 121.425C120.95 121.564 121.136 121.633 121.414 121.633H121.67V122.833H121.302C120.598 122.833 120.107 122.647 119.83 122.273C119.552 121.9 119.414 121.42 119.414 120.833ZM129.92 118.305V119.265C129.92 120.396 129.627 121.287 129.04 121.937C128.464 122.588 127.638 122.913 126.56 122.913C125.494 122.913 124.667 122.588 124.08 121.937C123.494 121.287 123.2 120.396 123.2 119.265V118.305C123.2 117.196 123.488 116.316 124.064 115.665C124.651 115.004 125.483 114.673 126.56 114.673C127.638 114.673 128.464 115.004 129.04 115.665C129.627 116.316 129.92 117.196 129.92 118.305ZM128.56 118.305C128.56 117.548 128.39 116.956 128.048 116.529C127.707 116.092 127.211 115.873 126.56 115.873C125.92 115.873 125.424 116.092 125.072 116.529C124.731 116.956 124.56 117.548 124.56 118.305V119.265C124.56 120.055 124.731 120.663 125.072 121.089C125.424 121.516 125.92 121.729 126.56 121.729C127.211 121.729 127.707 121.516 128.048 121.089C128.39 120.663 128.56 120.055 128.56 119.265V118.305ZM134.241 121.745C135.307 121.745 135.841 121.383 135.841 120.657C135.841 120.348 135.745 120.103 135.553 119.921C135.361 119.74 135.009 119.585 134.497 119.457L133.617 119.233C132.966 119.073 132.481 118.796 132.161 118.401C131.841 117.996 131.681 117.516 131.681 116.961C131.681 116.556 131.771 116.183 131.953 115.841C132.134 115.489 132.422 115.207 132.817 114.993C133.211 114.78 133.723 114.673 134.353 114.673C134.758 114.673 135.169 114.721 135.585 114.817C136.011 114.903 136.443 115.052 136.881 115.265L136.465 116.369C135.686 116.017 134.982 115.841 134.353 115.841C133.425 115.841 132.961 116.188 132.961 116.881C132.961 117.148 133.046 117.377 133.217 117.569C133.387 117.761 133.707 117.916 134.177 118.033L135.057 118.257C135.761 118.428 136.278 118.705 136.609 119.089C136.939 119.473 137.105 119.969 137.105 120.577C137.105 121.015 137.009 121.415 136.817 121.777C136.635 122.129 136.337 122.407 135.921 122.609C135.515 122.812 134.966 122.913 134.273 122.913C133.814 122.913 133.355 122.865 132.897 122.769C132.449 122.673 131.985 122.519 131.505 122.305L131.857 121.217C132.315 121.399 132.731 121.532 133.105 121.617C133.478 121.703 133.857 121.745 134.241 121.745ZM143.547 122.465C142.95 122.764 142.315 122.913 141.643 122.913C141.067 122.913 140.614 122.796 140.283 122.561C139.963 122.327 139.734 122.012 139.595 121.617C139.467 121.223 139.403 120.785 139.403 120.305V115.985H138.027V114.833H139.403V112.625H140.715V114.833H143.307V115.985H140.715V120.257C140.715 120.812 140.806 121.196 140.987 121.409C141.179 121.612 141.473 121.713 141.867 121.713C142.059 121.713 142.257 121.692 142.459 121.649C142.673 121.596 142.902 121.511 143.147 121.393L143.547 122.465ZM146.137 122.753H144.665V121.297H146.137V122.753Z" fill="#414141"/>
</svg>
