<svg width="310" height="184" viewBox="0 0 310 184" fill="none" xmlns="http://www.w3.org/2000/svg">
<g clip-path="url(#clip0_452_10228)">
<path d="M77.9485 149.173L77.4846 195.449C77.2898 214.943 82.4305 234.165 92.6143 250.787C101.435 265.185 115.176 279.679 136.44 287.642C148.354 292.104 161.527 292.104 173.444 287.642C194.708 279.679 208.449 265.185 217.269 250.787C227.453 234.165 232.594 214.943 232.399 195.449L231.935 149.173C288.285 120.098 314.082 70.3744 309.328 0C309.328 0 218.194 10.6605 189.682 101.274C179.647 99.9535 168.194 99.0287 155.565 99C142.431 98.9685 130.549 99.9135 120.199 101.274" fill="#F56B09"/>
<path d="M120.199 101.274C91.6896 10.6605 0.555911 0 0.555911 0C-4.19809 70.3744 21.5995 120.098 77.9488 149.173" fill="#F56B09"/>
<path d="M113.6 102.204C89.0514 41.9148 26.2012 34.5615 26.2012 34.5615C22.8018 84.9062 40.0336 121.306 77.8938 143.761C78.4609 119.333 90.4633 106.402 113.6 102.204Z" fill="#F59857"/>
<path d="M284.361 34.5615C284.361 34.5615 221.385 41.9319 196.887 102.385C219.589 106.797 231.274 119.886 231.652 144.359C270.222 121.953 287.792 85.3557 284.358 34.5586L284.361 34.5615Z" fill="#F59857"/>
<path d="M210.017 154.177C201.57 142.992 167.782 152.5 167.782 165.361C167.782 178.222 190.307 196.678 199.88 193.881C209.454 191.083 216.211 168.718 210.017 154.177Z" fill="white"/>
<path d="M190.253 183.893V157.891C184.668 158.496 180.759 163.938 181.317 172.404C181.876 180.869 184.668 183.893 190.253 183.893Z" fill="black"/>
<path d="M190.253 183.893V157.891C195.837 158.496 199.746 163.938 199.188 172.404C198.629 180.869 195.837 183.893 190.253 183.893Z" fill="black"/>
<path d="M99.8664 154.177C108.314 142.992 142.101 152.5 142.101 165.361C142.101 178.222 119.576 196.678 110.003 193.881C100.43 191.083 93.6718 168.718 99.8664 154.177Z" fill="white"/>
<path d="M119.631 183.893V157.891C125.215 158.496 129.125 163.938 128.566 172.404C128.008 180.869 125.215 183.893 119.631 183.893Z" fill="black"/>
<path d="M119.631 183.893V157.891C114.046 158.496 110.137 163.938 110.696 172.404C111.254 180.869 114.047 183.893 119.631 183.893Z" fill="black"/>
</g>
<defs>
<clipPath id="clip0_452_10228">
<rect width="309.884" height="183.22" fill="white"/>
</clipPath>
</defs>
</svg>
